<svg width="148" height="66" viewBox="0 0 148 66" fill="none" xmlns="http://www.w3.org/2000/svg">
<path d="M5.39111 55.2537H17.9704V22.3433C17.9704 20.7313 18.0153 19.0448 18.1051 17.2836L10.6924 23.4179C10.2132 23.806 9.73395 24.0896 9.25474 24.2687C8.77553 24.4179 8.3113 24.4925 7.86204 24.4925C7.08332 24.4925 6.37948 24.3284 5.75052 24C5.15151 23.6418 4.70225 23.2687 4.40274 22.8806L0 17.0597L20.3964 0H31.8974V55.2537H42.6796V65.2836H5.39111V55.2537Z" fill="#8A7B60"/>
<path d="M77.0999 23.9552C79.466 23.9552 81.8021 24.3433 84.1083 25.1194C86.4145 25.8955 88.4811 27.0896 90.3081 28.7015C92.1351 30.3134 93.6027 32.3582 94.7108 34.8358C95.849 37.2836 96.418 40.1791 96.418 43.5224C96.418 46.5672 95.849 49.4627 94.7108 52.209C93.5727 54.9254 91.9554 57.3134 89.8588 59.3731C87.7923 61.403 85.2914 63.0149 82.3562 64.209C79.4211 65.403 76.1714 66 72.6073 66C68.9533 66 65.6737 65.4328 62.7685 64.2985C59.8633 63.1343 57.3924 61.5224 55.3557 59.4627C53.3491 57.403 51.8066 54.9403 50.7284 52.0746C49.6801 49.209 49.156 46.0597 49.156 42.6269C49.156 39.3731 49.7849 36.1343 51.0429 32.9104C52.3008 29.6866 54.1577 26.403 56.6137 23.0597L71.3494 3.22388C72.0083 2.32836 72.9967 1.58209 74.3145 0.985072C75.6323 0.35821 77.1298 0.0447781 78.8071 0.0447781H91.2066L71.7986 23.1493C71.4991 23.4776 71.1996 23.8209 70.9001 24.1791C70.6306 24.5075 70.361 24.8358 70.0914 25.1642C71.1397 24.7761 72.2329 24.4776 73.371 24.2687C74.5391 24.0597 75.7821 23.9552 77.0999 23.9552ZM62.5439 44.5075C62.5439 46.1194 62.7386 47.5672 63.1279 48.8507C63.5173 50.1343 64.1163 51.2388 64.925 52.1642C65.7336 53.0896 66.7519 53.806 67.9799 54.3134C69.2079 54.791 70.6605 55.0299 72.3377 55.0299C73.7754 55.0299 75.1082 54.7612 76.3361 54.2239C77.5941 53.6866 78.6723 52.9552 79.5708 52.0299C80.4693 51.0746 81.1732 49.9701 81.6823 48.7164C82.2214 47.4328 82.491 46.0448 82.491 44.5522C82.491 42.8806 82.2364 41.3881 81.7273 40.0746C81.248 38.7612 80.5592 37.6567 79.6607 36.7612C78.7621 35.8657 77.669 35.1791 76.3811 34.7015C75.1232 34.2239 73.7155 33.9851 72.158 33.9851C70.7504 33.9851 69.4625 34.2388 68.2944 34.7463C67.1263 35.2239 66.108 35.9254 65.2394 36.8507C64.4008 37.7761 63.7419 38.8806 63.2627 40.1642C62.7835 41.4478 62.5439 42.8955 62.5439 44.5075Z" fill="#8A7B60"/>
<path d="M148 0.0447781V5.86567C148 7.50746 147.82 8.83582 147.461 9.85075C147.102 10.8657 146.757 11.7313 146.428 12.4478L123.56 60.7164C122.961 62 122.078 63.0896 120.91 63.9851C119.742 64.8507 118.199 65.2836 116.282 65.2836H106.129L129.491 18.5821C130.119 17.2985 130.793 16.1493 131.512 15.1343C132.261 14.1194 133.07 13.1493 133.938 12.2239H105.141C104.721 12.2239 104.317 12.1493 103.928 12C103.568 11.8209 103.239 11.597 102.939 11.3284C102.67 11.0299 102.445 10.7015 102.265 10.3433C102.086 9.95522 101.996 9.56717 101.996 9.17911V0.0447781H148Z" fill="#8A7B60"/>
</svg>
