<svg width="106" height="95" viewBox="0 0 106 95" fill="none" xmlns="http://www.w3.org/2000/svg">
<g clip-path="url(#clip0_1_496)">
<path d="M49.6151 6.65096C50.1619 4.77858 49.6674 2.98967 48.5106 2.65533C47.3537 2.32098 45.9727 3.56781 45.4259 5.44019C44.8791 7.31258 45.3736 9.10148 46.5304 9.43583C47.6872 9.77017 49.0682 8.52334 49.6151 6.65096Z" fill="white"/>
<path d="M74.3801 16.9619C77.0402 16.9619 79.1967 15.7703 79.1967 14.3004C79.1967 12.8305 77.0402 11.6389 74.3801 11.6389C71.7199 11.6389 69.5635 12.8305 69.5635 14.3004C69.5635 15.7703 71.7199 16.9619 74.3801 16.9619Z" fill="white"/>
<path d="M86.5559 17.0648C88.0507 14.8163 88.0901 12.2222 86.6439 11.2707C85.1977 10.3191 82.8135 11.3705 81.3187 13.6189C79.8239 15.8673 79.7845 18.4614 81.2307 19.413C82.6769 20.3645 85.0611 19.3132 86.5559 17.0648Z" fill="white"/>
<path d="M30.2032 3.69232C30.677 2.07011 30.0095 0.451144 28.7124 0.0762513C27.4153 -0.298642 25.9797 0.712505 25.506 2.33471C25.0322 3.95692 25.6997 5.57588 26.9968 5.95078C28.2939 6.32567 29.7295 5.31452 30.2032 3.69232Z" fill="white"/>
<path d="M54.9448 5.68736C56.0196 4.99247 56.1091 3.23244 55.1447 1.75623C54.1803 0.280018 52.5272 -0.353369 51.4524 0.341521C50.3776 1.03641 50.2881 2.79644 51.2525 4.27265C52.2169 5.74886 53.87 6.38225 54.9448 5.68736Z" fill="white"/>
<path d="M53.5525 65.6C54.1334 64.5158 53.222 62.9039 51.5168 61.9996C49.8115 61.0953 47.9582 61.2411 47.3773 62.3253C46.7964 63.4095 47.7078 65.0214 49.4131 65.9257C51.1183 66.8299 52.9716 66.6841 53.5525 65.6Z" fill="white"/>
<path d="M69.7954 46.1307C70.7018 45.229 70.1677 43.2357 68.6025 41.6786C67.0373 40.1215 65.0336 39.5902 64.1272 40.4918C63.2209 41.3935 63.755 43.3868 65.3202 44.9439C66.8854 46.501 68.889 47.0324 69.7954 46.1307Z" fill="white"/>
<path d="M75.5253 49.8203C75.955 48.6831 74.8537 47.2192 73.0655 46.5505C71.2773 45.8818 69.4794 46.2617 69.0497 47.3988C68.62 48.536 69.7213 49.9999 71.5095 50.6686C73.2977 51.3372 75.0956 50.9574 75.5253 49.8203Z" fill="white"/>
<path d="M51.0955 16.1726C52.1052 15.4004 51.837 13.368 50.4963 11.633C49.1556 9.898 47.2503 9.11746 46.2406 9.88961C45.2309 10.6618 45.4992 12.6942 46.8398 14.4292C48.1805 16.1642 50.0858 16.9448 51.0955 16.1726Z" fill="white"/>
<path d="M33.5809 37.1903C34.8785 36.3433 34.8075 33.9541 33.4222 31.8538C32.037 29.7536 29.8622 28.7376 28.5646 29.5846C27.267 30.4315 27.338 32.8208 28.7232 34.921C30.1084 37.0213 32.2833 38.0373 33.5809 37.1903Z" fill="white"/>
<path d="M12.8593 79.7762C13.9695 78.9272 13.6738 76.6914 12.1987 74.7824C10.7236 72.8735 8.62782 72.0143 7.51758 72.8633C6.40735 73.7124 6.7031 75.9481 8.17817 77.8571C9.65323 79.766 11.749 80.6252 12.8593 79.7762Z" fill="white"/>
<path d="M22.1664 71.441C22.3873 69.7606 20.098 68.0772 17.053 67.6811C14.0081 67.2849 11.3606 68.3261 11.1397 70.0066C10.9188 71.687 13.2082 73.3704 16.2531 73.7665C19.2981 74.1626 21.9455 73.1215 22.1664 71.441Z" fill="white"/>
<path d="M89.8644 100.665C90.8021 98.5344 90.3055 96.2599 88.7551 95.5845C87.2047 94.909 85.1876 96.0883 84.2499 98.2185C83.3122 100.349 83.8089 102.623 85.3593 103.299C86.9097 103.974 88.9267 102.795 89.8644 100.665Z" fill="white"/>
<path d="M105.101 67.7922C106.039 65.662 105.542 63.3876 103.992 62.7122C102.441 62.0367 100.424 63.216 99.4867 65.3462C98.549 67.4764 99.0457 69.7508 100.596 70.4263C102.146 71.1017 104.164 69.9224 105.101 67.7922Z" fill="white"/>
<path d="M85.9574 37.2619C86.5565 36.1439 85.6164 34.4814 83.8576 33.5488C82.0989 32.6161 80.1875 32.7664 79.5884 33.8844C78.9893 35.0025 79.9294 36.6649 81.6882 37.5975C83.4469 38.5302 85.3584 38.3799 85.9574 37.2619Z" fill="white"/>
<path d="M75.3023 79.5474C75.7984 77.6582 74.073 75.5739 71.4485 74.8919C68.8241 74.2098 66.2944 75.1884 65.7983 77.0776C65.3023 78.9667 67.0277 81.0511 69.6521 81.7331C72.2766 82.4151 74.8062 81.4365 75.3023 79.5474Z" fill="white"/>
<path d="M105.179 84.4452C107.014 83.5717 107.518 80.818 106.304 78.2948C105.091 75.7716 102.619 74.4342 100.784 75.3078C98.9489 76.1813 98.445 78.9349 99.6586 81.4581C100.872 83.9813 103.344 85.3187 105.179 84.4452Z" fill="white"/>
<path d="M44.5845 73.9828C45.3483 71.7067 43.8986 69.1745 41.3466 68.327C38.7946 67.4795 36.1066 68.6376 35.3429 70.9137C34.5791 73.1898 36.0288 75.7219 38.5808 76.5694C41.1328 77.417 43.8208 76.2589 44.5845 73.9828Z" fill="white"/>
<path d="M73.3223 93.1694C75.2659 91.4563 76.0665 89.1973 75.1104 88.1238C74.1544 87.0503 71.8037 87.5688 69.8601 89.2818C67.9164 90.9949 67.1159 93.2539 68.0719 94.3275C69.028 95.401 71.3786 94.8825 73.3223 93.1694Z" fill="white"/>
<path d="M97.5124 92.6034C98.0251 90.7556 96.3598 88.6863 93.7929 87.9815C91.226 87.2766 88.7295 88.2032 88.2168 90.051C87.7042 91.8988 89.3695 93.9681 91.9364 94.6729C94.5033 95.3777 96.9998 94.4512 97.5124 92.6034Z" fill="white"/>
<path d="M22.7782 56.7023C22.7842 55.4792 21.1667 54.4798 19.1654 54.4701C17.1641 54.4604 15.5369 55.444 15.5309 56.667C15.5249 57.8901 17.1424 58.8895 19.1437 58.8992C21.1449 58.9089 22.7722 57.9253 22.7782 56.7023Z" fill="white"/>
<path d="M35.3036 67.7495C36.2536 67.1405 36.2164 65.4003 35.2203 63.8628C34.2243 62.3253 32.6467 61.5726 31.6967 62.1817C30.7467 62.7908 30.784 64.5309 31.78 66.0685C32.776 67.606 34.3536 68.3586 35.3036 67.7495Z" fill="white"/>
<path d="M65.8029 30.9267C67.9615 30.7765 69.6407 29.6479 69.5534 28.4059C69.4661 27.164 67.6454 26.2789 65.4867 26.429C63.3281 26.5792 61.6489 27.7078 61.7362 28.9497C61.8235 30.1917 63.6442 31.0768 65.8029 30.9267Z" fill="white"/>
<path d="M55.0684 42.4674C55.6799 39.8637 55.007 37.4814 53.5655 37.1464C52.124 36.8114 50.4598 38.6505 49.8483 41.2542C49.2369 43.8578 49.9098 46.2401 51.3513 46.5751C52.7927 46.9102 54.457 45.0711 55.0684 42.4674Z" fill="white"/>
<path d="M35.5596 54.5453C37.3372 52.6773 37.8742 50.3116 36.7592 49.2615C35.6441 48.2115 33.2992 48.8745 31.5216 50.7426C29.744 52.6106 29.2069 54.9763 30.322 56.0264C31.437 57.0765 33.782 56.4134 35.5596 54.5453Z" fill="white"/>
<path d="M55.9561 53.8724C56.2848 52.19 55.0201 50.53 53.1314 50.1647C51.2426 49.7995 49.445 50.8673 49.1162 52.5498C48.7875 54.2323 50.0521 55.8923 51.9409 56.2575C53.8297 56.6228 55.6273 55.5549 55.9561 53.8724Z" fill="white"/>
<path d="M63.7156 39.6848C65.5115 37.6296 66.038 35.16 64.8917 34.1686C63.7453 33.1773 61.3602 34.0397 59.5644 36.0949C57.7686 38.1501 57.242 40.6198 58.3883 41.6111C59.5347 42.6024 61.9198 41.74 63.7156 39.6848Z" fill="white"/>
<path d="M50.2561 59.9687C51.2919 59.3047 51.3846 57.6134 50.4632 56.1912C49.5419 54.7689 47.9553 54.1542 46.9196 54.8183C45.8838 55.4823 45.7911 57.1736 46.7124 58.5959C47.6338 60.0181 49.2204 60.6328 50.2561 59.9687Z" fill="white"/>
<path d="M26.4576 49.2791C28.0672 48.8344 28.8058 46.4454 28.1073 43.9431C27.4088 41.4408 25.5377 39.7728 23.9281 40.2174C22.3185 40.6621 21.5799 43.0511 22.2784 45.5534C22.9769 48.0557 24.848 49.7237 26.4576 49.2791Z" fill="white"/>
<path d="M45.1906 48.3756C45.4807 46.317 43.3966 44.3248 40.5356 43.9258C37.6747 43.5268 35.1203 44.8722 34.8302 46.9307C34.5401 48.9893 36.6242 50.9815 39.4852 51.3805C42.3461 51.7795 44.9005 50.4341 45.1906 48.3756Z" fill="white"/>
<path d="M60.7455 25.6622C62.4397 22.6552 62.2146 19.3262 60.2427 18.2268C58.2709 17.1273 55.2991 18.6737 53.6049 21.6807C51.9107 24.6877 52.1358 28.0167 54.1077 29.1161C56.0795 30.2156 59.0513 28.6692 60.7455 25.6622Z" fill="white"/>
<path d="M102.778 46.0862C105.08 45.9261 106.871 44.723 106.778 43.3989C106.684 42.0748 104.743 41.1313 102.441 41.2914C100.14 41.4515 98.3494 42.6547 98.4424 43.9787C98.5355 45.3028 100.477 46.2463 102.778 46.0862Z" fill="white"/>
<path d="M86.2812 55.6238C86.8957 53.0067 86.084 50.5808 84.468 50.2052C82.852 49.8296 81.0438 51.6467 80.4292 54.2637C79.8146 56.8807 80.6264 59.3067 82.2424 59.6822C83.8583 60.0578 85.6666 58.2408 86.2812 55.6238Z" fill="white"/>
<path d="M98.691 57.5594C101.239 54.6432 101.984 51.1372 100.355 49.7285C98.7263 48.3198 95.3401 49.5418 92.7919 52.458C90.2437 55.3741 89.4985 58.8802 91.1275 60.2889C92.7565 61.6976 96.1428 60.4756 98.691 57.5594Z" fill="white"/>
<path d="M77.4465 39.0808C79.1247 38.1785 80.0155 36.5826 79.4362 35.5163C78.8568 34.4499 77.0268 34.317 75.3486 35.2193C73.6705 36.1216 72.7797 37.7175 73.359 38.7838C73.9383 39.8501 75.7684 39.9831 77.4465 39.0808Z" fill="white"/>
<path d="M65.0686 60.9055C66.6941 60.4564 67.4397 58.0424 66.7338 55.5137C66.0279 52.985 64.1379 51.2991 62.5124 51.7482C60.8868 52.1972 60.1413 54.6112 60.8472 57.1399C61.5531 59.6687 63.4431 61.3545 65.0686 60.9055Z" fill="white"/>
<path d="M64.2006 77.2879C65.292 76.5882 65.4601 74.9147 64.576 73.5501C63.692 72.1855 62.0906 71.6464 60.9993 72.3461C59.9079 73.0458 59.7398 74.7193 60.6239 76.0839C61.5079 77.4485 63.1092 77.9876 64.2006 77.2879Z" fill="white"/>
<path d="M77.1638 62.0008C77.3436 60.7244 76.0532 59.4894 74.2815 59.2423C72.5097 58.9952 70.9277 59.8297 70.7478 61.1061C70.5679 62.3825 71.8584 63.6175 73.6301 63.8646C75.4018 64.1117 76.9839 63.2773 77.1638 62.0008Z" fill="white"/>
<path d="M89.8718 43.705C90.8071 42.0448 90.6823 40.2065 89.593 39.5991C88.5037 38.9918 86.8624 39.8452 85.927 41.5054C84.9917 43.1656 85.1165 45.0039 86.2058 45.6112C87.2951 46.2186 88.9364 45.3651 89.8718 43.705Z" fill="white"/>
<path d="M101.717 37.6793C101.824 35.911 99.4222 34.3277 96.3514 34.143C93.2806 33.9583 90.7042 35.2421 90.5967 37.0104C90.4892 38.7788 92.8915 40.362 95.9622 40.5467C99.033 40.7314 101.609 39.4476 101.717 37.6793Z" fill="white"/>
<path d="M108.882 30.9839C112.894 30.2773 115.817 27.8569 115.411 25.5778C115.006 23.2987 111.425 22.024 107.413 22.7306C103.401 23.4372 100.477 25.8576 100.883 28.1367C101.289 30.4158 104.87 31.6905 108.882 30.9839Z" fill="white"/>
<path d="M94.1531 70.3833C94.7436 68.3693 94.214 66.4441 92.9702 66.0832C91.7264 65.7223 90.2394 67.0624 89.649 69.0764C89.0585 71.0904 89.5881 73.0156 90.8319 73.3765C92.0757 73.7374 93.5626 72.3973 94.1531 70.3833Z" fill="white"/>
<path d="M28.7266 29.8367C30.0541 28.9701 29.9804 26.5242 28.5619 24.3735C27.1435 22.2228 24.9174 21.1818 23.5898 22.0483C22.2622 22.9148 22.3359 25.3608 23.7544 27.5115C25.1729 29.6622 27.399 30.7032 28.7266 29.8367Z" fill="white"/>
<path d="M22.6073 6.27091C23.4366 4.3869 23.1653 2.44848 22.0012 1.94135C20.8372 1.43421 19.2212 2.55038 18.3918 4.4344C17.5625 6.31841 17.8338 8.25682 18.9979 8.76396C20.1619 9.2711 21.7779 8.15492 22.6073 6.27091Z" fill="white"/>
<path d="M15.8299 30.2448C17.4444 28.3925 17.7875 26.0579 16.5962 25.0302C15.405 24.0026 13.1304 24.671 11.5159 26.5233C9.90136 28.3755 9.55825 30.7102 10.7495 31.7378C11.9408 32.7655 14.2154 32.097 15.8299 30.2448Z" fill="white"/>
<path d="M33.1826 13.0026C34.5461 9.90531 33.9626 6.65871 31.8794 5.75114C29.7962 4.84357 27.0022 6.61871 25.6387 9.71603C24.2752 12.8133 24.8587 16.0599 26.9419 16.9675C29.0251 17.8751 31.8192 16.0999 33.1826 13.0026Z" fill="white"/>
<path d="M12.8034 17.2565C13.9423 16.7144 14.255 15.0055 13.5018 13.4397C12.7487 11.8738 11.2149 11.0438 10.076 11.5859C8.93716 12.128 8.62446 13.8369 9.37759 15.4028C10.1307 16.9687 11.6645 17.7986 12.8034 17.2565Z" fill="white"/>
<path d="M86.4564 75.2273C88.171 74.5745 89.2216 73.163 88.8029 72.0745C88.3842 70.9859 86.6548 70.6327 84.9401 71.2854C83.2255 71.9381 82.1749 73.3497 82.5936 74.4382C83.0123 75.5267 84.7417 75.88 86.4564 75.2273Z" fill="white"/>
<path d="M77.0213 24.6624C78.2261 23.0556 78.3484 21.1189 77.2944 20.3368C76.2404 19.5547 74.4093 20.2233 73.2045 21.8301C71.9997 23.437 71.8774 25.3737 72.9314 26.1558C73.9853 26.9379 75.8165 26.2693 77.0213 24.6624Z" fill="white"/>
<path d="M50.4661 87.6813C51.7043 87.0979 51.9334 84.9976 50.9777 82.99C50.0221 80.9825 48.2436 79.8279 47.0054 80.4112C45.7672 80.9945 45.5381 83.0949 46.4938 85.1024C47.4494 87.11 49.2279 88.2646 50.4661 87.6813Z" fill="white"/>
<path d="M53.8158 93.8468C54.425 92.0311 52.653 89.8068 49.8578 88.8785C47.0626 87.9502 44.3027 88.6696 43.6935 90.4853C43.0842 92.3009 44.8563 94.5253 47.6515 95.4536C50.4467 96.3818 53.2065 95.6625 53.8158 93.8468Z" fill="white"/>
<path d="M43.8351 23.7543C45.0285 23.1921 45.2499 21.1692 44.3296 19.236C43.4094 17.3028 41.696 16.1913 40.5026 16.7535C39.3092 17.3157 39.0878 19.3387 40.008 21.2719C40.9283 23.2051 42.6417 24.3165 43.8351 23.7543Z" fill="white"/>
<path d="M47.0342 29.9832C47.6182 28.243 45.9189 26.1107 43.2387 25.2207C40.5586 24.3306 37.9125 25.0198 37.3286 26.7601C36.7446 28.5003 38.4439 30.6325 41.1241 31.5226C43.8042 32.4126 46.4503 31.7234 47.0342 29.9832Z" fill="white"/>
<path d="M36.8679 96.7912C39.1002 95.7396 39.7267 92.4017 38.2673 89.3358C36.8079 86.2699 33.8152 84.637 31.5829 85.6886C29.3506 86.7403 28.7241 90.0782 30.1835 93.1441C31.6429 96.2099 34.6356 97.8428 36.8679 96.7912Z" fill="white"/>
<path d="M64.4244 92.8227C66.7364 91.7335 67.4945 88.5058 66.1177 85.6134C64.7408 82.721 61.7505 81.2592 59.4385 82.3484C57.1264 83.4376 56.3683 86.6653 57.7452 89.5577C59.122 92.4501 62.1124 93.9119 64.4244 92.8227Z" fill="white"/>
<path d="M33.8052 76.1193C33.9713 74.9019 32.4916 73.697 30.5003 73.4281C28.509 73.1592 26.7601 73.9281 26.594 75.1455C26.4279 76.363 27.9075 77.5678 29.8988 77.8367C31.8901 78.1056 33.639 77.3367 33.8052 76.1193Z" fill="white"/>
<path d="M21.6825 92.0302C23.2464 91.8099 24.2332 89.6569 23.8865 87.2213C23.5398 84.7857 21.9909 82.9899 20.427 83.2102C18.863 83.4305 17.8763 85.5836 18.223 88.0191C18.5697 90.4547 20.1185 92.2505 21.6825 92.0302Z" fill="white"/>
<path d="M24.9043 70.031C26.1051 69.4652 26.499 67.7891 25.7841 66.2871C25.0691 64.7851 23.516 64.0262 22.3152 64.5919C21.1143 65.1576 20.7205 66.8338 21.4354 68.3357C22.1504 69.8377 23.7034 70.5967 24.9043 70.031Z" fill="white"/>
<path d="M12.4134 48.6062C13.7227 45.632 13.0277 42.4558 10.8612 41.5119C8.69467 40.568 5.87697 42.2139 4.56768 45.1882C3.2584 48.1624 3.95334 51.3386 6.11987 52.2825C8.2864 53.2264 11.1041 51.5805 12.4134 48.6062Z" fill="white"/>
<path d="M5.31666 59.5842C6.89567 58.8326 7.32983 56.4646 6.28638 54.2951C5.24293 52.1257 3.11701 50.9762 1.538 51.7278C-0.0410051 52.4794 -0.475164 54.8475 0.568284 57.0169C1.61173 59.1864 3.73765 60.3358 5.31666 59.5842Z" fill="white"/>
<path d="M87.018 87.0994C88.1454 85.5959 88.2604 83.7842 87.2749 83.0529C86.2894 82.3216 84.5766 82.9476 83.4492 84.4512C82.3219 85.9547 82.2069 87.7664 83.1923 88.4977C84.1778 89.229 85.8906 88.6029 87.018 87.0994Z" fill="white"/>
</g>
<defs>
<clipPath id="clip0_1_496">
<rect width="107" height="95" fill="white"/>
</clipPath>
</defs>
</svg>
