<svg width="71" height="31" viewBox="0 0 71 31" fill="none" xmlns="http://www.w3.org/2000/svg">
<path d="M2.58628 25.7593H8.62092V10.4164C8.62092 9.66496 8.64247 8.87868 8.68558 8.05761L5.12945 10.9174C4.89956 11.0984 4.66966 11.2306 4.43977 11.3141C4.20988 11.3836 3.98718 11.4184 3.77165 11.4184C3.39808 11.4184 3.06043 11.3419 2.75869 11.1888C2.47133 11.0218 2.25581 10.8479 2.11213 10.6669L0 7.95324L9.78474 0H15.3021V25.7593H20.4747V30.4352H2.58628V25.7593Z" fill="#8A7B60"/>
<path d="M36.9871 11.1679C38.1222 11.1679 39.2429 11.3489 40.3493 11.7107C41.4556 12.0725 42.447 12.6292 43.3235 13.3807C44.1999 14.1321 44.904 15.0854 45.4356 16.2405C45.9816 17.3816 46.2546 18.7315 46.2546 20.2902C46.2546 21.7096 45.9816 23.0595 45.4356 24.3398C44.8896 25.6062 44.1137 26.7196 43.108 27.6798C42.1166 28.6261 40.9168 29.3776 39.5087 29.9342C38.1006 30.4909 36.5417 30.7692 34.8319 30.7692C33.079 30.7692 31.5056 30.5048 30.1119 29.976C28.7182 29.4333 27.5328 28.6818 26.5558 27.7215C25.5931 26.7613 24.8532 25.6132 24.3359 24.2772C23.833 22.9412 23.5816 21.4731 23.5816 19.8727C23.5816 18.3558 23.8833 16.8458 24.4868 15.3429C25.0902 13.8399 25.9811 12.3091 27.1593 10.7504L34.2284 1.50297C34.5445 1.08548 35.0187 0.737571 35.6509 0.459241C36.2831 0.166997 37.0015 0.0208756 37.8061 0.0208756H43.7545L34.4439 10.7922C34.3003 10.9453 34.1566 11.1053 34.0129 11.2723C33.8836 11.4254 33.7543 11.5785 33.625 11.7316C34.1278 11.5506 34.6523 11.4115 35.1983 11.3141C35.7586 11.2166 36.3549 11.1679 36.9871 11.1679ZM30.0042 20.7494C30.0042 21.5009 30.0976 22.1758 30.2843 22.7742C30.4711 23.3726 30.7585 23.8876 31.1464 24.319C31.5344 24.7504 32.0229 25.0844 32.612 25.3209C33.2011 25.5436 33.8979 25.6549 34.7026 25.6549C35.3922 25.6549 36.0316 25.5297 36.6207 25.2792C37.2242 25.0287 37.7414 24.6877 38.1725 24.2563C38.6035 23.811 38.9412 23.2961 39.1854 22.7116C39.4441 22.1132 39.5734 21.4661 39.5734 20.7703C39.5734 19.991 39.4513 19.2951 39.207 18.6828C38.9771 18.0705 38.6466 17.5556 38.2156 17.1381C37.7845 16.7206 37.2601 16.4005 36.6423 16.1779C36.0388 15.9552 35.3635 15.8439 34.6164 15.8439C33.9411 15.8439 33.3232 15.9621 32.7629 16.1987C32.2025 16.4214 31.714 16.7484 31.2973 17.1798C30.895 17.6112 30.5789 18.1262 30.349 18.7246C30.1191 19.323 30.0042 19.9979 30.0042 20.7494Z" fill="#8A7B60"/>
<path d="M71 0.0208756V2.73458C71 3.49998 70.9138 4.11926 70.7414 4.59242C70.569 5.06558 70.4037 5.46916 70.2457 5.80315L59.2756 28.306C58.9882 28.9044 58.5643 29.4124 58.004 29.8299C57.4436 30.2334 56.7036 30.4352 55.7841 30.4352H50.9133L62.1205 8.66298C62.4222 8.06457 62.7455 7.52879 63.0903 7.05563C63.4495 6.58247 63.8375 6.13019 64.2541 5.69878H50.4391C50.238 5.69878 50.044 5.66399 49.8572 5.59441C49.6848 5.51091 49.5267 5.40653 49.383 5.28129C49.2537 5.14212 49.146 4.98904 49.0598 4.82204C48.9736 4.64113 48.9305 4.46022 48.9305 4.2793V0.0208756H71Z" fill="#8A7B60"/>
</svg>
