<svg width="142" height="81" viewBox="0 0 142 81" fill="none" xmlns="http://www.w3.org/2000/svg">
<g clip-path="url(#clip0_1_908)">
<path d="M49.6149 6.65096C50.1617 4.77858 49.6672 2.98967 48.5104 2.65533C47.3536 2.32098 45.9726 3.56781 45.4258 5.44019C44.8789 7.31258 45.3734 9.10148 46.5303 9.43583C47.6871 9.77017 49.0681 8.52334 49.6149 6.65096Z" fill="white"/>
<path d="M74.3802 16.9619C77.0403 16.9619 79.1968 15.7703 79.1968 14.3004C79.1968 12.8305 77.0403 11.6389 74.3802 11.6389C71.7201 11.6389 69.5636 12.8305 69.5636 14.3004C69.5636 15.7703 71.7201 16.9619 74.3802 16.9619Z" fill="white"/>
<path d="M86.556 17.0648C88.0508 14.8163 88.0902 12.2222 86.644 11.2707C85.1978 10.3191 82.8136 11.3705 81.3188 13.6189C79.824 15.8673 79.7846 18.4614 81.2308 19.413C82.677 20.3645 85.0612 19.3132 86.556 17.0648Z" fill="white"/>
<path d="M30.2034 3.69232C30.6771 2.07011 30.0096 0.451144 28.7125 0.0762513C27.4154 -0.298642 25.9799 0.712505 25.5061 2.33471C25.0324 3.95692 25.6998 5.57588 26.9969 5.95078C28.294 6.32567 29.7296 5.31452 30.2034 3.69232Z" fill="white"/>
<path d="M54.9449 5.68724C56.0197 4.99235 56.1092 3.23232 55.1448 1.75611C54.1804 0.279896 52.5273 -0.353491 51.4525 0.341399C50.3778 1.03629 50.2883 2.79632 51.2527 4.27253C52.217 5.74874 53.8701 6.38213 54.9449 5.68724Z" fill="white"/>
<path d="M53.5525 65.6C54.1334 64.5158 53.222 62.9039 51.5168 61.9996C49.8115 61.0953 47.9582 61.2411 47.3773 62.3253C46.7964 63.4095 47.7078 65.0214 49.4131 65.9257C51.1183 66.8299 52.9716 66.6841 53.5525 65.6Z" fill="white"/>
<path d="M132.844 30.1159C133.385 28.262 132.897 26.4911 131.754 26.1606C130.61 25.8301 129.244 27.0651 128.703 28.919C128.161 30.773 128.649 32.5438 129.793 32.8743C130.936 33.2049 132.302 31.9699 132.844 30.1159Z" fill="white"/>
<path d="M69.7954 46.1307C70.7018 45.229 70.1677 43.2357 68.6025 41.6786C67.0373 40.1215 65.0336 39.5902 64.1272 40.4918C63.2209 41.3935 63.755 43.3868 65.3202 44.9439C66.8854 46.501 68.889 47.0324 69.7954 46.1307Z" fill="white"/>
<path d="M75.5253 49.8203C75.955 48.6831 74.8537 47.2192 73.0655 46.5505C71.2773 45.8818 69.4794 46.2617 69.0497 47.3988C68.62 48.536 69.7213 49.9999 71.5095 50.6686C73.2977 51.3372 75.0956 50.9574 75.5253 49.8203Z" fill="white"/>
<path d="M51.0957 16.1726C52.1054 15.4004 51.8371 13.368 50.4964 11.633C49.1557 9.898 47.2504 9.11746 46.2407 9.88961C45.231 10.6618 45.4993 12.6942 46.84 14.4292C48.1806 16.1642 50.086 16.9448 51.0957 16.1726Z" fill="white"/>
<path d="M140.819 71.7456C141.54 70.1078 141.159 68.3591 139.967 67.8399C138.775 67.3206 137.224 68.2274 136.503 69.8653C135.782 71.5031 136.164 73.2517 137.356 73.771C138.548 74.2902 140.098 73.3834 140.819 71.7456Z" fill="white"/>
<path d="M147.815 78.8713C149.653 77.9966 150.157 75.2381 148.941 72.7099C147.725 70.1817 145.25 68.8413 143.412 69.716C141.574 70.5907 141.07 73.3493 142.286 75.8775C143.502 78.4056 145.978 79.746 147.815 78.8713Z" fill="white"/>
<path d="M33.5808 37.1903C34.8784 36.3433 34.8073 33.9541 33.4221 31.8538C32.0369 29.7536 29.8621 28.7376 28.5645 29.5846C27.2669 30.4315 27.3379 32.8208 28.7231 34.921C30.1083 37.0213 32.2832 38.0373 33.5808 37.1903Z" fill="white"/>
<path d="M12.8594 79.7762C13.9696 78.9272 13.6739 76.6914 12.1988 74.7824C10.7237 72.8735 8.62794 72.0143 7.51771 72.8633C6.40747 73.7124 6.70323 75.9481 8.17829 77.8571C9.65336 79.766 11.7492 80.6252 12.8594 79.7762Z" fill="white"/>
<path d="M22.1664 71.441C22.3873 69.7606 20.098 68.0772 17.053 67.6811C14.0081 67.2849 11.3606 68.3261 11.1397 70.0066C10.9188 71.687 13.2082 73.3704 16.2531 73.7665C19.2981 74.1626 21.9455 73.1215 22.1664 71.441Z" fill="white"/>
<path d="M105.101 67.7922C106.039 65.662 105.542 63.3876 103.992 62.7122C102.442 62.0367 100.425 63.216 99.4868 65.3462C98.5491 67.4764 99.0458 69.7508 100.596 70.4263C102.147 71.1017 104.164 69.9224 105.101 67.7922Z" fill="white"/>
<path d="M135.572 59.9335C136.439 59.0705 135.927 57.1622 134.428 55.671C132.929 54.1798 131.011 53.6705 130.143 54.5334C129.276 55.3963 129.788 57.3047 131.287 58.7959C132.786 60.287 134.704 60.7964 135.572 59.9335Z" fill="white"/>
<path d="M141.941 85.8345C142.832 84.9483 142.304 82.9865 140.763 81.4527C139.221 79.9188 137.249 79.3938 136.358 80.28C135.467 81.1661 135.995 83.128 137.537 84.6618C139.079 86.1956 141.051 86.7207 141.941 85.8345Z" fill="white"/>
<path d="M137.005 64.3822C137.439 63.2348 136.328 61.7578 134.524 61.0834C132.721 60.4089 130.907 60.7924 130.474 61.9398C130.04 63.0873 131.151 64.5642 132.954 65.2386C134.758 65.9131 136.572 65.5296 137.005 64.3822Z" fill="white"/>
<path d="M129.587 87.8394C132.389 87.2602 134.352 85.3171 133.972 83.4994C133.592 81.6817 131.013 80.6776 128.212 81.2568C125.41 81.836 123.447 83.7791 123.827 85.5968C124.207 87.4146 126.786 88.4186 129.587 87.8394Z" fill="white"/>
<path d="M148.238 60.5274C149.185 59.8037 148.932 57.8969 147.673 56.2685C146.415 54.64 144.628 53.9065 143.682 54.6302C142.735 55.3539 142.988 57.2607 144.247 58.8892C145.505 60.5176 147.292 61.2511 148.238 60.5274Z" fill="white"/>
<path d="M85.9574 37.2619C86.5565 36.1439 85.6164 34.4814 83.8576 33.5488C82.0989 32.6161 80.1875 32.7664 79.5884 33.8844C78.9893 35.0025 79.9294 36.6649 81.6882 37.5975C83.4469 38.5302 85.3584 38.3799 85.9574 37.2619Z" fill="white"/>
<path d="M146.697 52.0835C147.271 51.0114 146.368 49.4166 144.68 48.5213C142.992 47.6261 141.157 47.7694 140.583 48.8415C140.009 49.9135 140.911 51.5083 142.6 52.4036C144.288 53.2988 146.122 53.1555 146.697 52.0835Z" fill="white"/>
<path d="M75.3024 79.5474C75.7985 77.6582 74.0731 75.5739 71.4486 74.8919C68.8242 74.2098 66.2945 75.1884 65.7985 77.0776C65.3024 78.9667 67.0278 81.0511 69.6522 81.7331C72.2767 82.4151 74.8063 81.4365 75.3024 79.5474Z" fill="white"/>
<path d="M105.179 84.4452C107.014 83.5717 107.518 80.818 106.304 78.2948C105.09 75.7716 102.619 74.4342 100.784 75.3078C98.9487 76.1813 98.4449 78.9349 99.6585 81.4581C100.872 83.9813 103.344 85.3187 105.179 84.4452Z" fill="white"/>
<path d="M135.956 35.7549C137.987 35.6036 139.553 34.4125 139.454 33.0943C139.355 31.7762 137.628 30.8303 135.596 30.9815C133.565 31.1328 131.999 32.3239 132.098 33.642C132.197 34.9602 133.924 35.9061 135.956 35.7549Z" fill="white"/>
<path d="M115.386 79.9569C116.427 79.2898 116.521 77.5924 115.597 76.1656C114.672 74.7387 113.079 74.1227 112.039 74.7897C110.999 75.4567 110.905 77.1541 111.829 78.581C112.753 80.0079 114.346 80.6239 115.386 79.9569Z" fill="white"/>
<path d="M116.589 61.7201C118.581 60.4465 118.763 57.1975 116.996 54.4632C115.229 51.7289 112.182 50.5447 110.191 51.8182C108.199 53.0917 108.017 56.3408 109.784 59.0751C111.551 61.8094 114.598 62.9936 116.589 61.7201Z" fill="white"/>
<path d="M117.275 67.0673C117.475 65.6524 116.043 64.2831 114.077 64.009C112.112 63.7349 110.357 64.6597 110.157 66.0746C109.958 67.4896 111.39 68.8588 113.355 69.1329C115.321 69.407 117.076 68.4822 117.275 67.0673Z" fill="white"/>
<path d="M128.097 34.7076C128.298 33.2764 126.851 31.8915 124.863 31.6144C122.876 31.3372 121.101 32.2727 120.9 33.704C120.698 35.1352 122.146 36.5201 124.133 36.7972C126.12 37.0744 127.895 36.1389 128.097 34.7076Z" fill="white"/>
<path d="M44.5844 73.9828C45.3482 71.7067 43.8985 69.1745 41.3465 68.327C38.7945 67.4795 36.1065 68.6376 35.3427 70.9137C34.579 73.1898 36.0287 75.7219 38.5807 76.5694C41.1327 77.417 43.8207 76.2589 44.5844 73.9828Z" fill="white"/>
<path d="M127.958 74.8561C128.136 73.5572 126.554 72.2713 124.426 71.9839C122.299 71.6966 120.43 72.5166 120.253 73.8156C120.075 75.1145 121.657 76.4004 123.785 76.6878C125.913 76.9751 127.781 76.155 127.958 74.8561Z" fill="white"/>
<path d="M22.7783 56.7023C22.7843 55.4792 21.1668 54.4798 19.1655 54.4701C17.1643 54.4604 15.537 55.444 15.531 56.667C15.525 57.8901 17.1425 58.8895 19.1438 58.8992C21.1451 58.9089 22.7723 57.9253 22.7783 56.7023Z" fill="white"/>
<path d="M35.3037 67.7495C36.2538 67.1405 36.2165 65.4003 35.2205 63.8628C34.2244 62.3253 32.6469 61.5726 31.6968 62.1817C30.7468 62.7908 30.7841 64.5309 31.7801 66.0685C32.7762 67.606 34.3537 68.3586 35.3037 67.7495Z" fill="white"/>
<path d="M65.8029 30.9267C67.9615 30.7765 69.6407 29.6479 69.5534 28.4059C69.4661 27.164 67.6454 26.2789 65.4867 26.429C63.3281 26.5792 61.6489 27.7078 61.7362 28.9497C61.8235 30.1917 63.6442 31.0768 65.8029 30.9267Z" fill="white"/>
<path d="M55.0683 42.4674C55.6798 39.8637 55.0069 37.4814 53.5654 37.1464C52.1239 36.8114 50.4597 38.6505 49.8482 41.2542C49.2368 43.8578 49.9096 46.2401 51.3511 46.5751C52.7926 46.9102 54.4569 45.0711 55.0683 42.4674Z" fill="white"/>
<path d="M35.5596 54.5452C37.3371 52.6771 37.8742 50.3115 36.7592 49.2614C35.6441 48.2113 33.2992 48.8744 31.5216 50.7425C29.744 52.6105 29.2069 54.9761 30.322 56.0262C31.437 57.0763 33.782 56.4133 35.5596 54.5452Z" fill="white"/>
<path d="M55.9559 53.8724C56.2847 52.19 55.02 50.53 53.1313 50.1647C51.2425 49.7995 49.4449 50.8673 49.1161 52.5498C48.7874 54.2323 50.052 55.8923 51.9408 56.2575C53.8295 56.6228 55.6272 55.5549 55.9559 53.8724Z" fill="white"/>
<path d="M63.7156 39.6848C65.5115 37.6296 66.038 35.16 64.8917 34.1686C63.7453 33.1773 61.3602 34.0397 59.5644 36.0949C57.7686 38.1501 57.242 40.6198 58.3883 41.6111C59.5347 42.6024 61.9198 41.74 63.7156 39.6848Z" fill="white"/>
<path d="M50.2561 59.9687C51.2919 59.3047 51.3846 57.6134 50.4632 56.1912C49.5419 54.7689 47.9553 54.1542 46.9196 54.8183C45.8838 55.4823 45.7911 57.1736 46.7124 58.5959C47.6338 60.0181 49.2204 60.6328 50.2561 59.9687Z" fill="white"/>
<path d="M120.443 47.933C122.15 47.0151 123.056 45.3909 122.466 44.3052C121.876 43.2196 120.014 43.0837 118.307 44.0016C116.6 44.9196 115.694 46.5438 116.284 47.6294C116.873 48.715 118.735 48.851 120.443 47.933Z" fill="white"/>
<path d="M26.4576 49.2791C28.0672 48.8344 28.8058 46.4454 28.1073 43.9431C27.4088 41.4408 25.5377 39.7728 23.9281 40.2174C22.3185 40.6621 21.5799 43.0511 22.2784 45.5534C22.9769 48.0557 24.848 49.7237 26.4576 49.2791Z" fill="white"/>
<path d="M45.1906 48.3756C45.4807 46.317 43.3966 44.3248 40.5356 43.9258C37.6747 43.5268 35.1203 44.8722 34.8302 46.9307C34.5401 48.9893 36.6242 50.9815 39.4852 51.3805C42.3461 51.7795 44.9005 50.4341 45.1906 48.3756Z" fill="white"/>
<path d="M60.7456 25.6621C62.4398 22.655 62.2147 19.3261 60.2429 18.2266C58.271 17.1272 55.2992 18.6736 53.605 21.6806C51.9109 24.6876 52.136 28.0165 54.1078 29.116C56.0796 30.2154 59.0515 28.6691 60.7456 25.6621Z" fill="white"/>
<path d="M102.778 46.0862C105.08 45.9261 106.87 44.723 106.777 43.3989C106.684 42.0748 104.743 41.1313 102.441 41.2914C100.14 41.4515 98.3493 42.6547 98.4423 43.9787C98.5354 45.3028 100.477 46.2463 102.778 46.0862Z" fill="white"/>
<path d="M86.2812 55.6236C86.8957 53.0066 86.084 50.5806 84.468 50.2051C82.852 49.8295 81.0438 51.6465 80.4292 54.2635C79.8146 56.8806 80.6264 59.3065 82.2424 59.6821C83.8583 60.0577 85.6666 58.2407 86.2812 55.6236Z" fill="white"/>
<path d="M98.691 57.5593C101.239 54.6431 101.984 51.1371 100.355 49.7284C98.7263 48.3197 95.3401 49.5417 92.7919 52.4579C90.2437 55.374 89.4985 58.88 91.1275 60.2888C92.7565 61.6975 96.1428 60.4755 98.691 57.5593Z" fill="white"/>
<path d="M77.4464 39.0808C79.1246 38.1785 80.0154 36.5826 79.436 35.5163C78.8567 34.4499 77.0267 34.317 75.3485 35.2193C73.6703 36.1216 72.7796 37.7175 73.3589 38.7838C73.9382 39.8501 75.7683 39.9831 77.4464 39.0808Z" fill="white"/>
<path d="M65.0687 60.9055C66.6943 60.4564 67.4398 58.0424 66.7339 55.5137C66.028 52.985 64.138 51.2991 62.5125 51.7482C60.887 52.1972 60.1414 54.6112 60.8473 57.1399C61.5532 59.6687 63.4432 61.3545 65.0687 60.9055Z" fill="white"/>
<path d="M64.2007 77.2879C65.2921 76.5882 65.4602 74.9147 64.5762 73.5501C63.6921 72.1855 62.0908 71.6464 60.9994 72.3461C59.908 73.0458 59.74 74.7193 60.624 76.0839C61.508 77.4485 63.1094 77.9876 64.2007 77.2879Z" fill="white"/>
<path d="M77.1638 62.0008C77.3436 60.7244 76.0532 59.4894 74.2815 59.2423C72.5097 58.9952 70.9277 59.8297 70.7478 61.1061C70.5679 62.3825 71.8584 63.6175 73.6301 63.8646C75.4018 64.1117 76.9839 63.2773 77.1638 62.0008Z" fill="white"/>
<path d="M89.8716 43.705C90.807 42.0448 90.6822 40.2065 89.5929 39.5991C88.5036 38.9918 86.8623 39.8452 85.9269 41.5054C84.9915 43.1656 85.1163 45.0039 86.2057 45.6112C87.295 46.2186 88.9363 45.3651 89.8716 43.705Z" fill="white"/>
<path d="M101.717 37.6793C101.824 35.911 99.4221 34.3277 96.3513 34.143C93.2805 33.9583 90.704 35.2421 90.5966 37.0104C90.4891 38.7788 92.8913 40.362 95.9621 40.5467C99.0329 40.7314 101.609 39.4476 101.717 37.6793Z" fill="white"/>
<path d="M108.882 30.9839C112.893 30.2773 115.817 27.8569 115.411 25.5778C115.006 23.2987 111.425 22.024 107.413 22.7306C103.401 23.4372 100.477 25.8576 100.883 28.1367C101.289 30.4158 104.87 31.6905 108.882 30.9839Z" fill="white"/>
<path d="M112.282 38.4046C114.241 37.6588 115.441 36.0451 114.963 34.8003C114.484 33.5556 112.507 33.1511 110.548 33.897C108.589 34.6428 107.389 36.2565 107.868 37.5013C108.346 38.746 110.323 39.1505 112.282 38.4046Z" fill="white"/>
<path d="M94.1531 70.3833C94.7436 68.3693 94.214 66.4441 92.9702 66.0832C91.7264 65.7223 90.2394 67.0624 89.649 69.0764C89.0585 71.0904 89.5881 73.0156 90.8319 73.3765C92.0757 73.7374 93.5626 72.3973 94.1531 70.3833Z" fill="white"/>
<path d="M28.7266 29.8367C30.0541 28.9701 29.9804 26.5242 28.5619 24.3735C27.1435 22.2228 24.9174 21.1818 23.5898 22.0483C22.2622 22.9148 22.3359 25.3608 23.7544 27.5115C25.1729 29.6622 27.399 30.7032 28.7266 29.8367Z" fill="white"/>
<path d="M22.6073 6.27091C23.4366 4.3869 23.1653 2.44848 22.0012 1.94135C20.8372 1.43421 19.2212 2.55038 18.3918 4.4344C17.5625 6.31841 17.8338 8.25682 18.9979 8.76396C20.1619 9.2711 21.7779 8.15492 22.6073 6.27091Z" fill="white"/>
<path d="M15.8298 30.2448C17.4443 28.3925 17.7874 26.0579 16.5961 25.0302C15.4048 24.0026 13.1303 24.671 11.5158 26.5233C9.90124 28.3755 9.55813 30.7102 10.7494 31.7378C11.9407 32.7655 14.2152 32.097 15.8298 30.2448Z" fill="white"/>
<path d="M33.1826 13.0026C34.5461 9.90531 33.9626 6.65871 31.8794 5.75114C29.7962 4.84357 27.0022 6.61871 25.6387 9.71603C24.2752 12.8133 24.8587 16.0599 26.9419 16.9675C29.0251 17.8751 31.8192 16.1 33.1826 13.0026Z" fill="white"/>
<path d="M12.8034 17.2565C13.9423 16.7144 14.255 15.0055 13.5018 13.4397C12.7487 11.8738 11.2149 11.0438 10.076 11.5859C8.93716 12.128 8.62446 13.8369 9.37759 15.4028C10.1307 16.9687 11.6645 17.7986 12.8034 17.2565Z" fill="white"/>
<path d="M86.4565 75.2273C88.1711 74.5745 89.2217 73.163 88.803 72.0745C88.3843 70.9859 86.6549 70.6327 84.9402 71.2854C83.2256 71.9381 82.175 73.3497 82.5937 74.4382C83.0124 75.5267 84.7418 75.88 86.4565 75.2273Z" fill="white"/>
<path d="M77.0213 24.6623C78.2261 23.0555 78.3484 21.1188 77.2944 20.3367C76.2404 19.5546 74.4093 20.2232 73.2045 21.83C71.9997 23.4369 71.8774 25.3735 72.9314 26.1556C73.9853 26.9378 75.8165 26.2692 77.0213 24.6623Z" fill="white"/>
<path d="M50.4661 87.6813C51.7043 87.0979 51.9334 84.9976 50.9777 82.99C50.0221 80.9825 48.2436 79.8279 47.0054 80.4112C45.7672 80.9945 45.5381 83.0949 46.4938 85.1024C47.4494 87.11 49.2279 88.2646 50.4661 87.6813Z" fill="white"/>
<path d="M43.8351 23.7543C45.0285 23.1921 45.2499 21.1692 44.3296 19.236C43.4094 17.3028 41.696 16.1913 40.5026 16.7535C39.3092 17.3157 39.0878 19.3387 40.008 21.2719C40.9283 23.2051 42.6417 24.3165 43.8351 23.7543Z" fill="white"/>
<path d="M47.0341 29.9832C47.618 28.243 45.9187 26.1107 43.2386 25.2207C40.5585 24.3306 37.9124 25.0198 37.3284 26.7601C36.7445 28.5003 38.4438 30.6325 41.1239 31.5226C43.8041 32.4126 46.4501 31.7234 47.0341 29.9832Z" fill="white"/>
<path d="M64.4245 92.8227C66.7365 91.7335 67.4946 88.5058 66.1178 85.6134C64.741 82.721 61.7506 81.2592 59.4386 82.3484C57.1266 83.4376 56.3685 86.6653 57.7453 89.5577C59.1221 92.4501 62.1125 93.9119 64.4245 92.8227Z" fill="white"/>
<path d="M33.8052 76.1193C33.9713 74.9019 32.4916 73.697 30.5003 73.4281C28.509 73.1592 26.7601 73.9281 26.594 75.1455C26.4279 76.363 27.9075 77.5678 29.8988 77.8367C31.8901 78.1056 33.639 77.3367 33.8052 76.1193Z" fill="white"/>
<path d="M24.9043 70.031C26.1051 69.4652 26.499 67.7891 25.7841 66.2871C25.0691 64.7851 23.516 64.0262 22.3152 64.5919C21.1143 65.1576 20.7205 66.8338 21.4354 68.3357C22.1504 69.8377 23.7034 70.5967 24.9043 70.031Z" fill="white"/>
<path d="M133.109 46.1118C134.409 45.4927 134.769 43.547 133.912 41.7659C133.056 39.9848 131.307 39.0428 130.006 39.6618C128.706 40.2809 128.346 42.2266 129.203 44.0077C130.059 45.7888 131.808 46.7308 133.109 46.1118Z" fill="white"/>
<path d="M137.192 50.6652C137.469 48.7017 135.483 46.8016 132.755 46.4213C130.028 46.0409 127.593 47.3244 127.316 49.2879C127.04 51.2514 129.026 53.1515 131.753 53.5318C134.481 53.9121 136.916 52.6287 137.192 50.6652Z" fill="white"/>
<path d="M12.4134 48.6062C13.7227 45.632 13.0277 42.4558 10.8612 41.5119C8.69467 40.568 5.87697 42.2139 4.56768 45.1882C3.2584 48.1624 3.95334 51.3386 6.11987 52.2825C8.2864 53.2264 11.1041 51.5805 12.4134 48.6062Z" fill="white"/>
<path d="M5.31666 59.5841C6.89567 58.8325 7.32983 56.4645 6.28638 54.295C5.24293 52.1255 3.11701 50.9761 1.538 51.7277C-0.0410051 52.4793 -0.475164 54.8473 0.568284 57.0168C1.61173 59.1863 3.73765 60.3357 5.31666 59.5841Z" fill="white"/>
</g>
<defs>
<clipPath id="clip0_1_908">
<rect width="235" height="296" fill="white"/>
</clipPath>
</defs>
</svg>
