<svg width="124" height="66" viewBox="0 0 124 66" fill="none" xmlns="http://www.w3.org/2000/svg">
<g clip-path="url(#clip0_1_861)">
<path d="M24.7547 54.9676C25.0709 55.709 26.1591 55.9568 27.1851 55.521C28.2112 55.0852 28.7867 54.1308 28.4705 53.3895C28.1543 52.6481 27.0662 52.4003 26.0401 52.8361C25.014 53.2719 24.4385 54.2262 24.7547 54.9676Z" fill="#2A5EBC"/>
<path d="M46.9808 24.6265C47.137 25.3248 47.8962 25.75 48.6765 25.5761C49.4568 25.4023 49.9627 24.6953 49.8064 23.9969C49.6502 23.2986 48.891 22.8734 48.1107 23.0473C47.3305 23.2211 46.8246 23.9281 46.9808 24.6265Z" fill="#2A5EBC"/>
<path d="M0.88282 57.2163C1.71832 57.4779 2.77858 56.4715 3.25098 54.9686C3.72338 53.4658 3.42902 52.0354 2.59353 51.7739C1.75803 51.5123 0.697773 52.5187 0.225375 54.0216C-0.247023 55.5245 0.0473232 56.9548 0.88282 57.2163Z" fill="#2A5EBC"/>
<path d="M173.055 37.2688C174.068 37.7651 175.136 37.6641 175.442 37.0432C175.747 36.4223 175.175 35.5166 174.162 35.0203C173.15 34.524 172.082 34.625 171.776 35.2459C171.47 35.8668 172.043 36.7724 173.055 37.2688Z" fill="#2A5EBC"/>
<path d="M164.715 50.2458C164.45 51.7504 164.914 53.0891 165.751 53.2359C166.589 53.3828 167.482 52.2821 167.747 50.7776C168.012 49.273 167.548 47.9343 166.711 47.7874C165.873 47.6406 164.98 48.7413 164.715 50.2458Z" fill="#2A5EBC"/>
<path d="M163.444 57.1221C164.576 58.1922 166.05 58.4736 166.736 57.7507C167.422 57.0278 167.061 55.5743 165.928 54.5042C164.796 53.4342 163.322 53.1527 162.636 53.8757C161.95 54.5986 162.312 56.0521 163.444 57.1221Z" fill="#2A5EBC"/>
<path d="M176.674 26.5851C177.551 27.0151 178.54 26.7993 178.883 26.1032C179.225 25.407 178.792 24.494 177.915 24.064C177.038 23.634 176.049 23.8498 175.707 24.546C175.364 25.2422 175.797 26.1551 176.674 26.5851Z" fill="#2A5EBC"/>
<path d="M173.074 40.3795C173.362 41.0568 174.356 41.2833 175.293 40.8853C176.23 40.4873 176.756 39.6156 176.467 38.9383C176.178 38.261 175.184 38.0345 174.247 38.4325C173.31 38.8305 172.785 39.7022 173.074 40.3795Z" fill="#2A5EBC"/>
<path d="M139.079 33.6072C139.639 34.0441 140.648 33.6896 141.333 32.8154C142.018 31.9413 142.119 30.8785 141.56 30.4416C141 30.0048 139.991 30.3593 139.306 31.2334C138.621 32.1076 138.519 33.1703 139.079 33.6072Z" fill="#2A5EBC"/>
<path d="M19.0879 42.9806C20.4248 43.8675 21.9514 43.9218 22.4976 43.1018C23.0439 42.2818 22.4029 40.8981 21.0661 40.0112C19.7292 39.1243 18.2026 39.0701 17.6564 39.89C17.1101 40.71 17.7511 42.0937 19.0879 42.9806Z" fill="#2A5EBC"/>
<path d="M83.0049 107.385C83.8358 107.645 84.8897 106.646 85.3588 105.154C85.8279 103.662 85.5345 102.241 84.7036 101.981C83.8726 101.721 82.8187 102.72 82.3496 104.212C81.8806 105.704 82.1739 107.125 83.0049 107.385Z" fill="#2A5EBC"/>
<path d="M22.7065 33.9959C23.5559 34.5594 24.5762 34.5182 24.9855 33.9039C25.3947 33.2896 25.0379 32.3348 24.1885 31.7712C23.339 31.2077 22.3187 31.2489 21.9094 31.8633C21.5002 32.4776 21.857 33.4324 22.7065 33.9959Z" fill="#2A5EBC"/>
<path d="M22.5971 53.5984C23.4016 54.1321 24.3991 54.0464 24.825 53.4071C25.2509 52.7677 24.944 51.8167 24.1395 51.283C23.335 50.7493 22.3376 50.835 21.9116 51.4743C21.4857 52.1137 21.7926 53.0647 22.5971 53.5984Z" fill="#2A5EBC"/>
<path d="M78.0534 23.7296C78.4064 24.3213 79.4759 24.3356 80.4424 23.7615C81.4088 23.1874 81.9061 22.2423 81.5531 21.6506C81.2001 21.0589 80.1306 21.0446 79.1642 21.6187C78.1977 22.1928 77.7005 23.1379 78.0534 23.7296Z" fill="#2A5EBC"/>
<path d="M53.7448 28.6648C54.8568 29.21 56.0303 29.0991 56.3661 28.4171C56.7019 27.7351 56.0727 26.7403 54.9607 26.1951C53.8488 25.65 52.6752 25.7609 52.3394 26.4428C52.0037 27.1248 52.6329 28.1196 53.7448 28.6648Z" fill="#2A5EBC"/>
<path d="M47.3457 61.3257C47.9067 62.1242 49.4818 61.9876 50.8638 61.0207C52.2458 60.0538 52.9114 58.6226 52.3504 57.8242C51.7894 57.0257 50.2144 57.1623 48.8324 58.1292C47.4504 59.0962 46.7848 60.5273 47.3457 61.3257Z" fill="#2A5EBC"/>
<path d="M89.7222 72.603C90.5682 73.8071 92.9439 73.6009 95.0286 72.1423C97.1133 70.6837 98.1174 68.5252 97.2714 67.321C96.4255 66.1169 94.0497 66.3231 91.965 67.7817C89.8803 69.2403 88.8762 71.3988 89.7222 72.603Z" fill="#2A5EBC"/>
<path d="M65.007 56.9985C65.5338 57.1141 66.119 56.4895 66.3141 55.6036C66.5092 54.7177 66.2404 53.9059 65.7136 53.7903C65.1868 53.6748 64.6016 54.2993 64.4065 55.1853C64.2114 56.0712 64.4803 56.883 65.007 56.9985Z" fill="#2A5EBC"/>
<path d="M48.12 35.7651C49.0297 36.2112 50.0298 36.0395 50.3537 35.3817C50.6775 34.7238 50.2026 33.829 49.2928 33.3829C48.383 32.9369 47.383 33.1085 47.0591 33.7664C46.7352 34.4242 47.2102 35.3191 48.12 35.7651Z" fill="#2A5EBC"/>
<path d="M105.288 73.3013C106.153 73.725 107.102 73.5628 107.409 72.9391C107.716 72.3154 107.265 71.4663 106.401 71.0425C105.536 70.6188 104.587 70.781 104.28 71.4047C103.973 72.0284 104.424 72.8776 105.288 73.3013Z" fill="#2A5EBC"/>
<path d="M64.4355 53.2257C65.6593 53.947 67.5682 52.9826 68.6992 51.0716C69.8301 49.1606 69.7548 47.0267 68.531 46.3054C67.3072 45.5841 65.3982 46.5486 64.2673 48.4596C63.1364 50.3706 63.2117 52.5045 64.4355 53.2257Z" fill="#2A5EBC"/>
<path d="M63.8086 35.5231C64.7772 36.4386 66.0382 36.6795 66.625 36.0611C67.2119 35.4428 66.9025 34.1994 65.9339 33.2839C64.9653 32.3684 63.7044 32.1275 63.1175 32.7458C62.5306 33.3642 62.8401 34.6076 63.8086 35.5231Z" fill="#2A5EBC"/>
<path d="M54.6233 35.0786C54.955 35.8564 56.0984 36.1156 57.177 35.6574C58.2556 35.1993 58.8611 34.1974 58.5294 33.4196C58.1977 32.6418 57.0544 32.3826 55.9757 32.8407C54.8971 33.2989 54.2916 34.3008 54.6233 35.0786Z" fill="#2A5EBC"/>
<path d="M41.4913 34.5945C42.0479 35.5276 43.7334 35.5508 45.256 34.6463C46.7785 33.7419 47.5616 32.2522 47.0049 31.3191C46.4483 30.386 44.7628 30.3627 43.2402 31.2672C41.7177 32.1717 40.9347 33.6613 41.4913 34.5945Z" fill="#2A5EBC"/>
<path d="M17.1904 62.6488C17.8579 63.5989 19.7321 63.4364 21.3764 62.286C23.0208 61.1355 23.8127 59.4326 23.1452 58.4825C22.4777 57.5324 20.6035 57.6948 18.9592 58.8453C17.3148 59.9958 16.5229 61.6987 17.1904 62.6488Z" fill="#2A5EBC"/>
<path d="M42.4307 26.5981C42.791 27.4429 44.0273 27.7268 45.1921 27.2321C46.3569 26.7374 47.009 25.6515 46.6487 24.8067C46.2884 23.9619 45.0521 23.678 43.8873 24.1727C42.7226 24.6674 42.0704 25.7533 42.4307 26.5981Z" fill="#2A5EBC"/>
<path d="M26.0145 47.2377C25.7422 48.7843 26.2193 50.1605 27.0802 50.3114C27.941 50.4624 28.8597 49.3309 29.132 47.7843C29.4043 46.2376 28.9272 44.8615 28.0663 44.7105C27.2055 44.5596 26.2868 45.691 26.0145 47.2377Z" fill="#2A5EBC"/>
<path d="M28.4158 39.6207C29.2572 40.0332 30.182 39.8747 30.4814 39.2666C30.7808 38.6585 30.3414 37.8311 29.5 37.4186C28.6585 37.006 27.7337 37.1645 27.4343 37.7726C27.1349 38.3807 27.5744 39.2081 28.4158 39.6207Z" fill="#2A5EBC"/>
<path d="M41.728 38.2347C42.8199 39.2686 44.2419 39.5422 44.9039 38.8459C45.566 38.1495 45.2175 36.7469 44.1256 35.713C43.0337 34.6791 41.6118 34.4054 40.9497 35.1018C40.2876 35.7981 40.6361 37.2007 41.728 38.2347Z" fill="#2A5EBC"/>
<path d="M32.1372 40.5147C32.4554 41.2712 33.5635 41.5283 34.6122 41.089C35.6609 40.6497 36.2532 39.6804 35.935 38.9239C35.6168 38.1674 34.5087 37.9102 33.46 38.3495C32.4112 38.7888 31.819 39.7582 32.1372 40.5147Z" fill="#2A5EBC"/>
<path d="M29.4219 48.9424C29.459 50.1354 30.1214 51.083 30.9015 51.0589C31.6816 51.0347 32.2839 50.0481 32.2469 48.855C32.2098 47.662 31.5474 46.7144 30.7673 46.7386C29.9873 46.7627 29.3849 47.7494 29.4219 48.9424Z" fill="#2A5EBC"/>
<path d="M61.1892 59.5442C61.5359 60.2065 62.747 60.2585 63.8943 59.6603C65.0416 59.0622 65.6906 58.0404 65.3439 57.3782C64.9972 56.7159 63.786 56.6639 62.6388 57.2621C61.4915 57.8602 60.8425 58.882 61.1892 59.5442Z" fill="#2A5EBC"/>
<path d="M50.2703 67.4641C50.7852 67.8659 51.7142 67.5386 52.3455 66.733C52.9767 65.9274 53.0711 64.9487 52.5563 64.5469C52.0415 64.1452 51.1124 64.4725 50.4811 65.2781C49.8499 66.0837 49.7555 67.0624 50.2703 67.4641Z" fill="#2A5EBC"/>
<path d="M42.169 69.4524C42.0587 70.5583 42.5554 71.5129 43.2783 71.5847C44.0013 71.6566 44.6768 70.8184 44.7871 69.7125C44.8974 68.6067 44.4007 67.6521 43.6778 67.5803C42.9548 67.5084 42.2793 68.3466 42.169 69.4524Z" fill="#2A5EBC"/>
<path d="M52.8556 22.1308C53.1298 22.7661 54.1918 22.9202 55.2277 22.4749C56.2635 22.0296 56.8809 21.1536 56.6066 20.5183C56.3324 19.883 55.2704 19.7289 54.2345 20.1742C53.1987 20.6194 52.5813 21.4954 52.8556 22.1308Z" fill="#2A5EBC"/>
<path d="M61.65 20.0532C63.65 21.3801 65.9334 21.4618 66.7502 20.2358C67.5669 19.0098 66.6076 16.9403 64.6076 15.6135C62.6076 14.2866 60.3241 14.2049 59.5074 15.4309C58.6907 16.6569 59.65 18.7264 61.65 20.0532Z" fill="#2A5EBC"/>
<path d="M57.5228 22.0976C58.2969 22.6111 59.2562 22.5295 59.6655 21.9151C60.0747 21.3008 59.7789 20.3865 59.0048 19.8729C58.2307 19.3594 57.2714 19.441 56.8621 20.0554C56.4529 20.6697 56.7487 21.584 57.5228 22.0976Z" fill="#2A5EBC"/>
<path d="M114.296 76.9612C115.123 77.5098 116.148 77.4223 116.585 76.7658C117.022 76.1093 116.707 75.1324 115.88 74.5838C115.053 74.0351 114.028 74.1226 113.59 74.7791C113.153 75.4356 113.469 76.4126 114.296 76.9612Z" fill="#2A5EBC"/>
<path d="M76.1349 66.9901C76.6558 67.8634 78.2328 67.8853 79.6572 67.0392C81.0816 66.193 81.8141 64.7991 81.2931 63.9258C80.7722 63.0526 79.1952 63.0306 77.7708 63.8768C76.3464 64.7229 75.614 66.1168 76.1349 66.9901Z" fill="#2A5EBC"/>
<path d="M97.3992 77.8399C98.383 78.3222 99.421 78.2249 99.7175 77.6225C100.014 77.0201 99.457 76.1407 98.4732 75.6583C97.4894 75.176 96.4515 75.2733 96.1549 75.8757C95.8583 76.4782 96.4154 77.3575 97.3992 77.8399Z" fill="#2A5EBC"/>
<path d="M92.2564 103.523C92.6944 104.146 93.9255 104.039 95.0062 103.282C96.0868 102.526 96.6078 101.408 96.1698 100.785C95.7318 100.161 94.5006 100.269 93.42 101.025C92.3393 101.781 91.8184 102.899 92.2564 103.523Z" fill="#2A5EBC"/>
<path d="M111.833 92.2092C112.402 92.3339 113.033 91.6604 113.244 90.7049C113.454 89.7494 113.164 88.8737 112.595 88.749C112.026 88.6243 111.395 89.2978 111.184 90.2533C110.974 91.2088 111.264 92.0845 111.833 92.2092Z" fill="#2A5EBC"/>
<path d="M90.1871 92.4342C89.7427 94.9585 90.521 97.2044 91.9256 97.4507C93.3301 97.6969 94.829 95.8503 95.2735 93.3261C95.7179 90.8018 94.9396 88.5559 93.535 88.3096C92.1304 88.0633 90.6315 89.91 90.1871 92.4342Z" fill="#2A5EBC"/>
<path d="M94.3804 81.5593C95.256 81.9886 96.2181 81.8241 96.5294 81.1918C96.8407 80.5596 96.3832 79.699 95.5076 79.2697C94.632 78.8404 93.6698 79.0049 93.3586 79.6372C93.0473 80.2694 93.5048 81.13 94.3804 81.5593Z" fill="#2A5EBC"/>
<path d="M108.523 99.4523C109.131 99.8105 110.079 99.3308 110.642 98.3807C111.204 97.4307 111.167 96.3701 110.559 96.0119C109.951 95.6537 109.003 96.1334 108.44 97.0835C107.878 98.0335 107.915 99.0941 108.523 99.4523Z" fill="#2A5EBC"/>
<path d="M63.2425 69.0356C65.0592 69.9263 67.1075 69.4793 67.8175 68.0372C68.5274 66.5951 67.6303 64.704 65.8136 63.8133C63.9969 62.9226 61.9486 63.3696 61.2386 64.8117C60.5286 66.2538 61.4258 68.1449 63.2425 69.0356Z" fill="#2A5EBC"/>
<path d="M100.153 97.213C100.189 98.3791 100.837 99.3053 101.599 99.2818C102.362 99.2582 102.951 98.2937 102.915 97.1276C102.878 95.9615 102.231 95.0353 101.468 95.0589C100.705 95.0824 100.117 96.0469 100.153 97.213Z" fill="#2A5EBC"/>
<path d="M78.261 106.631C78.6335 107.256 79.7608 107.271 80.779 106.667C81.7972 106.062 82.3207 105.065 81.9483 104.441C81.5758 103.817 80.4485 103.801 79.4303 104.406C78.4121 105.01 77.8886 106.007 78.261 106.631Z" fill="#2A5EBC"/>
<path d="M75.0566 82.2491C76.0731 82.7475 77.1461 82.6459 77.4532 82.0222C77.7603 81.3984 77.1852 80.4887 76.1686 79.9903C75.1521 79.4919 74.079 79.5935 73.772 80.2173C73.4649 80.841 74.04 81.7507 75.0566 82.2491Z" fill="#2A5EBC"/>
<path d="M151.399 81.9986C152.401 82.49 153.459 82.3908 153.761 81.777C154.063 81.1632 153.495 80.2673 152.493 79.7759C151.491 79.2844 150.433 79.3836 150.131 79.9974C149.829 80.6112 150.396 81.5071 151.399 81.9986Z" fill="#2A5EBC"/>
<path d="M70.2525 105.89C70.8581 106.752 72.5589 106.604 74.0513 105.56C75.5437 104.516 76.2626 102.971 75.657 102.109C75.0514 101.247 73.3506 101.394 71.8583 102.438C70.3659 103.483 69.647 105.028 70.2525 105.89Z" fill="#2A5EBC"/>
<path d="M49.1949 72.4805C51.4865 73.1978 53.6678 72.7495 54.0671 71.4792C54.4664 70.2089 52.9324 68.5977 50.6408 67.8803C48.3493 67.163 46.1679 67.6113 45.7686 68.8816C45.3694 70.1519 46.9034 71.7632 49.1949 72.4805Z" fill="#2A5EBC"/>
<path d="M33.6373 73.0121C34.4716 73.4212 35.3889 73.2633 35.6862 72.6594C35.9835 72.0556 35.5481 71.2345 34.7138 70.8254C33.8795 70.4164 32.9622 70.5743 32.6649 71.1781C32.3676 71.782 32.803 72.6031 33.6373 73.0121Z" fill="#2A5EBC"/>
<path d="M89.6752 106.309C90.2666 106.658 91.1894 106.191 91.7364 105.267C92.2833 104.343 92.2472 103.311 91.6558 102.962C91.0643 102.614 90.1415 103.08 89.5946 104.005C89.0477 104.929 89.0838 105.96 89.6752 106.309Z" fill="#2A5EBC"/>
<path d="M50.3611 86.9249C50.8201 87.5781 52.1082 87.4668 53.2382 86.6762C54.3682 85.8856 54.9122 84.715 54.4532 84.0618C53.9943 83.4085 52.7062 83.5199 51.5762 84.3105C50.4462 85.1011 49.9022 86.2716 50.3611 86.9249Z" fill="#2A5EBC"/>
<path d="M47.8496 89.6918C48.456 90.0492 49.4021 89.571 49.9627 88.6237C50.5234 87.6764 50.4862 86.6187 49.8798 86.2612C49.2733 85.9038 48.3272 86.382 47.7666 87.3294C47.206 88.2767 47.2431 89.3344 47.8496 89.6918Z" fill="#2A5EBC"/>
<path d="M9.99728 83.5647C10.4335 84.1856 11.66 84.0782 12.7367 83.3248C13.8135 82.5715 14.3328 81.4574 13.8966 80.8366C13.4604 80.2157 12.2339 80.3231 11.1571 81.0765C10.0804 81.8298 9.56108 82.9439 9.99728 83.5647Z" fill="#2A5EBC"/>
<path d="M7.41078 86.3685C8.0063 86.7195 8.93504 86.2505 9.48518 85.3209C10.0353 84.3913 9.99854 83.3531 9.40302 83.0022C8.8075 82.6512 7.87875 83.1203 7.32861 84.0499C6.77846 84.9795 6.81526 86.0176 7.41078 86.3685Z" fill="#2A5EBC"/>
<path d="M81.9224 71.7141C82.3632 72.3415 83.6018 72.2334 84.6889 71.4728C85.7761 70.7122 86.3001 69.587 85.8593 68.9597C85.4186 68.3323 84.18 68.4404 83.0928 69.201C82.0057 69.9616 81.4816 71.0868 81.9224 71.7141Z" fill="#2A5EBC"/>
<path d="M79.3577 74.4949C79.9505 74.8443 80.8751 74.3772 81.4228 73.4517C81.9706 72.5262 81.934 71.4927 81.3412 71.1433C80.7484 70.794 79.8239 71.261 79.2761 72.1865C78.7284 73.112 78.765 74.1455 79.3577 74.4949Z" fill="#2A5EBC"/>
<path d="M148.553 44.7389C148.977 45.3416 150.166 45.2387 151.209 44.5089C152.252 43.7792 152.754 42.699 152.33 42.0963C151.907 41.4936 150.718 41.5966 149.675 42.3263C148.632 43.056 148.13 44.1362 148.553 44.7389Z" fill="#2A5EBC"/>
<path d="M145.881 47.6112C146.486 47.9678 147.429 47.4912 147.989 46.5466C148.548 45.602 148.51 44.5471 147.905 44.1905C147.3 43.8339 146.356 44.3106 145.797 45.2552C145.238 46.1998 145.276 47.2546 145.881 47.6112Z" fill="#2A5EBC"/>
<path d="M86.2497 88.4955C87.2252 89.4175 88.4944 89.6609 89.0845 89.0391C89.6747 88.4173 89.3623 87.1658 88.3868 86.2438C87.4113 85.3218 86.1421 85.0784 85.552 85.7002C84.9618 86.3219 85.2742 87.5734 86.2497 88.4955Z" fill="#2A5EBC"/>
<path d="M88.5343 78.5662C90.0719 79.3201 91.8055 78.9419 92.4064 77.7214C93.0073 76.5009 92.2479 74.9004 90.7102 74.1465C89.1726 73.3926 87.439 73.7708 86.8381 74.9913C86.2373 76.2118 86.9967 77.8123 88.5343 78.5662Z" fill="#2A5EBC"/>
<path d="M77.6015 90.4028C77.9258 91.1631 79.0418 91.4172 80.0942 90.9702C81.1465 90.5232 81.7368 89.5445 81.4125 88.7842C81.0882 88.0238 79.9722 87.7698 78.9199 88.2168C77.8675 88.6637 77.2773 89.6424 77.6015 90.4028Z" fill="#2A5EBC"/>
<path d="M60.3837 113.986C60.4337 115.597 61.3277 116.877 62.3805 116.844C63.4333 116.811 64.2462 115.479 64.1962 113.869C64.1462 112.258 63.2522 110.978 62.1994 111.011C61.1466 111.044 60.3337 112.376 60.3837 113.986Z" fill="#2A5EBC"/>
<path d="M167.483 37.155C167.823 37.8033 169.007 37.8545 170.129 37.2696C171.251 36.6846 171.886 35.6849 171.546 35.0367C171.207 34.3885 170.022 34.3372 168.9 34.9222C167.778 35.5071 167.144 36.5068 167.483 37.155Z" fill="#2A5EBC"/>
<path d="M79.4271 121.254C79.5624 121.988 80.0376 122.515 80.4885 122.432C80.9393 122.349 81.1951 121.687 81.0598 120.954C80.9245 120.221 80.4493 119.694 79.9984 119.777C79.5476 119.859 79.2918 120.521 79.4271 121.254Z" fill="#2A5EBC"/>
<path d="M69.6097 120.043C70.1379 120.233 70.8267 119.667 71.1482 118.778C71.4697 117.889 71.3022 117.014 70.774 116.824C70.2458 116.634 69.557 117.2 69.2355 118.089C68.914 118.978 69.0815 119.853 69.6097 120.043Z" fill="#2A5EBC"/>
<path d="M86.2611 121.638C87.0164 121.875 87.9743 120.967 88.4006 119.611C88.827 118.254 88.5603 116.963 87.8051 116.727C87.0498 116.49 86.0919 117.398 85.6655 118.754C85.2392 120.111 85.5059 121.402 86.2611 121.638Z" fill="#2A5EBC"/>
<path d="M85.0056 129.71C85.8273 130.255 86.8138 130.216 87.209 129.623C87.6042 129.03 87.2584 128.107 86.4367 127.562C85.6151 127.017 84.6286 127.056 84.2334 127.649C83.8382 128.242 84.184 129.165 85.0056 129.71Z" fill="#2A5EBC"/>
<path d="M71.6743 116.127C72.2079 116.544 73.1704 116.205 73.8241 115.371C74.4778 114.536 74.5752 113.523 74.0417 113.106C73.5081 112.69 72.5456 113.029 71.8919 113.863C71.2381 114.697 71.1407 115.711 71.6743 116.127Z" fill="#2A5EBC"/>
<path d="M126.887 82.3509C127.749 82.9223 128.783 82.8811 129.197 82.2589C129.612 81.6366 129.25 80.669 128.388 80.0976C127.527 79.5262 126.493 79.5674 126.078 80.1897C125.664 80.8119 126.026 81.7795 126.887 82.3509Z" fill="#2A5EBC"/>
<path d="M122.131 85.5961C122.446 86.7228 123.968 87.2834 125.529 86.8482C127.091 86.413 128.101 85.1468 127.785 84.0201C127.47 82.8933 125.949 82.3327 124.387 82.7679C122.826 83.2031 121.816 84.4693 122.131 85.5961Z" fill="#2A5EBC"/>
<path d="M157.253 25.1492C157.607 25.9677 158.975 26.1662 160.309 25.5925C161.644 25.0189 162.439 23.8903 162.086 23.0718C161.733 22.2532 160.364 22.0547 159.03 22.6284C157.695 23.2021 156.9 24.3307 157.253 25.1492Z" fill="#2A5EBC"/>
<path d="M75.5081 97.197C76.3989 97.6349 77.3784 97.4685 77.696 96.8252C78.0135 96.1819 77.5488 95.3054 76.658 94.8675C75.7672 94.4296 74.7876 94.5961 74.4701 95.2393C74.1525 95.8826 74.6173 96.7591 75.5081 97.197Z" fill="#2A5EBC"/>
<path d="M72.0814 94.3806C72.3512 95.0057 73.3967 95.1571 74.4165 94.7187C75.4363 94.2803 76.0443 93.4182 75.7745 92.793C75.5046 92.1678 74.4591 92.0164 73.4393 92.4548C72.4195 92.8932 71.8115 93.7554 72.0814 94.3806Z" fill="#2A5EBC"/>
<path d="M36.5698 29.5348C37.4582 29.9704 38.4347 29.8029 38.7509 29.1607C39.067 28.5185 38.6031 27.6448 37.7147 27.2092C36.8263 26.7736 35.8498 26.9411 35.5336 27.5833C35.2175 28.2255 35.6814 29.0992 36.5698 29.5348Z" fill="#2A5EBC"/>
<path d="M32.9937 26.7825C33.2661 27.4135 34.3219 27.5661 35.3519 27.1233C36.3819 26.6805 36.9961 25.8101 36.7237 25.1791C36.4513 24.5481 35.3956 24.3956 34.3656 24.8383C33.3356 25.2811 32.7214 26.1516 32.9937 26.7825Z" fill="#2A5EBC"/>
<path d="M101.832 131.343C103.081 132.172 104.508 132.223 105.018 131.457C105.529 130.691 104.929 129.398 103.679 128.569C102.43 127.74 101.003 127.689 100.493 128.455C99.9826 129.221 100.582 130.514 101.832 131.343Z" fill="#2A5EBC"/>
<path d="M107.594 111.661C107.993 112.423 109.385 112.483 110.704 111.795C112.023 111.108 112.768 109.933 112.37 109.171C111.971 108.409 110.578 108.349 109.259 109.036C107.941 109.724 107.195 110.899 107.594 111.661Z" fill="#2A5EBC"/>
<path d="M92.248 120.95C93.3701 121.354 94.8333 120.151 95.5161 118.263C96.1989 116.375 95.8429 114.517 94.7208 114.113C93.5988 113.709 92.1356 114.912 91.4528 116.8C90.77 118.688 91.126 120.546 92.248 120.95Z" fill="#2A5EBC"/>
<path d="M98.1507 108.941C98.8334 109.723 100.498 109.39 101.868 108.198C103.239 107.006 103.796 105.406 103.113 104.625C102.431 103.843 100.766 104.176 99.3959 105.368C98.0255 106.56 97.468 108.16 98.1507 108.941Z" fill="#2A5EBC"/>
<path d="M111.629 117.453C112.498 117.725 113.6 116.68 114.09 115.12C114.581 113.56 114.274 112.074 113.405 111.802C112.536 111.53 111.434 112.575 110.944 114.135C110.454 115.695 110.76 117.181 111.629 117.453Z" fill="#2A5EBC"/>
<path d="M135.055 9.17519C135.428 9.88794 136.731 9.94401 137.966 9.30041C139.2 8.65681 139.898 7.55727 139.525 6.84451C139.152 6.13175 137.849 6.07569 136.614 6.71929C135.38 7.36289 134.682 8.46243 135.055 9.17519Z" fill="#2A5EBC"/>
<path d="M138.877 15.2718C139.812 15.5646 140.999 14.4379 141.528 12.7553C142.057 11.0726 141.727 9.47124 140.792 9.17844C139.857 8.88564 138.67 10.0123 138.141 11.695C137.612 13.3776 137.941 14.979 138.877 15.2718Z" fill="#2A5EBC"/>
<path d="M103.447 127.113C105.015 128.153 106.898 128.077 107.653 126.944C108.408 125.81 107.75 124.048 106.181 123.007C104.613 121.967 102.73 122.043 101.975 123.177C101.22 124.31 101.878 126.073 103.447 127.113Z" fill="#2A5EBC"/>
<path d="M95.0176 111.386C95.5211 111.779 96.4292 111.46 97.0458 110.673C97.6624 109.886 97.754 108.929 97.2505 108.536C96.7469 108.143 95.8388 108.463 95.2222 109.25C94.6056 110.036 94.514 110.993 95.0176 111.386Z" fill="#2A5EBC"/>
<path d="M67.4569 108.762C67.9618 109.156 68.8717 108.837 69.4892 108.049C70.1068 107.261 70.1982 106.302 69.6934 105.908C69.1885 105.514 68.2786 105.834 67.6611 106.622C67.0435 107.41 66.9521 108.368 67.4569 108.762Z" fill="#2A5EBC"/>
<path d="M91.5093 126.881C92.3708 127.938 93.6189 128.35 94.2972 127.8C94.9755 127.249 94.8269 125.946 93.9655 124.888C93.104 123.831 91.8558 123.419 91.1776 123.969C90.4993 124.52 90.6478 125.823 91.5093 126.881Z" fill="#2A5EBC"/>
<path d="M97.9231 121.991C98.191 122.948 99.4833 123.425 100.809 123.055C102.136 122.686 102.993 121.61 102.725 120.652C102.458 119.695 101.165 119.218 99.8391 119.588C98.5129 119.957 97.6551 121.033 97.9231 121.991Z" fill="#2A5EBC"/>
<path d="M33.9439 37.349C35.5199 38.3945 37.4126 38.3187 38.1714 37.1797C38.9301 36.0407 38.2676 34.2698 36.6916 33.2243C35.1157 32.1788 33.223 32.2545 32.4642 33.3935C31.7055 34.5325 32.368 36.3034 33.9439 37.349Z" fill="#2A5EBC"/>
<path d="M28.2689 32.2624C28.5548 33.2839 29.9335 33.7924 31.3483 33.3981C32.763 33.0037 33.6782 31.856 33.3923 30.8345C33.1064 29.8129 31.7277 29.3045 30.3129 29.6988C28.8982 30.0931 27.983 31.2409 28.2689 32.2624Z" fill="#2A5EBC"/>
<path d="M69.0901 89.8685C70.6119 90.8781 72.4393 90.8053 73.1717 89.7058C73.9041 88.6064 73.2642 86.8967 71.7424 85.8871C70.2206 84.8775 68.3931 84.9503 67.6607 86.0498C66.9283 87.1492 67.5683 88.859 69.0901 89.8685Z" fill="#2A5EBC"/>
<path d="M63.4109 84.8418C63.6916 85.845 65.0451 86.3445 66.4339 85.9574C67.8227 85.5704 68.7209 84.4433 68.4401 83.4401C68.1593 82.4368 66.8059 81.9373 65.4171 82.3244C64.0283 82.7115 63.1301 83.8386 63.4109 84.8418Z" fill="#2A5EBC"/>
<path d="M113.891 86.667C115.435 87.6915 117.29 87.6168 118.034 86.5002C118.778 85.3836 118.129 83.6479 116.585 82.6235C115.04 81.599 113.185 81.6736 112.442 82.7902C111.698 83.9068 112.347 85.6425 113.891 86.667Z" fill="#2A5EBC"/>
<path d="M108.407 81.563C108.669 82.4961 109.928 82.9605 111.221 82.6003C112.513 82.24 113.349 81.1915 113.088 80.2584C112.827 79.3253 111.567 78.861 110.275 79.2212C108.982 79.5815 108.146 80.6299 108.407 81.563Z" fill="#2A5EBC"/>
<path d="M101.587 91.6728C103.163 92.7184 105.056 92.6426 105.815 91.5036C106.574 90.3646 105.911 88.5937 104.335 87.5481C102.759 86.5026 100.867 86.5784 100.108 87.7174C99.349 88.8564 100.011 90.6273 101.587 91.6728Z" fill="#2A5EBC"/>
<path d="M96.1108 86.5313C96.3741 87.472 97.644 87.9402 98.9472 87.577C100.25 87.2137 101.093 86.1567 100.83 85.2159C100.567 84.2752 99.297 83.8071 97.9938 84.1703C96.6906 84.5335 95.8475 85.5906 96.1108 86.5313Z" fill="#2A5EBC"/>
<path d="M115.486 50.6423C116.606 51.3854 117.951 51.3317 118.491 50.5223C119.03 49.7129 118.559 48.4542 117.439 47.7111C116.318 46.9679 114.973 47.0216 114.434 47.831C113.895 48.6405 114.366 49.8991 115.486 50.6423Z" fill="#2A5EBC"/>
<path d="M132.696 62.544C133.817 63.2871 135.162 63.2334 135.701 62.424C136.24 61.6145 135.769 60.3559 134.649 59.6127C133.529 58.8696 132.184 58.9233 131.644 59.7327C131.105 60.5422 131.576 61.8008 132.696 62.544Z" fill="#2A5EBC"/>
<path d="M102.106 112.011C101.996 113.115 102.492 114.068 103.213 114.14C103.934 114.211 104.608 113.374 104.719 112.27C104.829 111.166 104.333 110.213 103.612 110.141C102.89 110.069 102.216 110.906 102.106 112.011Z" fill="#2A5EBC"/>
<path d="M125.279 103.693C126.099 104.096 127 103.943 127.293 103.351C127.585 102.759 127.158 101.952 126.338 101.549C125.518 101.146 124.617 101.3 124.325 101.892C124.032 102.484 124.46 103.291 125.279 103.693Z" fill="#2A5EBC"/>
<path d="M66.549 82.0091C67.1691 82.3745 68.1368 81.8852 68.7103 80.9161C69.2838 79.9469 69.2461 78.865 68.626 78.4996C68.0059 78.1341 67.0382 78.6235 66.4647 79.5926C65.8912 80.5617 65.9289 81.6436 66.549 82.0091Z" fill="#2A5EBC"/>
<path d="M70.5903 74.7003C70.9201 75.3303 72.0731 75.3793 73.1655 74.8097C74.258 74.2402 74.8762 73.2678 74.5464 72.6378C74.2166 72.0078 73.0636 71.9588 71.9712 72.5284C70.8787 73.098 70.2605 74.0704 70.5903 74.7003Z" fill="#2A5EBC"/>
<path d="M65.2285 74.1134C65.8083 74.5659 66.8543 74.1978 67.5647 73.2912C68.2751 72.3846 68.3809 71.2829 67.8011 70.8304C67.2213 70.378 66.1754 70.7461 65.465 71.6527C64.7546 72.5592 64.6487 73.661 65.2285 74.1134Z" fill="#2A5EBC"/>
<path d="M30.8019 88.2772C32.6713 89.1938 34.7793 88.7331 35.5103 87.2484C36.2412 85.7637 35.3184 83.8171 33.449 82.9006C31.5796 81.984 29.4716 82.4446 28.7407 83.9294C28.0097 85.4141 28.9325 87.3607 30.8019 88.2772Z" fill="#2A5EBC"/>
<path d="M33.2077 93.1504C33.7463 93.5707 34.7176 93.2291 35.3772 92.3874C36.0368 91.5456 36.1349 90.5226 35.5963 90.1023C35.0577 89.682 34.0864 90.0236 33.4268 90.8654C32.7673 91.7071 32.6691 92.7301 33.2077 93.1504Z" fill="#2A5EBC"/>
<path d="M58.475 73.7718C58.3674 74.8508 58.8521 75.7824 59.5577 75.8525C60.2632 75.9226 60.9225 75.1047 61.0301 74.0256C61.1378 72.9466 60.6531 72.0151 59.9475 71.945C59.2419 71.8749 58.5826 72.6928 58.475 73.7718Z" fill="#2A5EBC"/>
<path d="M134.14 80.5628C134.545 81.1396 135.683 81.0407 136.682 80.3419C137.681 79.643 138.162 78.6089 137.757 78.0321C137.351 77.4553 136.213 77.5543 135.214 78.2531C134.215 78.9519 133.734 79.986 134.14 80.5628Z" fill="#2A5EBC"/>
<path d="M118.749 81.5782C119.165 82.1705 120.335 82.068 121.363 81.3492C122.39 80.6303 122.886 79.5674 122.469 78.9751C122.053 78.3827 120.883 78.4852 119.856 79.2041C118.828 79.9229 118.333 80.9858 118.749 81.5782Z" fill="#2A5EBC"/>
<path d="M70.129 61.5614C69.8773 62.9911 70.3179 64.2631 71.1132 64.4026C71.9084 64.542 72.7571 63.496 73.0089 62.0663C73.2606 60.6366 72.82 59.3645 72.0247 59.2251C71.2295 59.0857 70.3808 60.1316 70.129 61.5614Z" fill="#2A5EBC"/>
<path d="M131.462 80.9293C132.073 81.2891 133.025 80.8084 133.589 79.8557C134.153 78.9029 134.115 77.8388 133.504 77.479C132.894 77.1191 131.942 77.5998 131.378 78.5526C130.814 79.5054 130.852 80.5694 131.462 80.9293Z" fill="#2A5EBC"/>
<path d="M118.837 74.3904C118.888 76.0327 119.799 77.3372 120.873 77.304C121.946 77.2709 122.775 75.9125 122.724 74.2702C122.673 72.6278 121.762 71.3233 120.688 71.3565C119.615 71.3897 118.786 72.748 118.837 74.3904Z" fill="#2A5EBC"/>
<path d="M125.556 112.061C127.064 113.061 128.785 113.123 129.4 112.199C130.016 111.275 129.293 109.715 127.786 108.715C126.279 107.715 124.558 107.654 123.942 108.578C123.326 109.502 124.049 111.062 125.556 112.061Z" fill="#2A5EBC"/>
<path d="M132.54 87.6677C132.858 88.2753 133.969 88.3227 135.022 87.7737C136.075 87.2246 136.671 86.287 136.353 85.6795C136.035 85.072 134.924 85.0246 133.871 85.5736C132.818 86.1227 132.222 87.0602 132.54 87.6677Z" fill="#2A5EBC"/>
<path d="M115.106 41.3795C115.24 42.1034 115.71 42.6238 116.156 42.5418C116.602 42.4598 116.855 41.8064 116.722 41.0825C116.588 40.3586 116.118 39.8382 115.672 39.9202C115.226 40.0022 114.973 40.6555 115.106 41.3795Z" fill="#2A5EBC"/>
<path d="M130.708 99.3419C131.518 99.5954 132.545 98.6205 133.003 97.1644C133.461 95.7083 133.175 94.3225 132.366 94.069C131.556 93.8155 130.528 94.7904 130.071 96.2465C129.613 97.7026 129.898 99.0884 130.708 99.3419Z" fill="#2A5EBC"/>
<path d="M130.789 101.689C131.587 102.219 132.545 102.18 132.93 101.602C133.315 101.025 132.98 100.128 132.182 99.5983C131.384 99.0689 130.425 99.1079 130.04 99.6853C129.656 100.263 129.991 101.16 130.789 101.689Z" fill="#2A5EBC"/>
<path d="M117.012 90.9206C117.562 91.3497 118.553 91.001 119.227 90.1418C119.9 89.2827 120 88.2383 119.45 87.8093C118.9 87.3802 117.909 87.7289 117.236 88.5881C116.562 89.4472 116.462 90.4916 117.012 90.9206Z" fill="#2A5EBC"/>
<path d="M151.997 54.7661C152.574 55.2166 153.615 54.8509 154.321 53.9493C155.028 53.0478 155.132 51.9517 154.555 51.5011C153.978 51.0506 152.937 51.4163 152.231 52.3179C151.524 53.2194 151.419 54.3155 151.997 54.7661Z" fill="#2A5EBC"/>
<path d="M114.59 105.656C115.552 106.836 116.945 107.295 117.702 106.681C118.459 106.067 118.293 104.612 117.332 103.432C116.37 102.251 114.977 101.792 114.22 102.406C113.463 103.02 113.629 104.475 114.59 105.656Z" fill="#2A5EBC"/>
<path d="M118.863 112.53C119.798 113.151 120.957 113.052 121.451 112.31C121.946 111.568 121.588 110.463 120.653 109.842C119.718 109.222 118.559 109.321 118.064 110.063C117.57 110.805 117.927 111.91 118.863 112.53Z" fill="#2A5EBC"/>
<path d="M125.413 90.852C125.198 93.0022 126.163 94.8584 127.568 94.998C128.973 95.1375 130.285 93.5076 130.5 91.3574C130.714 89.2073 129.75 87.3511 128.345 87.2115C126.94 87.0719 125.627 88.7018 125.413 90.852Z" fill="#2A5EBC"/>
<path d="M136.259 94.8694C136.729 95.0387 137.341 94.5362 137.627 93.747C137.912 92.9579 137.762 92.1809 137.292 92.0116C136.822 91.8423 136.21 92.3448 135.924 93.134C135.639 93.9232 135.789 94.7002 136.259 94.8694Z" fill="#2A5EBC"/>
<path d="M137.504 87.6392C138.057 88.0712 139.056 87.7199 139.734 86.8544C140.412 85.989 140.513 84.9372 139.96 84.5053C139.406 84.0733 138.408 84.4246 137.73 85.2901C137.051 86.1555 136.95 87.2072 137.504 87.6392Z" fill="#2A5EBC"/>
<path d="M137.574 99.7608C138.42 100.799 139.644 101.203 140.308 100.664C140.973 100.125 140.827 98.8463 139.981 97.8083C139.136 96.7703 137.912 96.3659 137.247 96.9051C136.582 97.4443 136.729 98.7228 137.574 99.7608Z" fill="#2A5EBC"/>
<path d="M103.536 104.548C104.387 105.112 105.441 105.022 105.891 104.347C106.341 103.672 106.015 102.668 105.165 102.103C104.314 101.539 103.26 101.629 102.81 102.304C102.36 102.979 102.686 103.983 103.536 104.548Z" fill="#2A5EBC"/>
<path d="M138.127 94.9075C138.428 95.9824 139.878 96.5176 141.366 96.1028C142.854 95.6881 143.817 94.4805 143.516 93.4056C143.215 92.3307 141.765 91.7955 140.277 92.2103C138.789 92.6251 137.826 93.8326 138.127 94.9075Z" fill="#2A5EBC"/>
<path d="M62.3084 44.6392C63.1116 45.172 64.0766 45.1327 64.4639 44.5513C64.8512 43.9699 64.514 43.0667 63.7109 42.5339C62.9077 42.001 61.9426 42.0404 61.5553 42.6217C61.1681 43.2031 61.5052 44.1063 62.3084 44.6392Z" fill="#2A5EBC"/>
<path d="M70.6853 36.4276C71.1837 36.6071 71.8335 36.073 72.1366 35.2347C72.4398 34.3964 72.2816 33.5713 71.7832 33.3918C71.2849 33.2124 70.6351 33.7464 70.3319 34.5847C70.0287 35.423 70.187 36.2481 70.6853 36.4276Z" fill="#2A5EBC"/>
<path d="M72.0249 41.2272C72.8714 42.2664 74.0974 42.671 74.7634 42.1308C75.4293 41.5906 75.283 40.3103 74.4365 39.271C73.5901 38.2318 72.364 37.8272 71.6981 38.3674C71.0321 38.9076 71.1785 40.188 72.0249 41.2272Z" fill="#2A5EBC"/>
<path d="M72.4646 36.4021C72.7778 37.5212 74.2888 38.0781 75.8396 37.6459C77.3903 37.2136 78.3935 35.9561 78.0803 34.837C77.7671 33.7179 76.2561 33.161 74.7054 33.5932C73.1546 34.0255 72.1514 35.283 72.4646 36.4021Z" fill="#2A5EBC"/>
<path d="M128.967 44.5155C129.994 44.9848 131.353 44.2171 132.003 42.8009C132.653 41.3846 132.347 39.8561 131.32 39.3868C130.294 38.9175 128.934 39.6852 128.284 41.1014C127.634 42.5177 127.94 44.0462 128.967 44.5155Z" fill="#2A5EBC"/>
<path d="M111.519 66.8223C112.017 67.0018 112.667 66.4678 112.97 65.6294C113.273 64.7911 113.115 63.9661 112.617 63.7866C112.118 63.6071 111.468 64.1411 111.165 64.9794C110.862 65.8177 111.02 66.6428 111.519 66.8223Z" fill="#2A5EBC"/>
<path d="M110.618 62.0972C111.505 63.1868 112.79 63.6111 113.488 63.045C114.186 62.4789 114.033 61.1366 113.145 60.047C112.258 58.9574 110.972 58.5331 110.274 59.0992C109.576 59.6653 109.73 61.0076 110.618 62.0972Z" fill="#2A5EBC"/>
<path d="M110.793 57.4876C111.113 58.6281 112.652 59.1957 114.232 58.7554C115.812 58.3151 116.833 57.0336 116.514 55.8932C116.195 54.7527 114.656 54.1851 113.076 54.6254C111.496 55.0657 110.474 56.3472 110.793 57.4876Z" fill="#2A5EBC"/>
<path d="M123.201 60.9242C123.516 62.0494 125.035 62.6094 126.593 62.1751C128.152 61.7407 129.16 60.4765 128.845 59.3513C128.53 58.2261 127.011 57.666 125.453 58.1004C123.894 58.5347 122.886 59.799 123.201 60.9242Z" fill="#2A5EBC"/>
<path d="M147.876 83.1953C147.76 84.3593 148.283 85.3643 149.044 85.4399C149.804 85.5155 150.515 84.6331 150.631 83.469C150.748 82.3049 150.225 81.2999 149.464 81.2243C148.703 81.1488 147.992 82.0312 147.876 83.1953Z" fill="#2A5EBC"/>
<path d="M94.8543 16.6763C95.5818 16.8075 96.3448 15.9567 96.5587 14.7759C96.7726 13.5951 96.3563 12.5315 95.6288 12.4003C94.9014 12.2691 94.1383 13.1199 93.9245 14.3007C93.7106 15.4815 94.1269 16.5451 94.8543 16.6763Z" fill="#2A5EBC"/>
<path d="M99.8537 35.4944C100.154 36.2064 101.339 36.3881 102.499 35.9004C103.66 35.4126 104.358 34.44 104.057 33.728C103.757 33.0161 102.572 32.8343 101.412 33.3221C100.251 33.8099 99.5533 34.7825 99.8537 35.4944Z" fill="#2A5EBC"/>
<path d="M99.7897 45.5969C99.6105 47.3083 100.27 48.7796 101.262 48.883C102.255 48.9865 103.204 47.683 103.383 45.9716C103.563 44.2602 102.903 42.7889 101.911 42.6855C100.919 42.582 99.969 43.8855 99.7897 45.5969Z" fill="#2A5EBC"/>
<path d="M124.742 67.1459C125.018 67.801 125.976 68.0238 126.881 67.6435C127.786 67.2632 128.295 66.4239 128.019 65.7688C127.743 65.1138 126.785 64.891 125.88 65.2713C124.975 65.6515 124.466 66.4908 124.742 67.1459Z" fill="#2A5EBC"/>
<path d="M106.924 32.383C107.259 33.3863 108.051 34.0264 108.694 33.8127C109.336 33.5991 109.586 32.6126 109.251 31.6094C108.916 30.6061 108.124 29.966 107.481 30.1796C106.838 30.3933 106.589 31.3798 106.924 32.383Z" fill="#2A5EBC"/>
<path d="M81.6687 21.8674C81.9999 22.6523 83.0696 22.952 84.0579 22.5367C85.0462 22.1214 85.5788 21.1485 85.2477 20.3635C84.9165 19.5786 83.8468 19.279 82.8585 19.6943C81.8702 20.1096 81.3375 21.0825 81.6687 21.8674Z" fill="#2A5EBC"/>
<path d="M71.4693 46.9017C71.7495 47.5678 72.8587 47.7383 73.9469 47.2825C75.0351 46.8267 75.6901 45.9172 75.4099 45.2511C75.1297 44.585 74.0204 44.4145 72.9323 44.8703C71.8441 45.3261 71.1891 46.2356 71.4693 46.9017Z" fill="#2A5EBC"/>
<path d="M72.4693 67.7633C73.4613 68.9843 74.8159 69.5288 75.4949 68.9795C76.1738 68.4302 75.92 66.995 74.9279 65.774C73.9359 64.553 72.5813 64.0085 71.9024 64.5578C71.2234 65.1071 71.4773 66.5423 72.4693 67.7633Z" fill="#2A5EBC"/>
<path d="M86.0113 49.0732C87.4819 49.6996 88.9548 49.5512 89.301 48.7417C89.6473 47.9322 88.7358 46.7682 87.2652 46.1417C85.7946 45.5153 84.3217 45.6637 83.9754 46.4732C83.6292 47.2827 84.5407 48.4467 86.0113 49.0732Z" fill="#2A5EBC"/>
<path d="M135.012 69.6479C135.539 70.9015 137.372 71.3289 139.106 70.6027C140.84 69.8765 141.818 68.2716 141.29 67.018C140.763 65.7645 138.93 65.337 137.197 66.0633C135.463 66.7895 134.485 68.3944 135.012 69.6479Z" fill="#2A5EBC"/>
<path d="M80.9412 41.9999C81.0267 42.8775 82.2108 43.4808 83.586 43.3473C84.9612 43.2139 86.0067 42.3942 85.9211 41.5166C85.8356 40.639 84.6515 40.0358 83.2763 40.1693C81.9011 40.3027 80.8556 41.1223 80.9412 41.9999Z" fill="#2A5EBC"/>
<path d="M81.4623 47.4039C82.167 47.6317 82.9939 47.0289 83.3092 46.0575C83.6244 45.0861 83.3086 44.114 82.6039 43.8862C81.8991 43.6585 81.0722 44.2613 80.757 45.2327C80.4417 46.204 80.7575 47.1761 81.4623 47.4039Z" fill="#2A5EBC"/>
<path d="M131.897 69.5018C132.683 69.7559 133.606 69.0829 133.958 67.9986C134.31 66.9143 133.958 65.8293 133.172 65.5751C132.385 65.321 131.463 65.994 131.111 67.0784C130.759 68.1627 131.111 69.2477 131.897 69.5018Z" fill="#2A5EBC"/>
<path d="M149.255 78.8549C150.051 79.1119 150.984 78.4315 151.34 77.3351C151.696 76.2388 151.339 75.1416 150.544 74.8846C149.749 74.6275 148.816 75.3079 148.46 76.4043C148.104 77.5007 148.46 78.5978 149.255 78.8549Z" fill="#2A5EBC"/>
<path d="M71.5717 19.8037C71.9837 20.7832 73.6143 21.0341 75.2136 20.3642C76.813 19.6943 77.7756 18.3571 77.3636 17.3776C76.9516 16.3981 75.3211 16.1472 73.7217 16.8171C72.1223 17.487 71.1597 18.8242 71.5717 19.8037Z" fill="#2A5EBC"/>
<path d="M101.436 58.1602C102.121 58.3234 102.906 57.497 103.188 56.3145C103.471 55.132 103.145 54.0411 102.46 53.8779C101.775 53.7147 100.99 54.541 100.708 55.7235C100.425 56.9061 100.751 57.997 101.436 58.1602Z" fill="#2A5EBC"/>
<path d="M104.309 69.9739C105.278 70.5446 106.325 70.5642 106.649 70.0176C106.972 69.471 106.449 68.5653 105.481 67.9945C104.512 67.4238 103.465 67.4042 103.142 67.9508C102.818 68.4974 103.341 69.4031 104.309 69.9739Z" fill="#2A5EBC"/>
<path d="M135.196 27.6975C136.417 28.3568 138.004 27.7898 138.741 26.4311C139.478 25.0723 139.086 23.4364 137.865 22.777C136.644 22.1177 135.057 22.6847 134.32 24.0434C133.583 25.4021 133.975 27.0381 135.196 27.6975Z" fill="#2A5EBC"/>
<path d="M104.426 66.4487C105.268 67.8162 106.568 68.5465 107.329 68.0799C108.09 67.6132 108.024 66.1263 107.182 64.7588C106.339 63.3912 105.04 62.6609 104.279 63.1276C103.518 63.5942 103.584 65.0811 104.426 66.4487Z" fill="#2A5EBC"/>
<path d="M96.3842 33.3631C97.2355 34.7455 98.5491 35.4838 99.3181 35.0122C100.087 34.5406 100.02 33.0376 99.1689 31.6552C98.3175 30.2728 97.004 29.5345 96.235 30.0062C95.466 30.4778 95.5328 31.9808 96.3842 33.3631Z" fill="#2A5EBC"/>
<path d="M112.206 71.0266C112.394 71.7089 113.312 72.0521 114.256 71.7931C115.199 71.5342 115.812 70.7712 115.624 70.0889C115.436 69.4066 114.518 69.0634 113.575 69.3224C112.631 69.5814 112.018 70.3444 112.206 71.0266Z" fill="#2A5EBC"/>
<path d="M97.3042 65.0165C98.1215 65.8815 99.2425 66.1513 99.808 65.6192C100.374 65.0871 100.17 63.9545 99.3523 63.0895C98.535 62.2245 97.4141 61.9546 96.8485 62.4868C96.283 63.0189 96.487 64.1515 97.3042 65.0165Z" fill="#2A5EBC"/>
<path d="M119.931 70.5576C120.62 70.777 121.469 70.0465 121.828 68.926C122.186 67.8055 121.918 66.7192 121.229 66.4998C120.539 66.2804 119.69 67.0109 119.332 68.1314C118.974 69.252 119.242 70.3382 119.931 70.5576Z" fill="#2A5EBC"/>
<path d="M126.396 74.7662C127.118 74.9962 128.008 74.2302 128.384 73.0554C128.76 71.8806 128.479 70.7417 127.756 70.5117C127.034 70.2818 126.144 71.0477 125.768 72.2225C125.392 73.3973 125.674 74.5362 126.396 74.7662Z" fill="#2A5EBC"/>
<path d="M54.4838 64.8158C54.5331 66.4028 55.4149 67.6633 56.4534 67.6311C57.4919 67.599 58.2939 66.2865 58.2446 64.6995C58.1953 63.1125 57.3135 61.852 56.275 61.8841C55.2365 61.9162 54.4345 63.2288 54.4838 64.8158Z" fill="#2A5EBC"/>
<path d="M76.8591 79.9182C76.9065 81.6449 77.8604 83.0197 78.9896 82.9889C80.1188 82.958 80.9958 81.5331 80.9484 79.8064C80.901 78.0796 79.9472 76.7048 78.8179 76.7357C77.6887 76.7666 76.8117 78.1914 76.8591 79.9182Z" fill="#2A5EBC"/>
<path d="M81.4819 84.3782C82.1439 84.589 82.9588 83.8894 83.3021 82.8156C83.6454 81.7418 83.3871 80.7005 82.7251 80.4897C82.0632 80.279 81.2483 80.9786 80.905 82.0524C80.5617 83.1262 80.82 84.1675 81.4819 84.3782Z" fill="#2A5EBC"/>
<path d="M59.5711 30.9261C59.6222 32.5733 60.5364 33.8815 61.613 33.8482C62.6896 33.8149 63.5209 32.4527 63.4697 30.8056C63.4186 29.1585 62.5044 27.8502 61.4278 27.8835C60.3512 27.9168 59.52 29.279 59.5711 30.9261Z" fill="#2A5EBC"/>
<path d="M61.4232 27.4391C62.1048 27.6561 62.9442 26.9346 63.2981 25.8277C63.652 24.7207 63.3864 23.6474 62.7048 23.4304C62.0233 23.2134 61.1838 23.9349 60.8299 25.0418C60.476 26.1488 60.7416 27.2221 61.4232 27.4391Z" fill="#2A5EBC"/>
<path d="M2.00429 73.2215C2.77361 73.6772 3.96509 73.0922 4.66552 71.9147C5.36596 70.7373 5.31013 69.4133 4.54081 68.9575C3.7715 68.5018 2.58003 69.0868 1.87959 70.2643C1.17915 71.4417 1.23498 72.7657 2.00429 73.2215Z" fill="#2A5EBC"/>
<path d="M4.74477 68.8891C5.11879 69.3364 6.01241 69.2073 6.74073 68.6007C7.46905 67.9942 7.75627 67.1399 7.38225 66.6927C7.00824 66.2454 6.11462 66.3745 5.3863 66.981C4.65798 67.5875 4.37076 68.4418 4.74477 68.8891Z" fill="#2A5EBC"/>
<path d="M114.866 39.9863C115.591 40.1591 116.422 39.2856 116.721 38.0353C117.02 36.785 116.674 35.6314 115.949 35.4587C115.224 35.2859 114.394 36.1594 114.095 37.4097C113.796 38.66 114.141 39.8136 114.866 39.9863Z" fill="#2A5EBC"/>
<path d="M121.403 42.0348C122.186 43.3053 123.393 43.9837 124.1 43.5502C124.807 43.1167 124.745 41.7354 123.963 40.465C123.18 39.1945 121.973 38.5161 121.266 38.9496C120.56 39.3831 120.621 40.7644 121.403 42.0348Z" fill="#2A5EBC"/>
<path d="M101.924 51.5354C102.117 52.5316 102.792 53.2389 103.43 53.1154C104.069 52.9918 104.429 52.0841 104.236 51.088C104.042 50.0918 103.368 49.3844 102.729 49.508C102.091 49.6315 101.73 50.5393 101.924 51.5354Z" fill="#2A5EBC"/>
<path d="M114.427 63.1102C114.397 64.0341 115.545 64.8221 116.993 64.8702C118.44 64.9182 119.638 64.2081 119.669 63.2842C119.7 62.3602 118.552 61.5722 117.104 61.5242C115.657 61.4761 114.458 62.1862 114.427 63.1102Z" fill="#2A5EBC"/>
<path d="M38.8856 57.065C39.3451 57.2305 39.9443 56.7382 40.2238 55.9654C40.5032 55.1926 40.3573 54.432 39.8977 54.2664C39.4381 54.1009 38.839 54.5932 38.5595 55.366C38.28 56.1388 38.426 56.8994 38.8856 57.065Z" fill="#2A5EBC"/>
<path d="M37.9104 52.4816C38.8179 53.5957 40.1323 54.0295 40.8463 53.4504C41.5602 52.8713 41.4034 51.4986 40.4959 50.3844C39.5884 49.2702 38.2739 48.8365 37.56 49.4156C36.846 49.9947 37.0029 51.3674 37.9104 52.4816Z" fill="#2A5EBC"/>
<path d="M41.7686 53.4621C41.738 54.3781 42.8764 55.1593 44.3112 55.207C45.746 55.2546 46.9339 54.5506 46.9644 53.6345C46.995 52.7185 45.8566 51.9373 44.4218 51.8896C42.987 51.842 41.7991 52.546 41.7686 53.4621Z" fill="#2A5EBC"/>
<path d="M116.027 100.909C116.523 101.088 117.169 100.556 117.47 99.7225C117.772 98.8887 117.615 98.0681 117.119 97.8897C116.624 97.7113 115.978 98.2426 115.676 99.0764C115.375 99.9103 115.532 100.731 116.027 100.909Z" fill="#2A5EBC"/>
<path d="M115.067 96.2393C115.992 97.3756 117.333 97.8175 118.062 97.2264C118.791 96.6353 118.631 95.235 117.706 94.0987C116.78 92.9625 115.439 92.5205 114.71 93.1116C113.982 93.7027 114.141 95.103 115.067 96.2393Z" fill="#2A5EBC"/>
<path d="M118.943 97.2065C118.912 98.1257 120.054 98.9096 121.494 98.9574C122.934 99.0052 124.125 98.2987 124.156 97.3795C124.187 96.4603 123.045 95.6764 121.605 95.6286C120.165 95.5808 118.974 96.2872 118.943 97.2065Z" fill="#2A5EBC"/>
<path d="M30.6777 63.9781C31.5371 65.0333 32.7817 65.4443 33.4575 64.8962C34.1333 64.348 33.9844 63.0482 33.1249 61.993C32.2655 60.9378 31.0209 60.5268 30.3451 61.075C29.6693 61.6231 29.8182 62.9229 30.6777 63.9781Z" fill="#2A5EBC"/>
<path d="M30.9948 59.3506C31.2939 60.4193 32.7365 60.9513 34.217 60.5386C35.6975 60.126 36.6551 58.9251 36.356 57.8563C36.0569 56.7875 34.6142 56.2556 33.1338 56.6682C31.6533 57.0808 30.6957 58.2818 30.9948 59.3506Z" fill="#2A5EBC"/>
<path d="M26.2474 66.7513C27.0465 68.0487 28.2793 68.7417 29.0009 68.2991C29.7226 67.8564 29.6599 66.4459 28.8609 65.1485C28.0618 63.851 26.829 63.1581 26.1074 63.6007C25.3857 64.0433 25.4484 65.4539 26.2474 66.7513Z" fill="#2A5EBC"/>
<path d="M34.4165 65.0133C34.3854 65.9468 35.5465 66.7429 37.0098 66.7914C38.4731 66.84 39.6846 66.1227 39.7158 65.1892C39.7469 64.2558 38.5858 63.4597 37.1225 63.4111C35.6591 63.3625 34.4477 64.0798 34.4165 65.0133Z" fill="#2A5EBC"/>
<path d="M119.317 55.7732C120.319 56.2477 121.663 55.5126 122.321 54.1311C122.978 52.7497 122.698 51.2452 121.697 50.7706C120.695 50.2961 119.35 51.0312 118.693 52.4127C118.036 53.7941 118.315 55.2987 119.317 55.7732Z" fill="#2A5EBC"/>
<path d="M111.671 46.5756C112.386 47.3324 113.367 47.5681 113.862 47.1023C114.357 46.6364 114.179 45.6453 113.464 44.8886C112.749 44.1318 111.768 43.896 111.273 44.3619C110.778 44.8278 110.956 45.8189 111.671 46.5756Z" fill="#2A5EBC"/>
<path d="M147.213 17.0902C147.909 17.2158 148.639 16.4008 148.844 15.2698C149.049 14.1389 148.651 13.1203 147.954 12.9947C147.258 12.8691 146.528 13.6841 146.323 14.8151C146.118 15.946 146.516 16.9646 147.213 17.0902Z" fill="#2A5EBC"/>
<path d="M139.671 23.071C139.924 23.6691 140.919 23.8219 141.894 23.4121C142.869 23.0024 143.455 22.1853 143.203 21.5871C142.95 20.989 141.955 20.8362 140.98 21.246C140.005 21.6557 139.419 22.4728 139.671 23.071Z" fill="#2A5EBC"/>
<path d="M157.613 43.9995C157.484 45.2355 157.959 46.2979 158.676 46.3726C159.392 46.4473 160.077 45.506 160.207 44.27C160.336 43.0341 159.86 41.9716 159.144 41.8969C158.428 41.8222 157.742 42.7636 157.613 43.9995Z" fill="#2A5EBC"/>
<path d="M152.107 36.7753C153.529 37.3813 154.954 37.2387 155.288 36.4568C155.622 35.675 154.74 34.55 153.318 33.9441C151.896 33.3381 150.471 33.4807 150.137 34.2626C149.802 35.0444 150.684 36.1694 152.107 36.7753Z" fill="#2A5EBC"/>
<path d="M147.169 24.5347C148.056 25.7268 149.35 26.2668 150.06 25.7411C150.769 25.2153 150.625 23.8228 149.737 22.6308C148.85 21.4388 147.556 20.8987 146.847 21.4244C146.137 21.9502 146.281 23.3427 147.169 24.5347Z" fill="#2A5EBC"/>
<path d="M145.521 36.138C146.447 36.4921 147.518 35.9426 147.915 34.9108C148.311 33.879 147.881 32.7556 146.956 32.4016C146.03 32.0476 144.958 32.5971 144.562 33.6288C144.166 34.6606 144.595 35.784 145.521 36.138Z" fill="#2A5EBC"/>
<path d="M152.831 41.9441C153.823 43.1651 155.178 43.7096 155.857 43.1603C156.536 42.611 156.282 41.1758 155.29 39.9548C154.298 38.7338 152.943 38.1892 152.264 38.7386C151.585 39.2879 151.839 40.7231 152.831 41.9441Z" fill="#2A5EBC"/>
<path d="M142.615 32.3052C142.891 32.9573 143.845 33.1787 144.747 32.7997C145.649 32.4207 146.157 31.5847 145.882 30.9326C145.607 30.2804 144.652 30.059 143.75 30.4381C142.848 30.8171 142.34 31.653 142.615 32.3052Z" fill="#2A5EBC"/>
<path d="M115.988 26.774C116.249 27.3912 117.152 27.6006 118.006 27.2419C118.859 26.8831 119.34 26.092 119.08 25.4748C118.82 24.8577 117.916 24.6483 117.063 25.007C116.209 25.3658 115.728 26.1569 115.988 26.774Z" fill="#2A5EBC"/>
<path d="M142.483 73.2048C142.836 74.2621 143.671 74.9367 144.348 74.7115C145.026 74.4864 145.288 73.4467 144.935 72.3894C144.583 71.3321 143.747 70.6575 143.07 70.8827C142.393 71.1078 142.13 72.1474 142.483 73.2048Z" fill="#2A5EBC"/>
<path d="M151.075 19.9127C151.168 20.8675 152.456 21.5239 153.951 21.3788C155.446 21.2337 156.583 20.342 156.49 19.3872C156.397 18.4324 155.109 17.7761 153.614 17.9212C152.119 18.0663 150.982 18.9579 151.075 19.9127Z" fill="#2A5EBC"/>
<path d="M149.725 30.5983C150.869 30.968 152.211 29.9882 152.723 28.41C153.236 26.8317 152.723 25.2525 151.58 24.8828C150.436 24.5131 149.093 25.4928 148.581 27.0711C148.069 28.6494 148.581 30.2286 149.725 30.5983Z" fill="#2A5EBC"/>
<path d="M161.116 41.6651C162.66 42.9236 164.579 43.1289 165.402 42.1235C166.225 41.118 165.64 39.2827 164.095 38.0241C162.551 36.7655 160.632 36.5603 159.809 37.5657C158.986 38.5711 159.572 40.4065 161.116 41.6651Z" fill="#2A5EBC"/>
<path d="M85.048 99.4207C85.517 100.317 86.4251 100.769 87.0762 100.43C87.7273 100.091 87.8748 99.0892 87.4058 98.1925C86.9367 97.2958 86.0286 96.8438 85.3776 97.183C84.7265 97.5221 84.5789 98.524 85.048 99.4207Z" fill="#2A5EBC"/>
<path d="M82.8479 95.5818C83.637 96.7058 84.8371 97.2253 85.5282 96.7421C86.2194 96.2589 86.14 94.9559 85.3508 93.8319C84.5617 92.7078 83.3617 92.1883 82.6705 92.6715C81.9793 93.1547 82.0588 94.4577 82.8479 95.5818Z" fill="#2A5EBC"/>
<path d="M145.294 63.3983C145.156 64.7161 145.663 65.849 146.427 65.9286C147.191 66.0082 147.921 65.0045 148.059 63.6867C148.197 62.3689 147.69 61.2361 146.927 61.1564C146.163 61.0768 145.432 62.0805 145.294 63.3983Z" fill="#2A5EBC"/>
<path d="M141.503 53.1148C142.933 53.7239 144.396 53.5071 144.771 52.6306C145.146 51.7541 144.291 50.5499 142.861 49.9409C141.431 49.3318 139.968 49.5486 139.593 50.4251C139.218 51.3016 140.074 52.5058 141.503 53.1148Z" fill="#2A5EBC"/>
<path d="M139.165 59.9405C140.572 61.673 142.496 62.4447 143.46 61.6641C144.425 60.8834 144.066 58.8461 142.659 57.1136C141.251 55.381 139.328 54.6093 138.363 55.39C137.398 56.1706 137.757 58.2079 139.165 59.9405Z" fill="#2A5EBC"/>
<path d="M66.2324 28.978C66.6401 29.9473 68.253 30.1959 69.8348 29.5333C71.4167 28.8707 72.3685 27.5478 71.9608 26.5785C71.5531 25.6092 69.9402 25.3606 68.3584 26.0232C66.7765 26.6858 65.8247 28.0087 66.2324 28.978Z" fill="#2A5EBC"/>
<path d="M151.808 49.7705C152.155 50.8098 152.975 51.4731 153.641 51.2519C154.306 51.0308 154.564 50.009 154.217 48.9697C153.87 47.9304 153.049 47.2672 152.384 47.4883C151.719 47.7095 151.461 48.7313 151.808 49.7705Z" fill="#2A5EBC"/>
<path d="M140.607 40.5895C140.701 41.5538 142.002 42.2166 143.513 42.07C145.024 41.9233 146.172 41.0228 146.078 40.0585C145.984 39.0943 144.683 38.4315 143.172 38.5781C141.661 38.7247 140.513 39.6253 140.607 40.5895Z" fill="#2A5EBC"/>
<path d="M49.9163 54.6481C50.4861 55.0927 51.5145 54.7304 52.2131 53.8388C52.9118 52.9472 53.0163 51.8639 52.4465 51.4193C51.8767 50.9746 50.8483 51.3369 50.1497 52.2285C49.451 53.1201 49.3465 54.2034 49.9163 54.6481Z" fill="#2A5EBC"/>
<path d="M56.3722 57.2011C57.3232 57.5648 58.424 57.0003 58.831 55.9405C59.2379 54.8806 58.7969 53.7266 57.8459 53.363C56.895 52.9993 55.7941 53.5638 55.3872 54.6236C54.9802 55.6835 55.4212 56.8375 56.3722 57.2011Z" fill="#2A5EBC"/>
<path d="M53.5195 53.3049C53.7879 53.941 54.7189 54.1568 55.599 53.787C56.4792 53.4172 56.975 52.6017 56.7066 51.9656C56.4382 51.3295 55.5072 51.1136 54.6271 51.4835C53.747 51.8533 53.2511 52.6688 53.5195 53.3049Z" fill="#2A5EBC"/>
<path d="M131.36 38.4621C131.65 39.1493 132.586 39.4115 133.452 39.0478C134.317 38.6842 134.784 37.8323 134.494 37.1451C134.204 36.458 133.267 36.1957 132.402 36.5594C131.536 36.9231 131.07 37.775 131.36 38.4621Z" fill="#2A5EBC"/>
<path d="M47.5816 45.6114C47.8853 47.1457 49.0323 48.212 50.1434 47.993C51.2546 47.7739 51.9091 46.3525 51.6054 44.8181C51.3016 43.2838 50.1547 42.2175 49.0435 42.4365C47.9324 42.6556 47.2778 44.077 47.5816 45.6114Z" fill="#2A5EBC"/>
<path d="M48.4842 41.7378C49.1546 42.1459 50.1145 41.7953 50.6284 40.9548C51.1422 40.1142 51.0154 39.102 50.3451 38.6939C49.6747 38.2858 48.7148 38.6364 48.2009 39.4769C47.6871 40.3175 47.8139 41.3297 48.4842 41.7378Z" fill="#2A5EBC"/>
<path d="M138.778 47.3211C139.487 47.5503 140.319 46.9438 140.637 45.9664C140.954 44.989 140.636 44.0109 139.927 43.7816C139.217 43.5524 138.385 44.1589 138.068 45.1363C137.751 46.1137 138.069 47.0918 138.778 47.3211Z" fill="#2A5EBC"/>
<path d="M147.936 56.3363C148.789 57.0311 149.849 57.1442 150.303 56.5887C150.758 56.0333 150.435 55.0197 149.582 54.3248C148.729 53.63 147.67 53.5169 147.215 54.0724C146.761 54.6278 147.083 55.6414 147.936 56.3363Z" fill="#2A5EBC"/>
<path d="M150.189 63.6378C151.186 63.8752 152.327 62.6747 152.738 60.9563C153.149 59.238 152.675 57.6525 151.678 57.415C150.681 57.1776 149.54 58.3781 149.129 60.0965C148.718 61.8149 149.193 63.4004 150.189 63.6378Z" fill="#2A5EBC"/>
<path d="M153.29 68.3589C153.294 70.6986 154.381 72.5939 155.72 72.5922C157.059 72.5904 158.142 70.6923 158.139 68.3526C158.136 66.0129 157.048 64.1177 155.709 64.1194C154.37 64.1211 153.287 66.0192 153.29 68.3589Z" fill="#2A5EBC"/>
<path d="M86.1648 37.5432C86.0372 38.7619 86.5067 39.8095 87.2135 39.8832C87.9203 39.9569 88.5968 39.0288 88.7244 37.8101C88.852 36.5915 88.3824 35.5439 87.6756 35.4702C86.9688 35.3965 86.2924 36.3246 86.1648 37.5432Z" fill="#2A5EBC"/>
<path d="M80.475 34.9054C82.0285 36.8174 84.1498 37.67 85.2132 36.8096C86.2766 35.9492 85.8793 33.7017 84.3258 31.7896C82.7723 29.8776 80.6509 29.025 79.5875 29.8854C78.5241 30.7458 78.9215 32.9933 80.475 34.9054Z" fill="#2A5EBC"/>
<path d="M90.9598 37.7529C91.952 37.9893 93.0879 36.7941 93.4971 35.0834C93.9063 33.3728 93.4337 31.7944 92.4416 31.5581C91.4495 31.3218 90.3135 32.5169 89.9044 34.2276C89.4952 35.9383 89.9677 37.5166 90.9598 37.7529Z" fill="#2A5EBC"/>
<path d="M94.0477 42.4932C94.0507 44.8392 95.1424 46.7396 96.486 46.7379C97.8296 46.7361 98.9163 44.8329 98.9132 42.4869C98.9102 40.1408 97.8185 38.2404 96.4749 38.2422C95.1313 38.2439 94.0446 40.1472 94.0477 42.4932Z" fill="#2A5EBC"/>
<path d="M148.724 69.5409C148.954 70.7236 149.754 71.5635 150.511 71.4171C151.268 71.2706 151.695 70.1932 151.465 69.0105C151.235 67.8279 150.435 66.9879 149.678 67.1344C148.922 67.2808 148.494 68.3583 148.724 69.5409Z" fill="#2A5EBC"/>
<path d="M132.311 56.0928C133.399 56.628 134.549 56.5207 134.878 55.8533C135.208 55.1859 134.592 54.211 133.504 53.6758C132.415 53.1407 131.266 53.2479 130.936 53.9153C130.607 54.5828 131.222 55.5577 132.311 56.0928Z" fill="#2A5EBC"/>
<path d="M161.926 23.1383C162.288 23.9757 163.688 24.1783 165.055 23.5909C166.421 23.0035 167.236 21.8484 166.875 21.011C166.513 20.1735 165.112 19.9709 163.746 20.5583C162.379 21.1458 161.565 22.3009 161.926 23.1383Z" fill="#2A5EBC"/>
<path d="M175.961 22.0313C176.952 22.6885 178.084 22.7287 178.488 22.121C178.893 21.5132 178.418 20.4878 177.427 19.8305C176.437 19.1732 175.305 19.133 174.9 19.7407C174.496 20.3485 174.971 21.374 175.961 22.0313Z" fill="#2A5EBC"/>
<path d="M162.978 15.8031C163.872 16.9013 165.168 17.3286 165.872 16.7575C166.577 16.1863 166.422 14.8331 165.528 13.7349C164.633 12.6367 163.337 12.2094 162.633 12.7805C161.929 13.3517 162.083 14.7049 162.978 15.8031Z" fill="#2A5EBC"/>
<path d="M171.073 27.3402C172.702 28.4208 174.61 28.4151 175.334 27.3275C176.059 26.2399 175.326 24.4823 173.697 23.4017C172.068 22.3211 170.16 22.3268 169.436 23.4144C168.711 24.502 169.444 26.2597 171.073 27.3402Z" fill="#2A5EBC"/>
<path d="M94.2275 64.3594C95.0974 64.7859 96.0782 64.5719 96.4182 63.8814C96.7581 63.1909 96.3285 62.2854 95.4586 61.8589C94.5887 61.4323 93.6079 61.6464 93.2679 62.3369C92.928 63.0274 93.3576 63.9329 94.2275 64.3594Z" fill="#2A5EBC"/>
<path d="M88.6328 65.1157C90.255 66.1919 92.1553 66.1858 92.8772 65.1022C93.599 64.0186 92.8692 62.2677 91.247 61.1915C89.6247 60.1153 87.7245 60.1213 87.0026 61.205C86.2807 62.2886 87.0106 64.0395 88.6328 65.1157Z" fill="#2A5EBC"/>
<path d="M170.679 15.3888C170.874 16.0871 171.817 16.4347 172.784 16.1652C173.751 15.8956 174.377 15.111 174.181 14.4127C173.986 13.7144 173.043 13.3669 172.076 13.6364C171.109 13.906 170.484 14.6905 170.679 15.3888Z" fill="#2A5EBC"/>
<path d="M130.317 51.2558C130.518 52.2908 131.218 53.026 131.88 52.8979C132.542 52.7698 132.915 51.827 132.714 50.792C132.513 49.757 131.813 49.0217 131.152 49.1498C130.49 49.2779 130.116 50.2208 130.317 51.2558Z" fill="#2A5EBC"/>
<path d="M160.065 50.9704C160.86 51.8124 161.951 52.075 162.502 51.557C163.052 51.039 162.854 49.9365 162.058 49.0946C161.263 48.2526 160.172 47.99 159.621 48.508C159.071 49.026 159.269 50.1285 160.065 50.9704Z" fill="#2A5EBC"/>
<path d="M103.066 15.4121C102.923 16.7773 103.449 17.9508 104.239 18.0333C105.03 18.1157 105.787 17.0757 105.93 15.7105C106.073 14.3453 105.548 13.1717 104.757 13.0893C103.966 13.0069 103.209 14.0468 103.066 15.4121Z" fill="#2A5EBC"/>
<path d="M92.7022 10.226C93.7692 11.5392 95.2264 12.1246 95.9571 11.5334C96.6878 10.9422 96.4152 9.3983 95.3482 8.08506C94.2812 6.77182 92.824 6.18648 92.0933 6.77769C91.3626 7.36889 91.6352 8.91274 92.7022 10.226Z" fill="#2A5EBC"/>
<path d="M106.738 9.84325C107.071 10.842 107.86 11.4793 108.5 11.2666C109.139 11.054 109.388 10.072 109.054 9.07322C108.721 8.07448 107.932 7.43722 107.292 7.64986C106.653 7.8625 106.404 8.84451 106.738 9.84325Z" fill="#2A5EBC"/>
<path d="M100.694 8.58839C101.605 9.33032 102.735 9.4517 103.22 8.85948C103.705 8.26726 103.359 7.18571 102.449 6.44377C101.539 5.70184 100.408 5.58046 99.923 6.17268C99.4384 6.7649 99.7836 7.84645 100.694 8.58839Z" fill="#2A5EBC"/>
<path d="M126.806 29.6557C127.015 30.4143 128.189 30.7537 129.428 30.4137C130.667 30.0738 131.502 29.1832 131.293 28.4246C131.084 27.666 129.91 27.3266 128.671 27.6666C127.432 28.0065 126.597 28.8971 126.806 29.6557Z" fill="#2A5EBC"/>
<path d="M110.458 12.5244C111.15 12.6891 111.941 11.8564 112.226 10.6647C112.511 9.47291 112.182 8.37331 111.491 8.20865C110.799 8.044 110.008 8.87663 109.723 10.0684C109.438 11.2602 109.767 12.3598 110.458 12.5244Z" fill="#2A5EBC"/>
<path d="M108.493 24.7064C109.441 26.4028 111.028 27.3224 112.038 26.7604C113.048 26.1984 113.099 24.3675 112.151 22.6711C111.203 20.9746 109.616 20.055 108.606 20.617C107.596 21.1791 107.545 23.0099 108.493 24.7064Z" fill="#2A5EBC"/>
<path d="M122.96 30.9344C123.934 31.4604 125.377 30.6803 126.185 29.1921C126.992 27.7039 126.857 26.071 125.883 25.5451C124.909 25.0191 123.466 25.7992 122.658 27.2874C121.851 28.7756 121.986 30.4084 122.96 30.9344Z" fill="#2A5EBC"/>
<path d="M163.887 32.2912C164.088 33.0223 165.219 33.3496 166.412 33.0223C167.605 32.6949 168.409 31.8368 168.207 31.1057C168.006 30.3746 166.875 30.0472 165.682 30.3746C164.489 30.702 163.685 31.5601 163.887 32.2912Z" fill="#2A5EBC"/>
<path d="M160.02 33.4783C160.953 33.9824 162.337 33.2343 163.111 31.8073C163.885 30.3803 163.756 28.8149 162.822 28.3108C161.889 27.8066 160.505 28.5548 159.731 29.9817C158.957 31.4087 159.086 32.9741 160.02 33.4783Z" fill="#2A5EBC"/>
<path d="M119.758 14.3494C120.531 15.6037 121.722 16.2737 122.419 15.846C123.117 15.4183 123.056 14.0548 122.283 12.8006C121.511 11.5463 120.319 10.8763 119.622 11.304C118.925 11.7317 118.986 13.0952 119.758 14.3494Z" fill="#2A5EBC"/>
<path d="M122.97 21.0546C123.347 22.4222 125.186 23.11 127.078 22.5908C128.97 22.0716 130.199 20.5421 129.822 19.1745C129.445 17.8069 127.606 17.1191 125.714 17.6382C123.822 18.1574 122.593 19.687 122.97 21.0546Z" fill="#2A5EBC"/>
<path d="M106.054 18.5769C106.293 19.8062 107.124 20.6793 107.91 20.5271C108.697 20.3749 109.14 19.255 108.902 18.0258C108.663 16.7965 107.832 15.9234 107.045 16.0756C106.259 16.2278 105.815 17.3476 106.054 18.5769Z" fill="#2A5EBC"/>
<path d="M115.325 30.73C115.295 31.6397 116.424 32.4155 117.848 32.4628C119.272 32.5101 120.451 31.8109 120.481 30.9012C120.511 29.9914 119.382 29.2156 117.958 29.1684C116.534 29.1211 115.355 29.8203 115.325 30.73Z" fill="#2A5EBC"/>
<path d="M122.487 37.0369C122.877 38.4534 124.641 39.2046 126.426 38.7148C128.211 38.225 129.341 36.6797 128.951 35.2632C128.561 33.8467 126.797 33.0955 125.012 33.5853C123.227 34.0751 122.097 35.6204 122.487 37.0369Z" fill="#2A5EBC"/>
<path d="M41.0547 47.116C41.2608 47.8639 42.4173 48.1987 43.6379 47.8638C44.8585 47.5288 45.6809 46.651 45.4748 45.9031C45.2687 45.1552 44.1122 44.8204 42.8916 45.1553C41.6711 45.4903 40.8487 46.3681 41.0547 47.116Z" fill="#2A5EBC"/>
<path d="M37.1882 48.3878C38.1535 48.9092 39.585 48.1357 40.3854 46.66C41.1858 45.1843 41.0521 43.5653 40.0867 43.0438C39.1213 42.5224 37.6899 43.296 36.8895 44.7716C36.0891 46.2473 36.2228 47.8663 37.1882 48.3878Z" fill="#2A5EBC"/>
<path d="M40.454 61.4717C40.8392 62.8698 42.5787 63.6116 44.3392 63.1285C46.0996 62.6455 47.2145 61.1204 46.8293 59.7223C46.444 58.3241 44.7046 57.5823 42.9441 58.0654C41.1836 58.5485 40.0687 60.0735 40.454 61.4717Z" fill="#2A5EBC"/>
<path d="M115.929 17.1186C117.28 18.5492 119.134 18.9958 120.069 18.1161C121.003 17.2365 120.666 15.3638 119.314 13.9333C117.963 12.5027 116.109 12.0561 115.174 12.9357C114.239 13.8154 114.577 15.6881 115.929 17.1186Z" fill="#2A5EBC"/>
<path d="M135.052 21.3873C135.729 21.6029 136.563 20.8864 136.915 19.787C137.266 18.6876 137.002 17.6216 136.325 17.406C135.648 17.1905 134.814 17.907 134.463 19.0064C134.111 20.1058 134.375 21.1718 135.052 21.3873Z" fill="#2A5EBC"/>
<path d="M97.7099 3.61338C98.5887 5.04026 99.9452 5.80188 100.74 5.31449C101.535 4.82711 101.466 3.2753 100.588 1.84842C99.7088 0.421534 98.3522 -0.34008 97.5576 0.147301C96.7629 0.634683 96.8311 2.1865 97.7099 3.61338Z" fill="#2A5EBC"/>
<path d="M127.195 12.9415C127.164 13.848 128.293 14.6212 129.715 14.6684C131.137 14.7156 132.314 14.019 132.345 13.1124C132.375 12.2059 131.247 11.4327 129.824 11.3855C128.402 11.3382 127.225 12.0349 127.195 12.9415Z" fill="#2A5EBC"/>
<path d="M139.407 16.9612C139.61 17.6969 140.526 18.0872 141.453 17.8328C142.38 17.5785 142.967 16.7759 142.764 16.0402C142.561 15.3045 141.645 14.9142 140.719 15.1686C139.792 15.4229 139.205 16.2255 139.407 16.9612Z" fill="#2A5EBC"/>
<path d="M104.093 39.8358C104.505 41.3316 106.366 42.1254 108.248 41.6088C110.131 41.0921 111.323 39.4607 110.911 37.9648C110.499 36.469 108.639 35.6752 106.756 36.1919C104.873 36.7085 103.681 38.34 104.093 39.8358Z" fill="#2A5EBC"/>
<path d="M70.6534 54.2619C70.4679 56.0332 71.1502 57.5559 72.1773 57.663C73.2044 57.7701 74.1874 56.421 74.3728 54.6498C74.5583 52.8785 73.876 51.3558 72.8489 51.2487C71.8219 51.1416 70.8389 52.4907 70.6534 54.2619Z" fill="#2A5EBC"/>
<path d="M73.3495 50.8436C74.1714 51.5134 75.1924 51.6231 75.6299 51.0885C76.0673 50.5539 75.7556 49.5775 74.9336 48.9077C74.1117 48.2378 73.0907 48.1282 72.6532 48.6628C72.2158 49.1974 72.5275 50.1737 73.3495 50.8436Z" fill="#2A5EBC"/>
<path d="M78.0576 124.567C77.9323 125.764 78.3935 126.792 79.0877 126.865C79.7818 126.937 80.4462 126.026 80.5715 124.829C80.6967 123.633 80.2356 122.604 79.5414 122.532C78.8472 122.459 78.1828 123.37 78.0576 124.567Z" fill="#2A5EBC"/>
<path d="M106.671 53.4936C106.748 54.2401 107.182 54.8074 107.641 54.7607C108.1 54.714 108.411 54.0711 108.334 53.3246C108.258 52.5781 107.824 52.0108 107.365 52.0574C106.906 52.1041 106.595 52.7471 106.671 53.4936Z" fill="#2A5EBC"/>
<path d="M108.343 52.0058C109.014 52.1308 109.733 51.2949 109.949 50.1388C110.166 48.9826 109.798 47.944 109.127 47.819C108.457 47.6939 107.738 48.5298 107.521 49.686C107.305 50.8421 107.673 51.8808 108.343 52.0058Z" fill="#2A5EBC"/>
<path d="M142.259 80.5504C142.482 81.3478 143.555 81.7457 144.655 81.4391C145.755 81.1325 146.466 80.2375 146.243 79.4401C146.02 78.6427 144.947 78.2449 143.847 78.5515C142.747 78.8581 142.036 79.753 142.259 80.5504Z" fill="#2A5EBC"/>
<path d="M139.258 82.4054C140.349 82.758 141.63 81.8242 142.118 80.3198C142.606 78.8153 142.118 77.3098 141.027 76.9571C139.935 76.6045 138.655 77.5383 138.167 79.0427C137.679 80.5472 138.167 82.0527 139.258 82.4054Z" fill="#2A5EBC"/>
<path d="M79.5274 54.1534C80.6556 54.6567 81.8068 54.5362 82.0988 53.8845C82.3907 53.2327 81.7129 52.2963 80.5847 51.7931C79.4566 51.2898 78.3054 51.4102 78.0134 52.062C77.7214 52.7138 78.3993 53.6502 79.5274 54.1534Z" fill="#2A5EBC"/>
<path d="M82.7218 61.4822C83.5179 62.2365 84.6086 62.3798 85.158 61.8024C85.7074 61.225 85.5074 60.1454 84.7113 59.3911C83.9153 58.6369 82.8246 58.4935 82.2752 59.071C81.7258 59.6484 81.9257 60.728 82.7218 61.4822Z" fill="#2A5EBC"/>
<path d="M79.0611 57.3981C79.3199 58.5229 80.7918 59.1454 82.3487 58.7885C83.9056 58.4317 84.9578 57.2307 84.699 56.106C84.4401 54.9812 82.9682 54.3587 81.4113 54.7155C79.8545 55.0724 78.8022 56.2734 79.0611 57.3981Z" fill="#2A5EBC"/>
<path d="M99.5816 79.229C99.8133 80.0569 100.925 80.4705 102.065 80.1528C103.205 79.8352 103.941 78.9065 103.709 78.0786C103.477 77.2507 102.366 76.8371 101.226 77.1548C100.086 77.4725 99.3499 78.4011 99.5816 79.229Z" fill="#2A5EBC"/>
<path d="M104.44 80.7638C105.18 81.547 106.195 81.7911 106.708 81.3089C107.22 80.8267 107.036 79.8009 106.296 79.0177C105.556 78.2345 104.541 77.9904 104.028 78.4726C103.516 78.9548 103.7 79.9806 104.44 80.7638Z" fill="#2A5EBC"/>
<path d="M152.857 12.0367C154.421 13.0743 156.3 12.9985 157.054 11.8674C157.807 10.7364 157.15 8.97826 155.586 7.94063C154.022 6.903 152.143 6.97876 151.39 8.10986C150.636 9.24095 151.293 10.999 152.857 12.0367Z" fill="#2A5EBC"/>
<path d="M147.31 6.92612C147.581 7.89428 148.887 8.37638 150.226 8.00293C151.566 7.62948 152.433 6.54189 152.162 5.57373C151.891 4.60557 150.585 4.12346 149.245 4.49691C147.905 4.87036 147.039 5.95795 147.31 6.92612Z" fill="#2A5EBC"/>
<path d="M123.498 50.3875C124.242 51.1753 125.263 51.4213 125.777 50.937C126.292 50.4526 126.106 49.4214 125.362 48.6335C124.617 47.8457 123.597 47.5997 123.082 48.084C122.567 48.5683 122.753 49.5996 123.498 50.3875Z" fill="#2A5EBC"/>
<path d="M95.236 24.7516C95.5019 25.7015 96.7788 26.1757 98.0881 25.8107C99.3975 25.4458 100.243 24.3799 99.9776 23.4301C99.7117 22.4802 98.4348 22.006 97.1254 22.371C95.8161 22.7359 94.9702 23.8017 95.236 24.7516Z" fill="#2A5EBC"/>
<path d="M91.9356 26.9233C93.1988 27.3316 94.6812 26.25 95.2467 24.5075C95.8121 22.7651 95.2466 21.0216 93.9834 20.6134C92.7203 20.2052 91.2379 21.2867 90.6724 23.0292C90.1069 24.7716 90.6725 26.5151 91.9356 26.9233Z" fill="#2A5EBC"/>
<path d="M101.201 26.6848C102.102 27.6385 103.338 27.9362 103.961 27.3498C104.584 26.7634 104.359 25.5149 103.458 24.5612C102.557 23.6075 101.321 23.3098 100.698 23.8962C100.075 24.4826 100.3 25.7311 101.201 26.6848Z" fill="#2A5EBC"/>
<path d="M43.1833 78.091C43.8592 78.2129 44.5684 77.4215 44.7673 76.3233C44.9662 75.225 44.5796 74.2359 43.9036 74.114C43.2277 73.9921 42.5185 74.7835 42.3196 75.8818C42.1207 76.98 42.5074 77.9691 43.1833 78.091Z" fill="#2A5EBC"/>
<path d="M36.5342 85.0385C36.81 85.6921 37.8975 85.8589 38.9633 85.4111C40.0291 84.9632 40.6695 84.0703 40.3937 83.4167C40.1179 82.7631 39.0304 82.5963 37.9646 83.0442C36.8988 83.492 36.2584 84.3849 36.5342 85.0385Z" fill="#2A5EBC"/>
<path d="M53.1198 93.2689C52.9977 94.4355 53.4473 95.4385 54.1242 95.5091C54.801 95.5797 55.4487 94.6911 55.5709 93.5245C55.6931 92.3578 55.2434 91.3548 54.5666 91.2842C53.8897 91.2137 53.242 92.1022 53.1198 93.2689Z" fill="#2A5EBC"/>
<path d="M60.0955 97.9296C60.3377 99.7595 61.3831 101.131 62.4305 100.993C63.4779 100.855 64.1306 99.2596 63.8884 97.4297C63.6462 95.5998 62.6008 94.2283 61.5534 94.3663C60.506 94.5044 59.8533 96.0997 60.0955 97.9296Z" fill="#2A5EBC"/>
<path d="M56.6459 86.1665C58.2419 86.8463 59.8402 86.6858 60.2158 85.8079C60.5913 84.93 59.6018 83.6671 58.0057 82.9872C56.4097 82.3074 54.8114 82.4679 54.4358 83.3458C54.0603 84.2237 55.0498 85.4866 56.6459 86.1665Z" fill="#2A5EBC"/>
<path d="M40.59 93.2803C40.8406 93.8741 41.7098 94.0756 42.5314 93.7303C43.353 93.3851 43.816 92.6238 43.5654 92.03C43.3149 91.4363 42.4457 91.2348 41.6241 91.58C40.8024 91.9253 40.3395 92.6865 40.59 93.2803Z" fill="#2A5EBC"/>
<path d="M15.2897 85.2609C15.5538 85.8868 16.4695 86.0994 17.335 85.7357C18.2005 85.372 18.688 84.5698 18.4239 83.9439C18.1598 83.318 17.2441 83.1055 16.3786 83.4692C15.5131 83.8328 15.0256 84.635 15.2897 85.2609Z" fill="#2A5EBC"/>
<path d="M60.0462 91.4873C60.4046 92.5611 61.2528 93.2463 61.9405 93.0176C62.6283 92.789 62.8953 91.7331 62.5368 90.6593C62.1783 89.5854 61.3302 88.9003 60.6424 89.129C59.9546 89.3576 59.6877 90.4135 60.0462 91.4873Z" fill="#2A5EBC"/>
<path d="M54.6148 45.7451C54.8442 47.4777 55.8345 48.7762 56.8269 48.6454C57.8192 48.5145 58.4377 47.004 58.2084 45.2714C57.9791 43.5388 56.9887 42.2403 55.9964 42.3711C55.004 42.5019 54.3855 44.0125 54.6148 45.7451Z" fill="#2A5EBC"/>
<path d="M54.3404 38.9714C54.753 40.2075 55.7292 40.9961 56.5209 40.733C57.3125 40.4698 57.6197 39.2544 57.2071 38.0184C56.7945 36.7824 55.8183 35.9937 55.0266 36.2569C54.235 36.5201 53.9278 37.7354 54.3404 38.9714Z" fill="#2A5EBC"/>
<path d="M48.8372 79.2402C48.9566 80.466 50.6111 81.3085 52.5325 81.122C54.454 80.9355 55.9148 79.7906 55.7953 78.5648C55.6759 77.3391 54.0214 76.4965 52.0999 76.683C50.1785 76.8695 48.7177 78.0144 48.8372 79.2402Z" fill="#2A5EBC"/>
<path d="M55.5063 98.5421C56.3762 99.251 57.4572 99.3665 57.9207 98.8C58.3843 98.2335 58.0549 97.1997 57.185 96.4908C56.3151 95.7819 55.2341 95.6664 54.7705 96.2329C54.307 96.7993 54.6364 97.8332 55.5063 98.5421Z" fill="#2A5EBC"/>
<path d="M24.8843 89.0936C25.1989 89.8392 26.2147 90.1238 27.1533 89.7294C28.0919 89.335 28.5978 88.4109 28.2832 87.6654C27.9686 86.9199 26.9527 86.6353 26.0142 87.0296C25.0756 87.424 24.5697 88.3481 24.8843 89.0936Z" fill="#2A5EBC"/>
<path d="M68.6536 99.0408C69.3309 99.2021 70.1066 98.3855 70.3862 97.2169C70.6657 96.0482 70.3432 94.97 69.6659 94.8086C68.9885 94.6473 68.2128 95.4639 67.9332 96.6325C67.6537 97.8012 67.9762 98.8794 68.6536 99.0408Z" fill="#2A5EBC"/>
<path d="M57.7394 109.744C58.0365 111.273 59.0702 112.36 60.0482 112.17C61.0262 111.981 61.5781 110.588 61.2809 109.059C60.9838 107.53 59.9501 106.443 58.9721 106.633C57.9941 106.822 57.4422 108.215 57.7394 109.744Z" fill="#2A5EBC"/>
<path d="M16.045 53.1177C16.0939 54.6952 16.9691 55.9482 17.9997 55.9163C19.0303 55.8845 19.8261 54.5798 19.7771 53.0023C19.7281 51.4248 18.8529 50.1718 17.8223 50.2037C16.7917 50.2355 15.996 51.5402 16.045 53.1177Z" fill="#2A5EBC"/>
<path d="M14.0255 49.179C14.3453 50.7911 15.4411 51.9327 16.473 51.7288C17.505 51.525 18.0824 50.0529 17.7626 48.4408C17.4429 46.8287 16.3471 45.6871 15.3151 45.8909C14.2832 46.0948 13.7058 47.5669 14.0255 49.179Z" fill="#2A5EBC"/>
<path d="M21.9934 73.3239C22.0405 74.8412 22.882 76.0465 23.873 76.0158C24.8639 75.9852 25.6291 74.7303 25.5819 73.2129C25.5348 71.6955 24.6933 70.4903 23.7024 70.5209C22.7114 70.5516 21.9463 71.8065 21.9934 73.3239Z" fill="#2A5EBC"/>
<path d="M19.2403 69.0809C19.5368 70.607 20.5688 71.6909 21.5452 71.502C22.5216 71.313 23.0727 69.9227 22.7762 68.3966C22.4796 66.8705 21.4477 65.7866 20.4713 65.9755C19.4948 66.1645 18.9437 67.5548 19.2403 69.0809Z" fill="#2A5EBC"/>
<path d="M66.8898 115.881C68.0215 117.079 69.5743 117.452 70.358 116.715C71.1417 115.978 70.8595 114.409 69.7278 113.211C68.5961 112.013 67.0433 111.64 66.2596 112.377C65.4759 113.114 65.7581 114.683 66.8898 115.881Z" fill="#2A5EBC"/>
<path d="M7.03366 57.521C6.90639 58.7365 7.37492 59.7815 8.08016 59.855C8.7854 59.9285 9.46029 59.0028 9.58756 57.7873C9.71483 56.5719 9.24628 55.5269 8.54104 55.4534C7.8358 55.3799 7.16093 56.3056 7.03366 57.521Z" fill="#2A5EBC"/>
<path d="M6.00649 52.469C5.87757 53.7002 6.35245 54.7587 7.06715 54.8333C7.78184 54.9078 8.46572 53.9701 8.59464 52.7389C8.72356 51.5077 8.2487 50.4492 7.534 50.3746C6.8193 50.3001 6.13541 51.2378 6.00649 52.469Z" fill="#2A5EBC"/>
<path d="M3.17169 63.1206C3.49156 64.0788 4.24742 64.6905 4.85995 64.4868C5.47248 64.2832 5.70971 63.3414 5.38984 62.3832C5.06997 61.425 4.31413 60.8133 3.7016 61.0169C3.08907 61.2206 2.85182 62.1624 3.17169 63.1206Z" fill="#2A5EBC"/>
<path d="M20.7831 88.2033C20.9594 88.8428 21.9491 89.1289 22.9937 88.8422C24.0384 88.5556 24.7424 87.8047 24.5662 87.1652C24.39 86.5257 23.4002 86.2396 22.3556 86.5262C21.3109 86.8129 20.6069 87.5637 20.7831 88.2033Z" fill="#2A5EBC"/>
<path d="M11.7528 69.1634C12.441 69.3274 13.2287 68.4991 13.5123 67.3135C13.7959 66.1279 13.468 65.0339 12.7798 64.87C12.0917 64.7061 11.3039 65.5343 11.0203 66.7199C10.7367 67.9055 11.0647 68.9995 11.7528 69.1634Z" fill="#2A5EBC"/>
<path d="M4.51092 88.1408C5.2742 89.5068 6.55224 90.2473 7.36551 89.7947C8.17877 89.3422 8.21929 87.868 7.45601 86.502C6.69272 85.136 5.41468 84.3955 4.60141 84.848C3.78815 85.3006 3.74763 86.7748 4.51092 88.1408Z" fill="#2A5EBC"/>
<path d="M14.1349 76.8278C15.5827 79.1785 17.8168 80.4337 19.125 79.6314C20.4332 78.829 20.3201 76.2729 18.8724 73.9222C17.4247 71.5715 15.1905 70.3163 13.8823 71.1187C12.5741 71.921 12.6872 74.4771 14.1349 76.8278Z" fill="#2A5EBC"/>
<path d="M24.5472 81.3841C24.7365 82.0709 25.6599 82.4165 26.6098 82.1558C27.5596 81.8952 28.1762 81.1271 27.9869 80.4402C27.7976 79.7534 26.8742 79.4079 25.9244 79.6685C24.9745 79.9291 24.358 80.6972 24.5472 81.3841Z" fill="#2A5EBC"/>
<path d="M10.1349 91.2086C10.1043 92.1279 11.2477 92.9118 12.6889 92.9597C14.13 93.0075 15.3232 92.3011 15.3538 91.3819C15.3844 90.4627 14.241 89.6787 12.7998 89.6309C11.3587 89.583 10.1656 90.2894 10.1349 91.2086Z" fill="#2A5EBC"/>
<path d="M16.1966 91.7478C16.5019 92.856 17.8815 93.4436 19.278 93.0605C20.6744 92.6773 21.559 91.4683 21.2536 90.3602C20.9483 89.252 19.5687 88.6644 18.1722 89.0475C16.7758 89.4307 15.8913 90.6397 16.1966 91.7478Z" fill="#2A5EBC"/>
<path d="M87.8484 52.5035C87.8187 53.3959 88.9282 54.1569 90.3265 54.2033C91.7248 54.2497 92.8825 53.564 92.9123 52.6716C92.942 51.7793 91.8326 51.0183 90.4342 50.9719C89.0359 50.9255 87.8782 51.6112 87.8484 52.5035Z" fill="#2A5EBC"/>
<path d="M93.7939 53.0504C94.1051 54.1799 95.5106 54.7792 96.933 54.3888C98.3555 53.9985 99.2563 52.7664 98.9451 51.6369C98.6339 50.5074 97.2284 49.9082 95.806 50.2985C94.3835 50.6889 93.4827 51.9209 93.7939 53.0504Z" fill="#2A5EBC"/>
<path d="M77.4939 112.072C77.4655 112.925 78.5246 113.652 79.8595 113.697C81.1945 113.741 82.2997 113.086 82.3281 112.233C82.3565 111.38 81.2974 110.653 79.9625 110.609C78.6275 110.564 77.5223 111.22 77.4939 112.072Z" fill="#2A5EBC"/>
<path d="M82.694 112.479C82.9968 113.578 84.3656 114.161 85.7514 113.78C87.1371 113.4 88.015 112.201 87.7122 111.102C87.4094 110.003 86.0406 109.42 84.6548 109.801C83.2691 110.181 82.3912 111.38 82.694 112.479Z" fill="#2A5EBC"/>
<path d="M8.03982 76.4436C8.81572 77.2648 9.87976 77.5212 10.4165 77.0162C10.9532 76.5113 10.7593 75.4362 9.98336 74.615C9.20747 73.7937 8.14341 73.5374 7.60671 74.0423C7.07002 74.5473 7.26393 75.6224 8.03982 76.4436Z" fill="#2A5EBC"/>
<path d="M29.6319 80.9658C30.2817 81.1696 31.0783 80.4779 31.4112 79.4208C31.744 78.3638 31.4872 77.3417 30.8374 77.1379C30.1877 76.9341 29.3911 77.6259 29.0582 78.6829C28.7253 79.74 28.9822 80.7621 29.6319 80.9658Z" fill="#2A5EBC"/>
<path d="M36.0595 71.8098C36.2547 72.518 37.3502 72.8349 38.5066 72.5176C39.6629 72.2003 40.4421 71.369 40.2469 70.6608C40.0518 69.9525 38.9562 69.6356 37.7999 69.9529C36.6436 70.2702 35.8644 71.1016 36.0595 71.8098Z" fill="#2A5EBC"/>
<path d="M15.0836 64.5244C15.5147 65.2959 16.2359 65.7144 16.6945 65.4592C17.1531 65.2041 17.1754 64.3718 16.7443 63.6003C16.3132 62.8288 15.592 62.4103 15.1334 62.6654C14.6748 62.9206 14.6525 63.7529 15.0836 64.5244Z" fill="#2A5EBC"/>
<path d="M12.5263 60.1046C12.8172 61.6011 13.8293 62.6641 14.787 62.4788C15.7448 62.2934 16.2854 60.93 15.9946 59.4334C15.7038 57.9368 14.6916 56.8739 13.7339 57.0592C12.7761 57.2446 12.2355 58.608 12.5263 60.1046Z" fill="#2A5EBC"/>
<path d="M25.3067 73.8556C25.2798 74.6641 26.2848 75.3536 27.5516 75.3956C28.8183 75.4377 29.8671 74.8164 29.894 74.0079C29.921 73.1994 28.9159 72.5099 27.6492 72.4679C26.3824 72.4258 25.3337 73.0471 25.3067 73.8556Z" fill="#2A5EBC"/>
<path d="M38.7813 77.4857C38.984 78.2214 39.8997 78.6116 40.8266 78.3573C41.7535 78.103 42.3406 77.3004 42.1378 76.5647C41.9351 75.8289 41.0194 75.4387 40.0925 75.6931C39.1656 75.9474 38.5786 76.75 38.7813 77.4857Z" fill="#2A5EBC"/>
</g>
<defs>
<clipPath id="clip0_1_861">
<rect width="124" height="66" fill="white"/>
</clipPath>
</defs>
</svg>
