<svg width="431" height="173" viewBox="0 0 431 173" fill="none" xmlns="http://www.w3.org/2000/svg">
<path d="M60.3904 134.374C61.1618 136.187 63.8163 136.792 66.3195 135.727C68.8227 134.662 70.2267 132.329 69.4553 130.516C68.6839 128.704 66.0294 128.098 63.5262 129.164C61.0229 130.229 59.619 132.562 60.3904 134.374Z" fill="#2A5EBC"/>
<path d="M114.612 60.2021C114.993 61.9092 116.845 62.9486 118.749 62.5237C120.652 62.0987 121.886 60.3703 121.505 58.6632C121.124 56.956 119.272 55.9166 117.369 56.3416C115.465 56.7665 114.231 58.4949 114.612 60.2021Z" fill="#2A5EBC"/>
<path d="M2.15368 139.872C4.19192 140.511 6.77849 138.051 7.93093 134.377C9.08336 130.703 8.36527 127.206 6.32704 126.567C4.2888 125.928 1.70225 128.388 0.549814 132.062C-0.602624 135.736 0.115447 139.232 2.15368 139.872Z" fill="#2A5EBC"/>
<path d="M422.177 91.1076C424.647 92.3209 427.253 92.074 427.999 90.5562C428.745 89.0383 427.347 86.8243 424.878 85.611C422.408 84.3978 419.802 84.6446 419.056 86.1625C418.31 87.6803 419.708 89.8943 422.177 91.1076Z" fill="#2A5EBC"/>
<path d="M401.83 122.831C401.184 126.509 402.316 129.782 404.359 130.141C406.402 130.5 408.582 127.809 409.228 124.131C409.874 120.453 408.742 117.181 406.699 116.822C404.656 116.463 402.476 119.153 401.83 122.831Z" fill="#2A5EBC"/>
<path d="M398.729 139.641C401.491 142.257 405.087 142.945 406.761 141.178C408.435 139.411 407.553 135.857 404.791 133.242C402.029 130.626 398.433 129.938 396.759 131.705C395.085 133.472 395.967 137.025 398.729 139.641Z" fill="#2A5EBC"/>
<path d="M431.005 64.9903C433.145 66.0415 435.557 65.5139 436.393 63.812C437.229 62.1101 436.173 59.8783 434.033 58.8271C431.893 57.776 429.481 58.3035 428.645 60.0054C427.809 61.7073 428.865 63.9391 431.005 64.9903Z" fill="#2A5EBC"/>
<path d="M422.222 98.7122C422.926 100.368 425.351 100.921 427.637 99.9485C429.923 98.9756 431.205 96.8446 430.5 95.1889C429.795 93.5331 427.371 92.9796 425.085 93.9525C422.799 94.9255 421.517 97.0564 422.222 98.7122Z" fill="#2A5EBC"/>
<path d="M339.29 82.1565C340.656 83.2245 343.117 82.3579 344.789 80.221C346.46 78.084 346.707 75.4859 345.342 74.4179C343.976 73.35 341.514 74.2165 339.843 76.3535C338.172 78.4904 337.924 81.0885 339.29 82.1565Z" fill="#2A5EBC"/>
<path d="M46.566 105.071C49.8274 107.239 53.5516 107.372 54.8841 105.367C56.2167 103.363 54.6531 99.9799 51.3917 97.8118C48.1303 95.6437 44.4062 95.5111 43.0736 97.5156C41.741 99.5201 43.3046 102.903 46.566 105.071Z" fill="#2A5EBC"/>
<path d="M202.495 262.514C204.522 263.15 207.093 260.708 208.237 257.06C209.381 253.412 208.666 249.939 206.639 249.303C204.611 248.667 202.04 251.109 200.896 254.758C199.752 258.406 200.467 261.879 202.495 262.514Z" fill="#2A5EBC"/>
<path d="M55.3936 83.1067C57.4658 84.4843 59.9549 84.3836 60.9533 82.8818C61.9517 81.3801 61.0812 79.0459 59.0089 77.6683C56.9367 76.2907 54.4475 76.3914 53.4492 77.8932C52.4508 79.395 53.3213 81.7292 55.3936 83.1067Z" fill="#2A5EBC"/>
<path d="M55.1268 131.027C57.0894 132.332 59.5228 132.122 60.5619 130.559C61.6009 128.996 60.8522 126.672 58.8896 125.367C56.927 124.062 54.4936 124.272 53.4546 125.835C52.4155 127.398 53.1642 129.722 55.1268 131.027Z" fill="#2A5EBC"/>
<path d="M190.415 58.0096C191.276 59.4561 193.886 59.4909 196.243 58.0875C198.601 56.684 199.814 54.3737 198.953 52.9272C198.092 51.4807 195.483 51.4459 193.125 52.8493C190.767 54.2528 189.554 56.5631 190.415 58.0096Z" fill="#2A5EBC"/>
<path d="M131.113 70.0742C133.826 71.407 136.689 71.1359 137.508 69.4687C138.327 67.8015 136.792 65.3696 134.079 64.0369C131.367 62.7041 128.504 62.9752 127.685 64.6424C126.866 66.3096 128.401 68.7415 131.113 70.0742Z" fill="#2A5EBC"/>
<path d="M115.502 149.917C116.871 151.869 120.713 151.536 124.085 149.172C127.456 146.808 129.08 143.309 127.711 141.358C126.343 139.406 122.5 139.74 119.129 142.103C115.758 144.467 114.134 147.966 115.502 149.917Z" fill="#2A5EBC"/>
<path d="M218.882 177.486C220.946 180.43 226.741 179.925 231.827 176.36C236.913 172.794 239.362 167.517 237.299 164.574C235.235 161.63 229.439 162.134 224.353 165.7C219.268 169.265 216.818 174.542 218.882 177.486Z" fill="#2A5EBC"/>
<path d="M158.588 139.339C159.873 139.622 161.301 138.095 161.777 135.929C162.253 133.763 161.597 131.779 160.312 131.496C159.027 131.214 157.599 132.741 157.123 134.906C156.647 137.072 157.303 139.057 158.588 139.339Z" fill="#2A5EBC"/>
<path d="M117.391 87.4318C119.611 88.5222 122.05 88.1025 122.84 86.4944C123.63 84.8862 122.472 82.6986 120.252 81.6082C118.033 80.5178 115.593 80.9375 114.803 82.5456C114.013 84.1537 115.172 86.3413 117.391 87.4318Z" fill="#2A5EBC"/>
<path d="M256.857 179.193C258.965 180.229 261.281 179.832 262.03 178.308C262.779 176.783 261.678 174.707 259.569 173.671C257.461 172.635 255.145 173.032 254.396 174.557C253.646 176.081 254.748 178.157 256.857 179.193Z" fill="#2A5EBC"/>
<path d="M157.194 130.116C160.179 131.879 164.836 129.522 167.595 124.85C170.354 120.178 170.17 114.962 167.185 113.199C164.199 111.435 159.542 113.793 156.783 118.465C154.024 123.136 154.208 128.353 157.194 130.116Z" fill="#2A5EBC"/>
<path d="M155.664 86.84C158.027 89.0781 161.103 89.667 162.535 88.1554C163.967 86.6438 163.212 83.6042 160.849 81.3661C158.486 79.1281 155.41 78.5392 153.978 80.0508C152.547 81.5624 153.302 84.602 155.664 86.84Z" fill="#2A5EBC"/>
<path d="M133.256 85.7535C134.066 87.6549 136.855 88.2885 139.486 87.1685C142.118 86.0486 143.595 83.5993 142.785 81.6978C141.976 79.7964 139.187 79.1628 136.556 80.2828C133.924 81.4027 132.447 83.852 133.256 85.7535Z" fill="#2A5EBC"/>
<path d="M101.22 84.5699C102.578 86.8511 106.69 86.9079 110.404 84.6968C114.119 82.4857 116.029 78.8441 114.671 76.5629C113.313 74.2818 109.201 74.225 105.487 76.4361C101.772 78.6472 99.8622 82.2888 101.22 84.5699Z" fill="#2A5EBC"/>
<path d="M41.9369 153.152C43.5653 155.475 48.1373 155.077 52.1489 152.265C56.1604 149.452 58.0922 145.29 56.4638 142.967C54.8354 140.644 50.2634 141.041 46.2518 143.854C42.2403 146.666 40.3084 150.829 41.9369 153.152Z" fill="#2A5EBC"/>
<path d="M103.512 65.022C104.391 67.0873 107.407 67.7811 110.248 66.5718C113.09 65.3624 114.681 62.7079 113.802 60.6426C112.923 58.5774 109.907 57.8835 107.065 59.0929C104.224 60.3022 102.633 62.9568 103.512 65.022Z" fill="#2A5EBC"/>
<path d="M63.4637 115.478C62.7994 119.259 63.9633 122.623 66.0634 122.992C68.1636 123.361 70.4046 120.595 71.0689 116.814C71.7332 113.033 70.5693 109.669 68.4692 109.3C66.3691 108.931 64.128 111.697 63.4637 115.478Z" fill="#2A5EBC"/>
<path d="M69.3217 96.8571C71.3745 97.8656 73.6306 97.4781 74.361 95.9915C75.0913 94.505 74.0193 92.4823 71.9666 91.4738C69.9139 90.4653 67.6578 90.8528 66.9274 92.3394C66.1971 93.8259 67.269 95.8486 69.3217 96.8571Z" fill="#2A5EBC"/>
<path d="M101.798 93.4688C104.461 95.9963 107.93 96.6653 109.545 94.963C111.161 93.2607 110.31 89.8318 107.647 87.3043C104.983 84.7769 101.514 84.1079 99.8988 85.8101C98.2837 87.5124 99.1338 90.9413 101.798 93.4688Z" fill="#2A5EBC"/>
<path d="M78.4003 99.0425C79.1766 100.892 81.8799 101.52 84.4383 100.447C86.9967 99.3727 88.4414 97.003 87.6652 95.1537C86.8889 93.3043 84.1857 92.6757 81.6272 93.7496C79.0688 94.8235 77.6241 97.1932 78.4003 99.0425Z" fill="#2A5EBC"/>
<path d="M71.7763 119.645C71.8667 122.561 73.4827 124.878 75.3857 124.819C77.2888 124.76 78.7582 122.348 78.6679 119.432C78.5775 116.515 76.9615 114.199 75.0585 114.258C73.1554 114.317 71.6859 116.729 71.7763 119.645Z" fill="#2A5EBC"/>
<path d="M149.274 145.562C150.12 147.181 153.075 147.308 155.873 145.846C158.672 144.384 160.255 141.886 159.41 140.267C158.564 138.648 155.609 138.521 152.81 139.983C150.012 141.446 148.428 143.943 149.274 145.562Z" fill="#2A5EBC"/>
<path d="M122.637 164.923C123.893 165.906 126.159 165.105 127.699 163.136C129.239 161.167 129.47 158.774 128.214 157.792C126.958 156.81 124.691 157.61 123.151 159.579C121.611 161.549 121.381 163.941 122.637 164.923Z" fill="#2A5EBC"/>
<path d="M102.873 169.784C102.604 172.487 103.816 174.821 105.58 174.997C107.343 175.172 108.991 173.123 109.26 170.42C109.529 167.717 108.318 165.383 106.554 165.207C104.79 165.032 103.143 167.081 102.873 169.784Z" fill="#2A5EBC"/>
<path d="M128.944 54.1011C129.613 55.6543 132.204 56.0309 134.731 54.9424C137.258 53.8539 138.764 51.7124 138.095 50.1592C137.426 48.6061 134.835 48.2294 132.308 49.3179C129.781 50.4065 128.275 52.548 128.944 54.1011Z" fill="#2A5EBC"/>
<path d="M150.398 49.0223C155.277 52.2659 160.848 52.4657 162.84 49.4686C164.833 46.4715 162.493 41.4124 157.613 38.1688C152.734 34.9252 147.164 34.7254 145.171 37.7225C143.179 40.7196 145.519 45.7788 150.398 49.0223Z" fill="#2A5EBC"/>
<path d="M140.33 54.02C142.218 55.2754 144.559 55.0757 145.557 53.5739C146.555 52.0722 145.834 49.837 143.945 48.5815C142.057 47.3261 139.716 47.5258 138.718 49.0275C137.72 50.5293 138.441 52.7645 140.33 54.02Z" fill="#2A5EBC"/>
<path d="M278.83 188.14C280.848 189.481 283.348 189.267 284.415 187.663C285.482 186.058 284.712 183.669 282.694 182.328C280.677 180.987 278.176 181.201 277.109 182.806C276.043 184.411 276.813 186.799 278.83 188.14Z" fill="#2A5EBC"/>
<path d="M185.735 163.765C187.006 165.899 190.853 165.953 194.328 163.885C197.803 161.816 199.589 158.409 198.319 156.274C197.048 154.139 193.201 154.085 189.726 156.154C186.251 158.222 184.464 161.63 185.735 163.765Z" fill="#2A5EBC"/>
<path d="M237.61 190.288C240.01 191.467 242.542 191.229 243.266 189.757C243.989 188.284 242.63 186.134 240.23 184.955C237.83 183.776 235.298 184.014 234.575 185.487C233.851 186.959 235.21 189.109 237.61 190.288Z" fill="#2A5EBC"/>
<path d="M225.064 253.072C226.133 254.596 229.136 254.334 231.772 252.485C234.409 250.637 235.68 247.903 234.611 246.379C233.542 244.855 230.539 245.118 227.903 246.966C225.266 248.814 223.995 251.548 225.064 253.072Z" fill="#2A5EBC"/>
<path d="M272.822 225.415C274.209 225.72 275.75 224.074 276.263 221.738C276.777 219.402 276.068 217.262 274.681 216.957C273.294 216.652 271.754 218.298 271.24 220.634C270.727 222.97 271.435 225.111 272.822 225.415Z" fill="#2A5EBC"/>
<path d="M220.016 225.966C218.932 232.136 220.831 237.627 224.257 238.229C227.684 238.831 231.34 234.317 232.424 228.146C233.509 221.975 231.61 216.485 228.183 215.883C224.757 215.281 221.1 219.795 220.016 225.966Z" fill="#2A5EBC"/>
<path d="M230.246 199.381C232.382 200.43 234.729 200.028 235.488 198.482C236.248 196.937 235.132 194.833 232.996 193.783C230.859 192.734 228.512 193.136 227.753 194.682C226.994 196.227 228.11 198.331 230.246 199.381Z" fill="#2A5EBC"/>
<path d="M264.747 243.122C266.23 243.998 268.544 242.825 269.916 240.502C271.287 238.18 271.197 235.587 269.714 234.712C268.232 233.836 265.918 235.009 264.546 237.331C263.174 239.654 263.264 242.246 264.747 243.122Z" fill="#2A5EBC"/>
<path d="M154.283 168.765C158.715 170.943 163.712 169.85 165.444 166.325C167.176 162.799 164.987 158.176 160.556 155.999C156.124 153.821 151.127 154.914 149.395 158.439C147.663 161.965 149.851 166.588 154.283 168.765Z" fill="#2A5EBC"/>
<path d="M244.328 237.648C244.416 240.499 245.996 242.763 247.856 242.705C249.717 242.648 251.154 240.29 251.065 237.439C250.977 234.588 249.397 232.324 247.537 232.382C245.676 232.439 244.239 234.797 244.328 237.648Z" fill="#2A5EBC"/>
<path d="M190.922 260.672C191.83 262.198 194.58 262.237 197.064 260.758C199.548 259.279 200.826 256.843 199.917 255.317C199.008 253.791 196.258 253.752 193.774 255.231C191.29 256.71 190.013 259.146 190.922 260.672Z" fill="#2A5EBC"/>
<path d="M183.104 201.067C185.584 202.285 188.202 202.037 188.951 200.512C189.7 198.987 188.297 196.764 185.817 195.545C183.337 194.327 180.72 194.575 179.97 196.1C179.221 197.625 180.624 199.848 183.104 201.067Z" fill="#2A5EBC"/>
<path d="M369.345 200.454C371.79 201.656 374.37 201.413 375.107 199.913C375.844 198.412 374.46 196.222 372.014 195.021C369.569 193.819 366.989 194.062 366.252 195.562C365.515 197.063 366.9 199.253 369.345 200.454Z" fill="#2A5EBC"/>
<path d="M171.385 258.859C172.862 260.966 177.011 260.605 180.652 258.053C184.293 255.5 186.046 251.723 184.569 249.616C183.092 247.508 178.943 247.869 175.302 250.422C171.661 252.975 169.907 256.752 171.385 258.859Z" fill="#2A5EBC"/>
<path d="M120.013 177.186C125.604 178.94 130.925 177.844 131.899 174.739C132.873 171.633 129.131 167.695 123.541 165.941C117.951 164.187 112.629 165.283 111.655 168.389C110.681 171.494 114.423 175.433 120.013 177.186Z" fill="#2A5EBC"/>
<path d="M82.0598 178.486C84.0951 179.486 86.333 179.1 87.0583 177.624C87.7835 176.148 86.7215 174.141 84.6861 173.141C82.6508 172.141 80.4129 172.527 79.6876 174.003C78.9624 175.479 80.0244 177.486 82.0598 178.486Z" fill="#2A5EBC"/>
<path d="M218.767 259.884C220.21 260.736 222.461 259.595 223.795 257.336C225.13 255.077 225.042 252.555 223.599 251.703C222.156 250.851 219.905 251.991 218.571 254.251C217.236 256.51 217.324 259.032 218.767 259.884Z" fill="#2A5EBC"/>
<path d="M122.858 212.497C123.978 214.094 127.121 213.822 129.877 211.889C132.634 209.957 133.961 207.095 132.841 205.498C131.722 203.901 128.579 204.173 125.823 206.106C123.066 208.039 121.739 210.9 122.858 212.497Z" fill="#2A5EBC"/>
<path d="M116.731 219.261C118.211 220.135 120.519 218.966 121.887 216.65C123.254 214.334 123.164 211.749 121.684 210.875C120.205 210.001 117.897 211.17 116.529 213.486C115.161 215.802 115.252 218.388 116.731 219.261Z" fill="#2A5EBC"/>
<path d="M24.3889 204.283C25.453 205.801 28.4451 205.538 31.0719 203.697C33.6988 201.855 34.9655 199.132 33.9014 197.614C32.8373 196.096 29.8452 196.359 27.2184 198.2C24.5915 200.042 23.3247 202.765 24.3889 204.283Z" fill="#2A5EBC"/>
<path d="M18.079 211.137C19.5318 211.995 21.7975 210.849 23.1396 208.576C24.4817 206.304 24.3919 203.766 22.9391 202.908C21.4863 202.05 19.2206 203.197 17.8785 205.469C16.5364 207.742 16.6262 210.279 18.079 211.137Z" fill="#2A5EBC"/>
<path d="M199.854 175.313C200.929 176.847 203.951 176.583 206.603 174.723C209.255 172.864 210.533 170.113 209.458 168.579C208.383 167.046 205.361 167.31 202.709 169.169C200.057 171.029 198.779 173.779 199.854 175.313Z" fill="#2A5EBC"/>
<path d="M193.597 182.111C195.043 182.965 197.299 181.823 198.635 179.561C199.971 177.298 199.882 174.772 198.436 173.918C196.99 173.064 194.734 174.205 193.398 176.468C192.062 178.73 192.151 181.257 193.597 182.111Z" fill="#2A5EBC"/>
<path d="M362.403 109.369C363.436 110.843 366.336 110.591 368.881 108.807C371.425 107.023 372.651 104.382 371.618 102.909C370.585 101.436 367.684 101.687 365.14 103.471C362.596 105.255 361.37 107.896 362.403 109.369Z" fill="#2A5EBC"/>
<path d="M355.883 116.391C357.359 117.263 359.662 116.097 361.025 113.788C362.389 111.479 362.298 108.9 360.822 108.029C359.346 107.157 357.044 108.322 355.68 110.631C354.316 112.94 354.407 115.519 355.883 116.391Z" fill="#2A5EBC"/>
<path d="M210.411 216.337C212.79 218.591 215.887 219.186 217.326 217.666C218.766 216.146 218.004 213.086 215.624 210.832C213.244 208.578 210.148 207.983 208.708 209.503C207.269 211.023 208.031 214.083 210.411 216.337Z" fill="#2A5EBC"/>
<path d="M215.984 192.064C219.735 193.907 223.964 192.982 225.43 189.998C226.896 187.015 225.043 183.102 221.292 181.259C217.541 179.416 213.312 180.341 211.846 183.324C210.38 186.308 212.233 190.221 215.984 192.064Z" fill="#2A5EBC"/>
<path d="M189.313 221C190.104 222.858 192.826 223.479 195.394 222.387C197.961 221.294 199.401 218.901 198.61 217.043C197.819 215.184 195.096 214.563 192.529 215.656C189.962 216.748 188.522 219.141 189.313 221Z" fill="#2A5EBC"/>
<path d="M147.309 278.652C147.431 282.59 149.612 285.718 152.18 285.638C154.749 285.558 156.732 282.302 156.61 278.364C156.488 274.427 154.307 271.299 151.739 271.379C149.17 271.458 147.187 274.715 147.309 278.652Z" fill="#2A5EBC"/>
<path d="M408.584 90.8296C409.411 92.4142 412.302 92.5396 415.039 91.1096C417.776 89.6796 419.323 87.2358 418.496 85.6511C417.668 84.0665 414.778 83.9411 412.041 85.3711C409.303 86.8011 407.756 89.2449 408.584 90.8296Z" fill="#2A5EBC"/>
<path d="M193.766 296.419C194.096 298.212 195.256 299.501 196.356 299.298C197.456 299.096 198.08 297.478 197.749 295.686C197.419 293.893 196.26 292.604 195.16 292.807C194.06 293.009 193.436 294.627 193.766 296.419Z" fill="#2A5EBC"/>
<path d="M169.816 293.458C171.105 293.923 172.785 292.539 173.57 290.366C174.354 288.193 173.945 286.054 172.657 285.589C171.368 285.124 169.688 286.508 168.903 288.682C168.119 290.855 168.528 292.993 169.816 293.458Z" fill="#2A5EBC"/>
<path d="M210.438 297.359C212.281 297.936 214.618 295.717 215.658 292.401C216.698 289.085 216.047 285.929 214.205 285.351C212.362 284.773 210.025 286.992 208.985 290.308C207.945 293.624 208.596 296.781 210.438 297.359Z" fill="#2A5EBC"/>
<path d="M207.376 317.091C209.38 318.423 211.787 318.328 212.751 316.878C213.715 315.427 212.871 313.172 210.867 311.839C208.862 310.506 206.456 310.602 205.492 312.052C204.528 313.502 205.371 315.758 207.376 317.091Z" fill="#2A5EBC"/>
<path d="M174.853 283.886C176.155 284.904 178.503 284.076 180.098 282.036C181.692 279.997 181.93 277.518 180.628 276.501C179.327 275.483 176.979 276.311 175.384 278.35C173.789 280.39 173.551 282.868 174.853 283.886Z" fill="#2A5EBC"/>
<path d="M309.548 201.316C311.649 202.713 314.172 202.612 315.184 201.091C316.195 199.57 315.311 197.204 313.21 195.807C311.109 194.411 308.586 194.511 307.575 196.032C306.563 197.554 307.447 199.919 309.548 201.316Z" fill="#2A5EBC"/>
<path d="M297.945 209.249C298.714 212.003 302.426 213.374 306.235 212.31C310.044 211.246 312.508 208.151 311.739 205.396C310.97 202.642 307.258 201.271 303.449 202.335C299.64 203.399 297.175 206.495 297.945 209.249Z" fill="#2A5EBC"/>
<path d="M383.627 61.48C384.489 63.4809 387.827 63.9662 391.083 62.5638C394.338 61.1614 396.279 58.4024 395.417 56.4015C394.555 54.4005 391.217 53.9152 387.961 55.3176C384.706 56.72 382.765 59.479 383.627 61.48Z" fill="#2A5EBC"/>
<path d="M184.206 237.609C186.379 238.679 188.769 238.272 189.543 236.7C190.318 235.127 189.184 232.984 187.011 231.914C184.838 230.843 182.448 231.25 181.674 232.823C180.899 234.396 182.033 236.538 184.206 237.609Z" fill="#2A5EBC"/>
<path d="M175.846 230.724C176.504 232.252 179.055 232.622 181.543 231.55C184.031 230.479 185.514 228.371 184.856 226.843C184.197 225.314 181.647 224.944 179.159 226.016C176.671 227.088 175.188 229.195 175.846 230.724Z" fill="#2A5EBC"/>
<path d="M89.2138 72.201C91.3811 73.2658 93.7634 72.8564 94.5347 71.2865C95.306 69.7165 94.1743 67.5807 92.007 66.5158C89.8397 65.451 87.4574 65.8605 86.6861 67.4304C85.9148 69.0003 87.0465 71.1362 89.2138 72.201Z" fill="#2A5EBC"/>
<path d="M80.4899 65.4729C81.1543 67.0154 83.7299 67.3883 86.2427 66.3059C88.7554 65.2235 90.2538 63.0956 89.5893 61.5531C88.9249 60.0106 86.3493 59.6377 83.8365 60.7201C81.3238 61.8025 79.8254 63.9304 80.4899 65.4729Z" fill="#2A5EBC"/>
<path d="M248.424 321.083C251.472 323.109 254.953 323.234 256.198 321.362C257.442 319.49 255.98 316.329 252.931 314.302C249.883 312.275 246.402 312.15 245.157 314.023C243.913 315.895 245.375 319.056 248.424 321.083Z" fill="#2A5EBC"/>
<path d="M262.48 272.967C263.453 274.829 266.85 274.976 270.067 273.296C273.285 271.615 275.104 268.742 274.131 266.88C273.158 265.017 269.761 264.87 266.544 266.551C263.326 268.232 261.507 271.104 262.48 272.967Z" fill="#2A5EBC"/>
<path d="M225.044 295.676C227.781 296.664 231.35 293.723 233.016 289.108C234.682 284.492 233.814 279.95 231.076 278.962C228.339 277.974 224.77 280.915 223.104 285.53C221.438 290.146 222.306 294.688 225.044 295.676Z" fill="#2A5EBC"/>
<path d="M239.443 266.319C241.109 268.23 245.169 267.417 248.512 264.503C251.856 261.589 253.216 257.678 251.55 255.767C249.885 253.856 245.825 254.669 242.481 257.583C239.138 260.497 237.778 264.408 239.443 266.319Z" fill="#2A5EBC"/>
<path d="M272.325 287.126C274.444 287.79 277.132 285.237 278.329 281.423C279.525 277.609 278.777 273.978 276.657 273.313C274.538 272.648 271.85 275.201 270.653 279.015C269.457 282.83 270.205 286.461 272.325 287.126Z" fill="#2A5EBC"/>
<path d="M329.473 22.4297C330.383 24.1722 333.562 24.3092 336.574 22.7359C339.586 21.1625 341.289 18.4746 340.379 16.7322C339.468 14.9897 336.289 14.8527 333.277 16.426C330.266 17.9994 328.563 20.6873 329.473 22.4297Z" fill="#2A5EBC"/>
<path d="M338.797 37.3336C341.079 38.0494 343.974 35.2951 345.265 31.1817C346.555 27.0683 345.751 23.1535 343.469 22.4377C341.187 21.7219 338.291 24.4762 337.001 28.5896C335.711 32.703 336.515 36.6178 338.797 37.3336Z" fill="#2A5EBC"/>
<path d="M252.363 310.741C256.188 313.284 260.783 313.099 262.625 310.328C264.468 307.556 262.86 303.248 259.035 300.705C255.21 298.162 250.615 298.347 248.773 301.119C246.93 303.89 248.538 308.198 252.363 310.741Z" fill="#2A5EBC"/>
<path d="M231.8 272.295C233.029 273.256 235.244 272.475 236.748 270.551C238.252 268.628 238.476 266.29 237.247 265.329C236.019 264.368 233.804 265.149 232.299 267.072C230.795 268.996 230.572 271.334 231.8 272.295Z" fill="#2A5EBC"/>
<path d="M164.565 265.882C165.796 266.845 168.016 266.064 169.522 264.137C171.029 262.21 171.252 259.868 170.02 258.905C168.789 257.942 166.569 258.723 165.063 260.649C163.556 262.576 163.333 264.919 164.565 265.882Z" fill="#2A5EBC"/>
<path d="M223.242 310.174C225.343 312.759 228.388 313.765 230.043 312.42C231.697 311.075 231.335 307.889 229.233 305.303C227.132 302.718 224.087 301.712 222.432 303.057C220.778 304.402 221.14 307.588 223.242 310.174Z" fill="#2A5EBC"/>
<path d="M238.888 298.22C239.542 300.561 242.695 301.726 245.93 300.822C249.165 299.918 251.258 297.288 250.604 294.948C249.95 292.607 246.798 291.442 243.562 292.346C240.327 293.249 238.234 295.879 238.888 298.22Z" fill="#2A5EBC"/>
<path d="M82.8079 91.3036C86.6526 93.8595 91.2699 93.6743 93.1209 90.8899C94.972 88.1054 93.3558 83.7763 89.5111 81.2204C85.6664 78.6645 81.0491 78.8498 79.1981 81.6342C77.3471 84.4186 78.9632 88.7478 82.8079 91.3036Z" fill="#2A5EBC"/>
<path d="M68.9635 78.869C69.661 81.3662 73.0243 82.6092 76.4757 81.6452C79.9271 80.6813 82.1596 77.8755 81.4621 75.3782C80.7647 72.881 77.4014 71.638 73.95 72.602C70.4986 73.5659 68.266 76.3717 68.9635 78.869Z" fill="#2A5EBC"/>
<path d="M168.549 219.694C172.261 222.162 176.719 221.983 178.506 219.296C180.293 216.608 178.732 212.428 175.019 209.96C171.307 207.492 166.849 207.67 165.062 210.358C163.275 213.046 164.836 217.225 168.549 219.694Z" fill="#2A5EBC"/>
<path d="M154.694 207.405C155.379 209.858 158.681 211.079 162.069 210.132C165.457 209.186 167.648 206.431 166.963 203.978C166.278 201.526 162.976 200.305 159.588 201.251C156.2 202.197 154.009 204.953 154.694 207.405Z" fill="#2A5EBC"/>
<path d="M277.843 211.867C281.61 214.371 286.135 214.189 287.95 211.459C289.764 208.73 288.181 204.487 284.414 201.982C280.647 199.478 276.122 199.66 274.307 202.39C272.492 205.119 274.075 209.362 277.843 211.867Z" fill="#2A5EBC"/>
<path d="M264.465 199.39C265.102 201.671 268.175 202.806 271.328 201.925C274.481 201.045 276.521 198.482 275.884 196.201C275.247 193.92 272.174 192.784 269.021 193.665C265.868 194.546 263.828 197.109 264.465 199.39Z" fill="#2A5EBC"/>
<path d="M247.828 224.104C251.672 226.66 256.29 226.475 258.141 223.691C259.992 220.906 258.376 216.577 254.531 214.021C250.686 211.465 246.069 211.65 244.218 214.435C242.367 217.219 243.983 221.548 247.828 224.104Z" fill="#2A5EBC"/>
<path d="M234.467 211.535C235.109 213.835 238.207 214.979 241.387 214.091C244.566 213.204 246.623 210.619 245.98 208.32C245.338 206.02 242.24 204.876 239.061 205.764C235.881 206.652 233.825 209.236 234.467 211.535Z" fill="#2A5EBC"/>
<path d="M281.734 123.801C284.467 125.617 287.748 125.486 289.064 123.507C290.379 121.529 289.23 118.452 286.497 116.635C283.765 114.818 280.483 114.95 279.167 116.928C277.852 118.907 279.001 121.984 281.734 123.801Z" fill="#2A5EBC"/>
<path d="M323.72 152.896C326.453 154.712 329.734 154.581 331.05 152.602C332.365 150.624 331.216 147.547 328.483 145.73C325.751 143.913 322.469 144.044 321.153 146.023C319.838 148.002 320.987 151.079 323.72 152.896Z" fill="#2A5EBC"/>
<path d="M249.093 273.822C248.824 276.522 250.033 278.852 251.793 279.027C253.553 279.203 255.197 277.156 255.466 274.457C255.735 271.757 254.526 269.427 252.766 269.252C251.006 269.077 249.362 271.123 249.093 273.822Z" fill="#2A5EBC"/>
<path d="M305.625 253.49C307.625 254.475 309.824 254.1 310.537 252.653C311.25 251.205 310.207 249.233 308.208 248.248C306.208 247.263 304.009 247.638 303.296 249.085C302.583 250.533 303.626 252.505 305.625 253.49Z" fill="#2A5EBC"/>
<path d="M162.35 200.48C163.862 201.374 166.223 200.177 167.622 197.808C169.021 195.439 168.929 192.794 167.417 191.901C165.904 191.007 163.543 192.204 162.144 194.573C160.745 196.942 160.837 199.587 162.35 200.48Z" fill="#2A5EBC"/>
<path d="M172.209 182.613C173.013 184.153 175.826 184.273 178.491 182.881C181.156 181.488 182.664 179.111 181.86 177.571C181.055 176.031 178.242 175.911 175.577 177.304C172.912 178.696 171.404 181.073 172.209 182.613Z" fill="#2A5EBC"/>
<path d="M159.128 181.178C160.543 182.285 163.094 181.385 164.827 179.168C166.56 176.952 166.819 174.259 165.404 173.153C163.99 172.047 161.438 172.947 159.705 175.163C157.972 177.379 157.714 180.072 159.128 181.178Z" fill="#2A5EBC"/>
<path d="M75.1428 215.803C79.7032 218.044 84.8458 216.918 86.629 213.288C88.4123 209.659 86.1609 204.9 81.6005 202.66C77.0401 200.419 71.8975 201.545 70.1143 205.175C68.3311 208.804 70.5824 213.563 75.1428 215.803Z" fill="#2A5EBC"/>
<path d="M81.0119 227.716C82.3258 228.744 84.6953 227.909 86.3044 225.851C87.9135 223.793 88.1528 221.292 86.839 220.265C85.5251 219.237 83.1556 220.073 81.5465 222.13C79.9374 224.188 79.698 226.689 81.0119 227.716Z" fill="#2A5EBC"/>
<path d="M142.653 180.343C142.39 182.981 143.573 185.258 145.294 185.43C147.015 185.601 148.624 183.602 148.886 180.964C149.149 178.326 147.966 176.049 146.245 175.877C144.524 175.706 142.915 177.705 142.653 180.343Z" fill="#2A5EBC"/>
<path d="M327.24 196.945C328.229 198.355 331.005 198.113 333.442 196.404C335.879 194.696 337.053 192.168 336.064 190.758C335.076 189.348 332.299 189.59 329.862 191.298C327.425 193.007 326.252 195.535 327.24 196.945Z" fill="#2A5EBC"/>
<path d="M289.694 199.427C290.709 200.875 293.564 200.624 296.07 198.867C298.577 197.11 299.786 194.511 298.77 193.063C297.755 191.615 294.9 191.866 292.394 193.623C289.887 195.38 288.679 197.979 289.694 199.427Z" fill="#2A5EBC"/>
<path d="M171.083 150.493C170.469 153.989 171.544 157.098 173.484 157.439C175.424 157.78 177.495 155.223 178.109 151.728C178.723 148.233 177.648 145.123 175.708 144.782C173.768 144.441 171.697 146.998 171.083 150.493Z" fill="#2A5EBC"/>
<path d="M320.709 197.84C322.198 198.72 324.521 197.545 325.896 195.216C327.272 192.887 327.179 190.285 325.69 189.406C324.201 188.526 321.878 189.701 320.502 192.03C319.127 194.36 319.219 196.961 320.709 197.84Z" fill="#2A5EBC"/>
<path d="M289.909 181.855C290.033 185.87 292.257 189.059 294.875 188.978C297.494 188.897 299.516 185.577 299.391 181.562C299.267 177.547 297.043 174.358 294.425 174.439C291.806 174.52 289.784 177.84 289.909 181.855Z" fill="#2A5EBC"/>
<path d="M306.301 273.947C309.978 276.391 314.177 276.541 315.679 274.282C317.18 272.023 315.417 268.21 311.74 265.766C308.063 263.321 303.865 263.171 302.363 265.43C300.861 267.689 302.624 271.502 306.301 273.947Z" fill="#2A5EBC"/>
<path d="M323.337 214.313C324.113 215.799 326.825 215.915 329.394 214.572C331.963 213.23 333.417 210.938 332.641 209.453C331.865 207.968 329.153 207.852 326.584 209.194C324.015 210.536 322.561 212.828 323.337 214.313Z" fill="#2A5EBC"/>
<path d="M280.807 101.157C281.133 102.926 282.28 104.199 283.368 103.998C284.457 103.798 285.075 102.2 284.749 100.431C284.423 98.661 283.276 97.3889 282.188 97.5893C281.1 97.7898 280.481 99.3869 280.807 101.157Z" fill="#2A5EBC"/>
<path d="M318.869 242.852C320.845 243.472 323.351 241.089 324.468 237.529C325.584 233.97 324.888 230.582 322.913 229.962C320.937 229.342 318.431 231.726 317.314 235.285C316.198 238.845 316.894 242.233 318.869 242.852Z" fill="#2A5EBC"/>
<path d="M319.066 248.59C321.012 249.884 323.351 249.789 324.289 248.378C325.228 246.966 324.41 244.773 322.464 243.479C320.517 242.185 318.179 242.28 317.24 243.692C316.302 245.103 317.119 247.296 319.066 248.59Z" fill="#2A5EBC"/>
<path d="M285.457 222.265C286.798 223.314 289.217 222.462 290.86 220.362C292.502 218.261 292.746 215.708 291.405 214.659C290.064 213.61 287.645 214.463 286.002 216.563C284.36 218.664 284.116 221.217 285.457 222.265Z" fill="#2A5EBC"/>
<path d="M370.803 133.882C372.212 134.983 374.751 134.089 376.474 131.885C378.198 129.681 378.453 127.002 377.045 125.9C375.636 124.799 373.098 125.693 371.374 127.897C369.65 130.101 369.395 132.78 370.803 133.882Z" fill="#2A5EBC"/>
<path d="M279.549 258.287C281.895 261.172 285.293 262.295 287.14 260.794C288.987 259.293 288.583 255.736 286.237 252.85C283.891 249.965 280.493 248.842 278.646 250.343C276.799 251.844 277.203 255.401 279.549 258.287Z" fill="#2A5EBC"/>
<path d="M289.971 275.092C292.253 276.609 295.081 276.368 296.287 274.554C297.493 272.739 296.621 270.039 294.339 268.522C292.058 267.005 289.23 267.246 288.024 269.061C286.818 270.875 287.69 273.576 289.971 275.092Z" fill="#2A5EBC"/>
<path d="M305.95 222.098C305.427 227.354 307.781 231.892 311.208 232.233C314.635 232.574 317.838 228.59 318.361 223.333C318.885 218.077 316.53 213.539 313.103 213.198C309.676 212.857 306.473 216.841 305.95 222.098Z" fill="#2A5EBC"/>
<path d="M332.41 231.919C333.557 232.333 335.051 231.104 335.747 229.175C336.443 227.246 336.078 225.346 334.931 224.932C333.785 224.519 332.291 225.747 331.595 227.676C330.898 229.606 331.263 231.505 332.41 231.919Z" fill="#2A5EBC"/>
<path d="M335.448 214.244C336.798 215.3 339.234 214.441 340.888 212.325C342.543 210.21 342.789 207.638 341.439 206.582C340.088 205.526 337.652 206.385 335.998 208.501C334.344 210.617 334.097 213.188 335.448 214.244Z" fill="#2A5EBC"/>
<path d="M335.619 243.876C337.681 246.414 340.668 247.402 342.29 246.084C343.911 244.766 343.554 241.641 341.491 239.103C339.429 236.566 336.442 235.577 334.82 236.895C333.199 238.213 333.556 241.339 335.619 243.876Z" fill="#2A5EBC"/>
<path d="M252.582 255.578C254.658 256.958 257.229 256.739 258.326 255.089C259.423 253.439 258.63 250.983 256.554 249.603C254.479 248.223 251.907 248.442 250.81 250.092C249.714 251.742 250.507 254.198 252.582 255.578Z" fill="#2A5EBC"/>
<path d="M336.968 232.012C337.702 234.64 341.24 235.948 344.87 234.934C348.501 233.92 350.849 230.968 350.115 228.34C349.381 225.712 345.843 224.404 342.213 225.418C338.582 226.432 336.234 229.384 336.968 232.012Z" fill="#2A5EBC"/>
<path d="M152.004 109.125C153.964 110.428 156.318 110.332 157.263 108.911C158.208 107.489 157.385 105.281 155.426 103.979C153.466 102.676 151.112 102.772 150.167 104.194C149.223 105.615 150.045 107.823 152.004 109.125Z" fill="#2A5EBC"/>
<path d="M172.44 89.0513C173.656 89.4901 175.241 88.1845 175.981 86.1352C176.721 84.0859 176.335 82.0688 175.119 81.63C173.903 81.1913 172.318 82.4969 171.578 84.5462C170.839 86.5955 171.225 88.6125 172.44 89.0513Z" fill="#2A5EBC"/>
<path d="M175.708 100.784C177.773 103.325 180.764 104.314 182.389 102.993C184.014 101.673 183.657 98.5429 181.592 96.0024C179.527 93.4619 176.536 92.4729 174.911 93.7934C173.286 95.1139 173.643 98.2439 175.708 100.784Z" fill="#2A5EBC"/>
<path d="M176.781 88.989C177.545 91.7248 181.231 93.086 185.014 92.0294C188.798 90.9729 191.245 87.8985 190.481 85.1628C189.717 82.427 186.031 81.0658 182.247 82.1224C178.464 83.179 176.017 86.2533 176.781 88.989Z" fill="#2A5EBC"/>
<path d="M314.621 108.823C317.126 109.97 320.442 108.094 322.028 104.631C323.613 101.169 322.868 97.4326 320.363 96.2854C317.858 95.1382 314.541 97.0148 312.956 100.477C311.371 103.939 312.116 107.676 314.621 108.823Z" fill="#2A5EBC"/>
<path d="M272.055 163.355C273.271 163.793 274.856 162.488 275.596 160.438C276.336 158.389 275.95 156.372 274.734 155.933C273.518 155.494 271.933 156.8 271.193 158.849C270.454 160.899 270.84 162.916 272.055 163.355Z" fill="#2A5EBC"/>
<path d="M269.857 151.803C272.022 154.467 275.158 155.504 276.86 154.12C278.563 152.736 278.188 149.455 276.023 146.792C273.858 144.128 270.723 143.091 269.02 144.475C267.317 145.858 267.692 149.14 269.857 151.803Z" fill="#2A5EBC"/>
<path d="M270.286 140.535C271.065 143.323 274.82 144.71 278.674 143.634C282.528 142.558 285.021 139.425 284.242 136.637C283.464 133.849 279.708 132.462 275.854 133.538C272 134.614 269.507 137.747 270.286 140.535Z" fill="#2A5EBC"/>
<path d="M300.556 148.936C301.324 151.686 305.029 153.056 308.831 151.994C312.632 150.932 315.092 147.841 314.323 145.091C313.555 142.34 309.85 140.971 306.049 142.033C302.247 143.094 299.788 146.185 300.556 148.936Z" fill="#2A5EBC"/>
<path d="M360.752 203.38C360.468 206.226 361.743 208.682 363.599 208.867C365.455 209.052 367.19 206.895 367.473 204.049C367.756 201.203 366.481 198.747 364.625 198.562C362.769 198.377 361.035 200.534 360.752 203.38Z" fill="#2A5EBC"/>
<path d="M231.402 40.7671C233.177 41.0878 235.038 39.0078 235.56 36.1213C236.082 33.2347 235.066 30.6346 233.291 30.3139C231.517 29.9931 229.655 32.0731 229.133 34.9597C228.612 37.8463 229.627 40.4463 231.402 40.7671Z" fill="#2A5EBC"/>
<path d="M243.598 86.77C244.331 88.5105 247.221 88.9548 250.053 87.7624C252.884 86.5699 254.586 84.1924 253.853 82.4519C253.12 80.7114 250.23 80.2671 247.399 81.4595C244.567 82.6519 242.865 85.0295 243.598 86.77Z" fill="#2A5EBC"/>
<path d="M243.442 111.467C243.005 115.65 244.613 119.247 247.034 119.5C249.455 119.753 251.772 116.566 252.209 112.383C252.646 108.199 251.038 104.602 248.617 104.349C246.196 104.096 243.879 107.283 243.442 111.467Z" fill="#2A5EBC"/>
<path d="M304.314 164.146C304.988 165.747 307.325 166.292 309.533 165.362C311.74 164.432 312.983 162.381 312.309 160.779C311.635 159.178 309.298 158.633 307.091 159.563C304.883 160.492 303.64 162.544 304.314 164.146Z" fill="#2A5EBC"/>
<path d="M260.846 79.1638C261.663 81.6164 263.596 83.1812 265.164 82.6589C266.732 82.1367 267.34 79.7251 266.523 77.2726C265.706 74.82 263.773 73.2552 262.205 73.7775C260.637 74.2997 260.029 76.7113 260.846 79.1638Z" fill="#2A5EBC"/>
<path d="M199.235 53.4573C200.043 55.3761 202.652 56.1086 205.063 55.0934C207.474 54.0782 208.774 51.6997 207.966 49.7809C207.158 47.8621 204.549 47.1296 202.138 48.1448C199.727 49.16 198.427 51.5385 199.235 53.4573Z" fill="#2A5EBC"/>
<path d="M174.353 114.656C175.036 116.285 177.743 116.702 180.397 115.587C183.052 114.473 184.65 112.25 183.966 110.621C183.283 108.993 180.577 108.576 177.922 109.69C175.267 110.805 173.669 113.028 174.353 114.656Z" fill="#2A5EBC"/>
<path d="M176.792 165.655C179.213 168.64 182.517 169.971 184.174 168.628C185.83 167.285 185.211 163.777 182.79 160.792C180.37 157.807 177.066 156.476 175.409 157.819C173.753 159.161 174.372 162.67 176.792 165.655Z" fill="#2A5EBC"/>
<path d="M209.829 119.965C213.416 121.496 217.01 121.133 217.854 119.154C218.699 117.176 216.475 114.33 212.888 112.799C209.3 111.267 205.707 111.63 204.862 113.609C204.018 115.588 206.241 118.433 209.829 119.965Z" fill="#2A5EBC"/>
<path d="M329.369 170.262C330.655 173.326 335.126 174.371 339.356 172.596C343.585 170.821 345.971 166.897 344.685 163.833C343.399 160.769 338.927 159.724 334.698 161.499C330.468 163.274 328.082 167.198 329.369 170.262Z" fill="#2A5EBC"/>
<path d="M197.46 102.673C197.669 104.819 200.557 106.294 203.912 105.967C207.267 105.641 209.818 103.637 209.609 101.492C209.4 99.3466 206.512 97.8719 203.157 98.1982C199.802 98.5244 197.251 100.528 197.46 102.673Z" fill="#2A5EBC"/>
<path d="M198.731 115.884C200.451 116.441 202.468 114.967 203.237 112.593C204.006 110.218 203.236 107.842 201.516 107.285C199.797 106.728 197.78 108.202 197.011 110.576C196.242 112.951 197.012 115.327 198.731 115.884Z" fill="#2A5EBC"/>
<path d="M321.77 169.905C323.688 170.526 325.939 168.881 326.797 166.23C327.656 163.579 326.797 160.927 324.879 160.306C322.961 159.684 320.71 161.33 319.851 163.98C318.993 166.631 319.852 169.284 321.77 169.905Z" fill="#2A5EBC"/>
<path d="M364.116 192.769C366.056 193.398 368.333 191.734 369.201 189.054C370.069 186.374 369.2 183.692 367.26 183.064C365.319 182.435 363.043 184.098 362.175 186.779C361.307 189.459 362.176 192.141 364.116 192.769Z" fill="#2A5EBC"/>
<path d="M174.603 48.4123C175.608 50.8068 179.586 51.4203 183.487 49.7825C187.389 48.1448 189.737 44.876 188.732 42.4815C187.727 40.087 183.749 39.4735 179.848 41.1112C175.946 42.749 173.598 46.0178 174.603 48.4123Z" fill="#2A5EBC"/>
<path d="M247.458 142.179C249.129 142.578 251.043 140.558 251.733 137.667C252.423 134.776 251.628 132.109 249.957 131.71C248.285 131.311 246.371 133.331 245.681 136.222C244.991 139.113 245.787 141.78 247.458 142.179Z" fill="#2A5EBC"/>
<path d="M254.468 171.059C256.831 172.454 259.386 172.502 260.175 171.166C260.964 169.83 259.688 167.615 257.326 166.22C254.963 164.825 252.409 164.777 251.619 166.113C250.83 167.449 252.106 169.664 254.468 171.059Z" fill="#2A5EBC"/>
<path d="M329.818 67.7095C332.795 69.3213 336.667 67.9353 338.465 64.6137C340.263 61.2921 339.306 57.2927 336.328 55.6809C333.35 54.0691 329.479 55.4551 327.681 58.7767C325.883 62.0983 326.84 66.0977 329.818 67.7095Z" fill="#2A5EBC"/>
<path d="M254.753 162.441C256.808 165.784 259.978 167.569 261.834 166.429C263.69 165.288 263.53 161.653 261.475 158.31C259.42 154.967 256.25 153.181 254.394 154.322C252.537 155.463 252.698 159.098 254.753 162.441Z" fill="#2A5EBC"/>
<path d="M235.134 81.5599C237.211 84.9392 240.415 86.7441 242.291 85.5911C244.167 84.4382 244.004 80.764 241.927 77.3846C239.851 74.0053 236.646 72.2004 234.77 73.3534C232.894 74.5063 233.057 78.1805 235.134 81.5599Z" fill="#2A5EBC"/>
<path d="M273.733 173.632C274.192 175.3 276.43 176.139 278.732 175.506C281.034 174.873 282.529 173.008 282.07 171.34C281.612 169.672 279.373 168.833 277.071 169.466C274.769 170.099 273.274 171.965 273.733 173.632Z" fill="#2A5EBC"/>
<path d="M237.379 158.94C239.372 161.054 242.107 161.714 243.487 160.413C244.866 159.113 244.369 156.344 242.375 154.229C240.381 152.115 237.646 151.455 236.267 152.756C234.887 154.057 235.385 156.825 237.379 158.94Z" fill="#2A5EBC"/>
<path d="M292.578 172.486C294.259 173.022 296.331 171.236 297.205 168.497C298.079 165.758 297.424 163.102 295.743 162.566C294.062 162.03 291.991 163.816 291.117 166.555C290.243 169.294 290.897 171.949 292.578 172.486Z" fill="#2A5EBC"/>
<path d="M308.349 182.774C310.112 183.336 312.283 181.464 313.199 178.592C314.116 175.72 313.43 172.936 311.668 172.374C309.905 171.811 307.734 173.684 306.818 176.556C305.901 179.428 306.587 182.212 308.349 182.774Z" fill="#2A5EBC"/>
<path d="M132.916 158.449C133.036 162.329 135.187 165.41 137.721 165.332C140.254 165.253 142.211 162.045 142.091 158.165C141.97 154.285 139.819 151.204 137.286 151.283C134.752 151.361 132.796 154.57 132.916 158.449Z" fill="#2A5EBC"/>
<path d="M187.502 195.369C187.617 199.59 189.944 202.951 192.699 202.875C195.454 202.8 197.593 199.317 197.478 195.095C197.362 190.874 195.035 187.513 192.28 187.589C189.525 187.664 187.386 191.147 187.502 195.369Z" fill="#2A5EBC"/>
<path d="M198.779 206.272C200.394 206.787 202.382 205.077 203.22 202.452C204.057 199.827 203.427 197.281 201.812 196.766C200.197 196.251 198.209 197.961 197.372 200.586C196.534 203.211 197.164 205.757 198.779 206.272Z" fill="#2A5EBC"/>
<path d="M145.327 75.6023C145.451 79.6289 147.682 82.8271 150.308 82.7457C152.934 82.6644 154.962 79.3342 154.838 75.3076C154.713 71.2811 152.483 68.0828 149.856 68.1642C147.23 68.2456 145.202 71.5758 145.327 75.6023Z" fill="#2A5EBC"/>
<path d="M149.845 67.0778C151.508 67.6083 153.556 65.8447 154.419 63.1386C155.282 60.4325 154.634 57.8088 152.972 57.2783C151.309 56.7478 149.261 58.5114 148.398 61.2175C147.534 63.9236 148.182 66.5473 149.845 67.0778Z" fill="#2A5EBC"/>
<path d="M4.88958 178.998C6.76636 180.112 9.67303 178.682 11.3818 175.803C13.0905 172.925 12.9543 169.688 11.0775 168.574C9.20075 167.46 6.2941 168.89 4.58535 171.769C2.8766 174.647 3.01279 177.884 4.88958 178.998Z" fill="#2A5EBC"/>
<path d="M11.5751 168.407C12.4875 169.5 14.6676 169.185 16.4443 167.702C18.2211 166.219 18.9218 164.131 18.0094 163.038C17.0969 161.944 14.9169 162.26 13.1401 163.742C11.3634 165.225 10.6627 167.314 11.5751 168.407Z" fill="#2A5EBC"/>
<path d="M280.222 97.751C281.991 98.1733 284.017 96.0379 284.746 92.9814C285.476 89.925 284.633 87.1049 282.864 86.6826C281.095 86.2603 279.069 88.3957 278.34 91.4522C277.61 94.5086 278.453 97.3287 280.222 97.751Z" fill="#2A5EBC"/>
<path d="M296.169 102.759C298.078 105.864 301.023 107.523 302.748 106.463C304.472 105.404 304.322 102.027 302.414 98.9211C300.505 95.8153 297.56 94.1567 295.835 95.2165C294.111 96.2762 294.261 99.653 296.169 102.759Z" fill="#2A5EBC"/>
<path d="M248.648 125.984C249.12 128.419 250.766 130.148 252.323 129.846C253.881 129.544 254.761 127.325 254.289 124.89C253.816 122.455 252.171 120.726 250.613 121.028C249.056 121.33 248.176 123.549 248.648 125.984Z" fill="#2A5EBC"/>
<path d="M279.152 154.28C279.076 156.538 281.878 158.465 285.409 158.582C288.941 158.7 291.864 156.964 291.939 154.705C292.014 152.446 289.213 150.52 285.681 150.403C282.15 150.285 279.227 152.021 279.152 154.28Z" fill="#2A5EBC"/>
<path d="M94.8633 139.502C95.9844 139.906 97.446 138.703 98.1279 136.814C98.8097 134.924 98.4536 133.065 97.3324 132.66C96.2113 132.256 94.7497 133.459 94.0679 135.348C93.386 137.237 93.7422 139.097 94.8633 139.502Z" fill="#2A5EBC"/>
<path d="M92.4844 128.297C94.6982 131.021 97.9048 132.081 99.6466 130.665C101.388 129.25 101.006 125.894 98.7917 123.17C96.5778 120.447 93.3712 119.386 91.6295 120.802C89.8877 122.218 90.2705 125.573 92.4844 128.297Z" fill="#2A5EBC"/>
<path d="M101.896 130.694C101.822 132.933 104.599 134.843 108.099 134.959C111.6 135.076 114.498 133.355 114.572 131.116C114.647 128.876 111.869 126.966 108.369 126.85C104.869 126.733 101.971 128.454 101.896 130.694Z" fill="#2A5EBC"/>
<path d="M283.054 246.684C284.263 247.12 285.839 245.821 286.574 243.783C287.31 241.744 286.927 239.738 285.718 239.302C284.51 238.866 282.934 240.165 282.198 242.203C281.462 244.242 281.846 246.248 283.054 246.684Z" fill="#2A5EBC"/>
<path d="M280.711 235.267C282.968 238.045 286.24 239.126 288.018 237.681C289.795 236.236 289.406 232.812 287.148 230.035C284.891 227.257 281.619 226.177 279.841 227.622C278.064 229.067 278.453 232.49 280.711 235.267Z" fill="#2A5EBC"/>
<path d="M290.167 237.632C290.092 239.879 292.879 241.795 296.391 241.912C299.903 242.029 302.81 240.302 302.885 238.055C302.96 235.808 300.173 233.891 296.661 233.775C293.15 233.658 290.242 235.385 290.167 237.632Z" fill="#2A5EBC"/>
<path d="M74.8397 156.401C76.9364 158.981 79.9726 159.986 81.6212 158.646C83.2699 157.306 82.9066 154.128 80.8099 151.549C78.7132 148.969 75.677 147.964 74.0284 149.304C72.3798 150.644 72.743 153.822 74.8397 156.401Z" fill="#2A5EBC"/>
<path d="M75.6133 145.089C76.343 147.702 79.8624 149.002 83.4741 147.993C87.0858 146.985 89.422 144.049 88.6923 141.436C87.9626 138.823 84.4432 137.523 80.8315 138.532C77.2199 139.54 74.8836 142.476 75.6133 145.089Z" fill="#2A5EBC"/>
<path d="M64.0319 163.181C65.9812 166.353 68.9887 168.047 70.7493 166.965C72.5098 165.883 72.3568 162.434 70.4075 159.263C68.4582 156.091 65.4508 154.397 63.6902 155.479C61.9297 156.561 62.0826 160.009 64.0319 163.181Z" fill="#2A5EBC"/>
<path d="M83.9609 158.932C83.8849 161.214 86.7174 163.16 90.2873 163.279C93.8571 163.398 96.8127 161.644 96.8886 159.362C96.9645 157.08 94.132 155.134 90.5622 155.015C86.9923 154.897 84.0368 156.65 83.9609 158.932Z" fill="#2A5EBC"/>
<path d="M291.08 136.344C293.523 137.504 296.804 135.707 298.407 132.33C300.01 128.952 299.329 125.274 296.885 124.114C294.442 122.954 291.161 124.751 289.558 128.129C287.955 131.506 288.636 135.184 291.08 136.344Z" fill="#2A5EBC"/>
<path d="M272.427 113.859C274.171 115.709 276.565 116.286 277.772 115.147C278.98 114.008 278.546 111.585 276.802 109.735C275.057 107.885 272.664 107.309 271.456 108.448C270.248 109.586 270.683 112.009 272.427 113.859Z" fill="#2A5EBC"/>
<path d="M359.133 41.7789C360.831 42.0859 362.613 40.0935 363.113 37.3288C363.612 34.5641 362.641 32.074 360.942 31.767C359.244 31.46 357.462 33.4524 356.962 36.2171C356.462 38.9818 357.434 41.4719 359.133 41.7789Z" fill="#2A5EBC"/>
<path d="M340.736 56.3995C341.351 57.8618 343.779 58.2352 346.158 57.2335C348.537 56.2318 349.966 54.2344 349.35 52.7721C348.735 51.3098 346.307 50.9364 343.928 51.9381C341.549 52.9398 340.12 54.9372 340.736 56.3995Z" fill="#2A5EBC"/>
<path d="M384.505 107.562C384.189 110.583 385.35 113.18 387.097 113.363C388.844 113.546 390.517 111.244 390.833 108.223C391.148 105.202 389.988 102.604 388.24 102.422C386.493 102.239 384.82 104.54 384.505 107.562Z" fill="#2A5EBC"/>
<path d="M371.073 89.9013C374.543 91.3826 378.017 91.034 378.833 89.1227C379.649 87.2114 377.497 84.4613 374.027 82.98C370.557 81.4987 367.082 81.8474 366.266 83.7586C365.451 85.6699 367.602 88.4201 371.073 89.9013Z" fill="#2A5EBC"/>
<path d="M359.025 59.9779C361.19 62.8919 364.347 64.2122 366.078 62.9269C367.808 61.6416 367.456 58.2374 365.292 55.3234C363.127 52.4094 359.97 51.0891 358.239 52.3744C356.509 53.6597 356.861 57.0639 359.025 59.9779Z" fill="#2A5EBC"/>
<path d="M355.006 88.3434C357.264 89.2088 359.879 87.8656 360.845 85.3433C361.811 82.821 360.764 80.0747 358.506 79.2093C356.247 78.3439 353.633 79.6871 352.666 82.2094C351.7 84.7317 352.747 87.478 355.006 88.3434Z" fill="#2A5EBC"/>
<path d="M372.839 102.537C375.259 105.522 378.564 106.853 380.22 105.51C381.876 104.167 381.257 100.659 378.837 97.6739C376.417 94.6889 373.112 93.3578 371.456 94.7007C369.8 96.0436 370.419 99.552 372.839 102.537Z" fill="#2A5EBC"/>
<path d="M347.917 78.9736C348.589 80.5678 350.917 81.1091 353.117 80.1825C355.318 79.2559 356.558 77.2123 355.886 75.6181C355.215 74.0238 352.887 73.4826 350.686 74.4092C348.486 75.3358 347.246 77.3793 347.917 78.9736Z" fill="#2A5EBC"/>
<path d="M282.959 65.4521C283.594 66.9607 285.798 67.4728 287.881 66.5957C289.964 65.7187 291.137 63.7847 290.502 62.276C289.867 60.7674 287.663 60.2554 285.58 61.1324C283.497 62.0094 282.324 63.9434 282.959 65.4521Z" fill="#2A5EBC"/>
<path d="M347.594 178.957C348.455 181.542 350.493 183.191 352.145 182.641C353.797 182.09 354.438 179.549 353.577 176.964C352.716 174.379 350.679 172.73 349.027 173.28C347.375 173.831 346.733 176.372 347.594 178.957Z" fill="#2A5EBC"/>
<path d="M368.556 48.6788C368.783 51.0129 371.924 52.6175 375.571 52.2628C379.219 51.9081 381.992 49.7283 381.765 47.3942C381.538 45.0601 378.397 43.4555 374.749 43.8102C371.102 44.165 368.329 46.3447 368.556 48.6788Z" fill="#2A5EBC"/>
<path d="M365.261 74.8009C368.051 75.7047 371.327 73.3096 372.576 69.4513C373.826 65.593 372.577 61.7325 369.786 60.8287C366.995 59.9249 363.72 62.3201 362.47 66.1784C361.221 70.0367 362.47 73.8971 365.261 74.8009Z" fill="#2A5EBC"/>
<path d="M393.05 101.855C396.818 104.932 401.5 105.433 403.507 102.975C405.514 100.518 404.087 96.0308 400.319 92.9541C396.551 89.8773 391.87 89.3756 389.863 91.8335C387.855 94.2913 389.283 98.778 393.05 101.855Z" fill="#2A5EBC"/>
<path d="M207.479 243.045C208.623 245.237 210.838 246.342 212.427 245.513C214.015 244.684 214.375 242.235 213.231 240.042C212.086 237.85 209.871 236.745 208.283 237.574C206.694 238.404 206.335 240.853 207.479 243.045Z" fill="#2A5EBC"/>
<path d="M202.112 233.66C204.037 236.408 206.964 237.678 208.65 236.497C210.337 235.315 210.143 232.13 208.218 229.382C206.293 226.634 203.365 225.364 201.679 226.546C199.993 227.727 200.186 230.912 202.112 233.66Z" fill="#2A5EBC"/>
<path d="M354.452 154.984C354.116 158.206 355.353 160.975 357.216 161.17C359.079 161.364 360.862 158.911 361.198 155.689C361.535 152.468 360.298 149.698 358.435 149.504C356.572 149.309 354.789 151.763 354.452 154.984Z" fill="#2A5EBC"/>
<path d="M345.204 129.845C348.692 131.334 352.261 130.804 353.176 128.661C354.091 126.519 352.004 123.575 348.516 122.086C345.029 120.597 341.46 121.127 340.545 123.27C339.63 125.412 341.717 128.356 345.204 129.845Z" fill="#2A5EBC"/>
<path d="M339.499 146.531C342.933 150.766 347.625 152.653 349.979 150.745C352.333 148.836 351.457 143.856 348.023 139.62C344.589 135.385 339.897 133.499 337.543 135.407C335.19 137.315 336.065 142.296 339.499 146.531Z" fill="#2A5EBC"/>
<path d="M161.577 70.8399C162.572 73.2095 166.507 73.8173 170.366 72.1975C174.225 70.5777 176.547 67.3437 175.552 64.9741C174.557 62.6046 170.623 61.9967 166.764 63.6165C162.905 65.2363 160.583 68.4703 161.577 70.8399Z" fill="#2A5EBC"/>
<path d="M370.343 121.67C371.189 124.21 373.191 125.832 374.814 125.291C376.437 124.75 377.066 122.252 376.22 119.712C375.373 117.171 373.372 115.55 371.749 116.09C370.126 116.631 369.497 119.129 370.343 121.67Z" fill="#2A5EBC"/>
<path d="M343.017 99.2256C343.246 101.583 346.42 103.203 350.106 102.845C353.792 102.486 356.595 100.285 356.365 97.9274C356.136 95.5702 352.962 93.9499 349.276 94.3084C345.59 94.6669 342.788 96.8684 343.017 99.2256Z" fill="#2A5EBC"/>
<path d="M121.773 133.593C123.163 134.68 125.672 133.794 127.377 131.615C129.081 129.435 129.336 126.787 127.946 125.7C126.556 124.613 124.047 125.499 122.343 127.678C120.638 129.858 120.383 132.506 121.773 133.593Z" fill="#2A5EBC"/>
<path d="M137.523 139.834C139.843 140.723 142.528 139.344 143.521 136.753C144.514 134.162 143.438 131.341 141.118 130.452C138.798 129.563 136.113 130.943 135.12 133.533C134.127 136.124 135.203 138.946 137.523 139.834Z" fill="#2A5EBC"/>
<path d="M130.563 130.31C131.218 131.865 133.49 132.392 135.637 131.488C137.784 130.584 138.993 128.591 138.339 127.036C137.684 125.481 135.413 124.953 133.266 125.857C131.118 126.761 129.909 128.755 130.563 130.31Z" fill="#2A5EBC"/>
<path d="M320.458 94.0249C321.166 95.7047 323.451 96.3458 325.562 95.4567C327.674 94.5677 328.812 92.4852 328.104 90.8053C327.397 89.1255 325.112 88.4844 323.001 89.3735C320.889 90.2625 319.751 92.345 320.458 94.0249Z" fill="#2A5EBC"/>
<path d="M116.078 111.502C116.819 115.253 119.617 117.86 122.327 117.324C125.038 116.789 126.635 113.314 125.894 109.563C125.153 105.812 122.355 103.205 119.644 103.741C116.933 104.276 115.337 107.751 116.078 111.502Z" fill="#2A5EBC"/>
<path d="M118.28 102.033C119.915 103.03 122.257 102.173 123.51 100.118C124.764 98.0635 124.455 95.589 122.819 94.5914C121.184 93.5938 118.842 94.4509 117.589 96.5057C116.335 98.5606 116.644 101.035 118.28 102.033Z" fill="#2A5EBC"/>
<path d="M338.556 115.682C340.286 116.242 342.316 114.759 343.09 112.37C343.864 109.981 343.089 107.589 341.358 107.029C339.628 106.469 337.598 107.951 336.824 110.341C336.05 112.73 336.826 115.121 338.556 115.682Z" fill="#2A5EBC"/>
<path d="M360.898 137.72C362.978 139.419 365.563 139.695 366.672 138.337C367.781 136.98 366.993 134.502 364.913 132.803C362.833 131.104 360.248 130.828 359.139 132.186C358.03 133.544 358.817 136.021 360.898 137.72Z" fill="#2A5EBC"/>
<path d="M366.395 155.57C368.826 156.15 371.61 153.215 372.613 149.014C373.616 144.814 372.457 140.938 370.026 140.357C367.594 139.777 364.81 142.712 363.807 146.913C362.805 151.113 363.963 154.989 366.395 155.57Z" fill="#2A5EBC"/>
<path d="M373.96 167.111C373.967 172.831 376.621 177.464 379.887 177.459C383.153 177.455 385.795 172.815 385.788 167.095C385.78 161.376 383.126 156.743 379.86 156.747C376.594 156.751 373.952 161.391 373.96 167.111Z" fill="#2A5EBC"/>
<path d="M210.203 91.7786C209.892 94.7576 211.037 97.3187 212.762 97.4988C214.486 97.679 216.136 95.4101 216.448 92.431C216.759 89.452 215.613 86.891 213.889 86.7108C212.165 86.5306 210.515 88.7995 210.203 91.7786Z" fill="#2A5EBC"/>
<path d="M196.323 85.33C200.113 90.0043 205.288 92.0884 207.882 89.9851C210.476 87.8818 209.507 82.3875 205.717 77.7133C201.927 73.039 196.752 70.9548 194.158 73.0581C191.564 75.1614 192.533 80.6557 196.323 85.33Z" fill="#2A5EBC"/>
<path d="M221.901 92.2912C224.321 92.869 227.093 89.9472 228.091 85.7653C229.089 81.5834 227.936 77.725 225.516 77.1472C223.096 76.5695 220.324 79.4912 219.326 83.6731C218.328 87.855 219.481 91.7135 221.901 92.2912Z" fill="#2A5EBC"/>
<path d="M229.434 103.879C229.441 109.614 232.105 114.26 235.382 114.256C238.66 114.252 241.311 109.599 241.304 103.864C241.296 98.1287 238.633 93.4829 235.355 93.4872C232.078 93.4915 229.427 98.1442 229.434 103.879Z" fill="#2A5EBC"/>
<path d="M362.82 170C363.381 172.892 365.332 174.945 367.178 174.587C369.025 174.229 370.067 171.595 369.506 168.704C368.946 165.813 366.994 163.759 365.148 164.117C363.302 164.475 362.259 167.109 362.82 170Z" fill="#2A5EBC"/>
<path d="M322.778 137.125C325.434 138.433 328.238 138.171 329.042 136.54C329.846 134.908 328.345 132.525 325.689 131.216C323.033 129.908 320.229 130.17 319.425 131.802C318.621 133.434 320.123 135.817 322.778 137.125Z" fill="#2A5EBC"/>
<path d="M395.027 56.5641C395.909 58.6112 399.326 59.1066 402.66 57.6706C405.994 56.2345 407.981 53.4108 407.099 51.3636C406.218 49.3164 402.8 48.821 399.466 50.2571C396.133 51.6932 394.145 54.5169 395.027 56.5641Z" fill="#2A5EBC"/>
<path d="M429.267 53.8578C431.684 55.4646 434.444 55.5628 435.431 54.0772C436.419 52.5915 435.26 50.0846 432.843 48.4778C430.426 46.871 427.666 46.7728 426.679 48.2584C425.691 49.7441 426.85 52.251 429.267 53.8578Z" fill="#2A5EBC"/>
<path d="M397.593 38.6324C399.775 41.3171 402.936 42.3616 404.654 40.9655C406.372 39.5693 405.995 36.2611 403.813 33.5764C401.631 30.8918 398.47 29.8473 396.752 31.2434C395.034 32.6396 395.411 35.9478 397.593 38.6324Z" fill="#2A5EBC"/>
<path d="M417.341 66.8362C421.315 69.4778 425.969 69.4639 427.736 66.8051C429.504 64.1464 427.715 59.8497 423.742 57.2081C419.768 54.5665 415.114 54.5804 413.347 57.2391C411.579 59.8979 413.368 64.1946 417.341 66.8362Z" fill="#2A5EBC"/>
<path d="M229.873 157.334C231.995 158.376 234.388 157.853 235.217 156.165C236.046 154.477 234.998 152.263 232.876 151.221C230.754 150.178 228.361 150.701 227.532 152.389C226.702 154.077 227.751 156.291 229.873 157.334Z" fill="#2A5EBC"/>
<path d="M216.224 159.182C220.182 161.813 224.817 161.799 226.579 159.149C228.34 156.5 226.559 152.22 222.602 149.589C218.644 146.958 214.008 146.973 212.247 149.622C210.486 152.271 212.267 156.552 216.224 159.182Z" fill="#2A5EBC"/>
<path d="M416.38 37.6197C416.857 39.3268 419.156 40.1764 421.515 39.5175C423.874 38.8586 425.4 36.9405 424.924 35.2335C424.447 33.5264 422.148 32.6767 419.789 33.3357C417.429 33.9946 415.903 35.9127 416.38 37.6197Z" fill="#2A5EBC"/>
<path d="M317.916 125.3C318.406 127.831 320.113 129.628 321.728 129.315C323.342 129.002 324.253 126.697 323.763 124.167C323.272 121.636 321.565 119.839 319.951 120.152C318.336 120.465 317.425 122.77 317.916 125.3Z" fill="#2A5EBC"/>
<path d="M390.486 124.603C392.426 126.661 395.088 127.303 396.431 126.037C397.775 124.77 397.29 122.075 395.35 120.017C393.409 117.959 390.747 117.317 389.404 118.583C388.061 119.849 388.545 122.545 390.486 124.603Z" fill="#2A5EBC"/>
<path d="M251.435 37.6765C251.087 41.014 252.368 43.8828 254.297 44.0843C256.227 44.2857 258.073 41.7435 258.421 38.406C258.77 35.0685 257.488 32.1997 255.559 31.9983C253.63 31.7968 251.784 34.3391 251.435 37.6765Z" fill="#2A5EBC"/>
<path d="M226.152 24.9985C228.755 28.2089 232.31 29.6398 234.092 28.1945C235.875 26.7493 235.21 22.9752 232.607 19.7648C230.004 16.5544 226.449 15.1235 224.666 16.5688C222.884 18.0141 223.549 21.7882 226.152 24.9985Z" fill="#2A5EBC"/>
<path d="M260.392 24.0629C261.206 26.5044 263.13 28.0623 264.69 27.5425C266.251 27.0227 266.856 24.622 266.043 22.1805C265.23 19.739 263.305 18.1811 261.745 18.7009C260.185 19.2207 259.579 21.6214 260.392 24.0629Z" fill="#2A5EBC"/>
<path d="M245.648 20.9953C247.869 22.809 250.628 23.1057 251.81 21.658C252.993 20.2102 252.151 17.5663 249.929 15.7525C247.708 13.9388 244.949 13.6421 243.767 15.0898C242.585 16.5375 243.427 19.1815 245.648 20.9953Z" fill="#2A5EBC"/>
<path d="M309.35 72.4966C309.86 74.3511 312.723 75.1807 315.746 74.3497C318.768 73.5186 320.805 71.3415 320.295 69.4871C319.785 67.6326 316.922 66.8029 313.899 67.634C310.877 68.4651 308.84 70.6421 309.35 72.4966Z" fill="#2A5EBC"/>
<path d="M269.469 30.6173C271.155 31.0199 273.086 28.9844 273.781 26.071C274.476 23.1576 273.673 20.4695 271.987 20.067C270.301 19.6644 268.37 21.6999 267.674 24.6133C266.979 27.5267 267.782 30.2148 269.469 30.6173Z" fill="#2A5EBC"/>
<path d="M264.675 60.3974C266.987 64.5445 270.86 66.7926 273.323 65.4187C275.787 64.0448 275.91 59.5691 273.598 55.4219C271.285 51.2748 267.413 49.0267 264.949 50.4006C262.485 51.7746 262.362 56.2503 264.675 60.3974Z" fill="#2A5EBC"/>
<path d="M299.967 75.6225C302.342 76.9083 305.864 75.0014 307.834 71.3633C309.803 67.7251 309.473 63.7335 307.098 62.4478C304.722 61.162 301.2 63.0689 299.231 66.707C297.262 70.3451 297.591 74.3367 299.967 75.6225Z" fill="#2A5EBC"/>
<path d="M399.81 78.9394C400.301 80.7267 403.059 81.5268 405.97 80.7265C408.88 79.9262 410.841 77.8286 410.35 76.0413C409.858 74.2539 407.1 73.4538 404.19 74.2541C401.28 75.0544 399.319 77.152 399.81 78.9394Z" fill="#2A5EBC"/>
<path d="M390.376 81.8413C392.652 83.0736 396.029 81.2448 397.917 77.7564C399.805 74.268 399.49 70.4411 397.213 69.2088C394.936 67.9764 391.56 69.8053 389.672 73.2936C387.784 76.782 388.099 80.6089 390.376 81.8413Z" fill="#2A5EBC"/>
<path d="M292.156 35.0788C294.04 38.1449 296.947 39.7829 298.648 38.7374C300.35 37.6918 300.201 34.3586 298.317 31.2924C296.432 28.2263 293.525 26.5883 291.824 27.6338C290.123 28.6794 290.271 32.0126 292.156 35.0788Z" fill="#2A5EBC"/>
<path d="M299.992 51.4702C300.911 54.8135 305.398 56.4949 310.014 55.2257C314.63 53.9566 317.626 50.2174 316.707 46.8741C315.787 43.5308 311.3 41.8494 306.685 43.1186C302.069 44.3878 299.073 48.1269 299.992 51.4702Z" fill="#2A5EBC"/>
<path d="M258.723 45.4133C259.306 48.4184 261.334 50.5528 263.252 50.1808C265.171 49.8087 266.254 47.0711 265.671 44.066C265.088 41.0609 263.06 38.9264 261.142 39.2985C259.223 39.6705 258.141 42.4082 258.723 45.4133Z" fill="#2A5EBC"/>
<path d="M281.342 75.1229C281.268 77.3468 284.023 79.2433 287.496 79.3589C290.97 79.4744 293.845 77.7652 293.919 75.5413C293.993 73.3174 291.237 71.4208 287.764 71.3053C284.291 71.1898 281.415 72.8989 281.342 75.1229Z" fill="#2A5EBC"/>
<path d="M298.813 90.5408C299.765 94.0035 304.067 95.8399 308.421 94.6425C312.776 93.4452 315.534 89.6675 314.582 86.2048C313.63 82.7421 309.328 80.9057 304.973 82.103C300.619 83.3004 297.861 87.0781 298.813 90.5408Z" fill="#2A5EBC"/>
<path d="M100.155 115.18C100.658 117.009 103.479 117.827 106.457 117.008C109.434 116.189 111.441 114.044 110.938 112.215C110.435 110.387 107.614 109.568 104.636 110.387C101.659 111.206 99.6523 113.352 100.155 115.18Z" fill="#2A5EBC"/>
<path d="M90.7224 118.289C93.0775 119.564 96.5695 117.673 98.5222 114.065C100.475 110.458 100.149 106.5 97.7935 105.225C95.4384 103.951 91.9463 105.842 89.9937 109.449C88.0411 113.057 88.3673 117.015 90.7224 118.289Z" fill="#2A5EBC"/>
<path d="M98.6895 150.274C99.6294 153.692 103.873 155.506 108.168 154.325C112.462 153.144 115.182 149.416 114.242 145.998C113.302 142.58 109.059 140.766 104.764 141.947C100.469 143.128 97.7497 146.856 98.6895 150.274Z" fill="#2A5EBC"/>
<path d="M282.814 41.8484C286.111 45.3455 290.632 46.4372 292.913 44.2869C295.194 42.1366 294.37 37.5584 291.073 34.0614C287.776 30.5643 283.254 29.4725 280.973 31.6229C278.692 33.7732 279.516 38.3513 282.814 41.8484Z" fill="#2A5EBC"/>
<path d="M329.467 52.2837C331.119 52.8107 333.153 51.0591 334.01 48.3715C334.868 45.6838 334.224 43.0779 332.572 42.5509C330.92 42.024 328.886 43.7755 328.029 46.4632C327.171 49.1508 327.815 51.7568 329.467 52.2837Z" fill="#2A5EBC"/>
<path d="M238.368 8.83329C240.512 12.3215 243.821 14.1833 245.76 12.9919C247.699 11.8004 247.532 8.00682 245.388 4.51865C243.245 1.03049 239.935 -0.831363 237.997 0.360094C236.058 1.55155 236.224 5.34513 238.368 8.83329Z" fill="#2A5EBC"/>
<path d="M310.298 31.6368C310.224 33.853 312.977 35.7431 316.446 35.8585C319.915 35.974 322.788 34.2709 322.861 32.0547C322.935 29.8386 320.182 27.9484 316.713 27.833C313.244 27.7176 310.372 29.4206 310.298 31.6368Z" fill="#2A5EBC"/>
<path d="M340.091 41.4636C340.586 43.2621 342.82 44.216 345.081 43.5943C347.342 42.9725 348.774 41.0105 348.28 39.212C347.785 37.4135 345.551 36.4595 343.29 37.0813C341.029 37.703 339.597 39.6651 340.091 41.4636Z" fill="#2A5EBC"/>
<path d="M253.94 97.383C254.945 101.04 259.484 102.98 264.077 101.717C268.671 100.454 271.579 96.4659 270.574 92.8092C269.568 89.1525 265.029 87.212 260.436 88.475C255.843 89.738 252.934 93.7263 253.94 97.383Z" fill="#2A5EBC"/>
<path d="M172.363 132.649C171.91 136.979 173.575 140.702 176.08 140.964C178.586 141.225 180.984 137.927 181.436 133.597C181.889 129.267 180.224 125.545 177.719 125.283C175.213 125.021 172.815 128.319 172.363 132.649Z" fill="#2A5EBC"/>
<path d="M178.94 124.293C180.945 125.93 183.436 126.198 184.503 124.891C185.57 123.585 184.81 121.198 182.804 119.56C180.799 117.923 178.308 117.655 177.241 118.961C176.174 120.268 176.934 122.655 178.94 124.293Z" fill="#2A5EBC"/>
<path d="M190.425 304.518C190.12 307.443 191.245 309.958 192.938 310.135C194.632 310.312 196.252 308.084 196.558 305.159C196.864 302.233 195.739 299.719 194.045 299.542C192.352 299.365 190.731 301.593 190.425 304.518Z" fill="#2A5EBC"/>
<path d="M260.23 130.771C260.416 132.596 261.475 133.983 262.595 133.869C263.716 133.754 264.473 132.183 264.287 130.358C264.101 128.533 263.043 127.146 261.922 127.26C260.802 127.374 260.044 128.946 260.23 130.771Z" fill="#2A5EBC"/>
<path d="M264.309 127.134C265.944 127.44 267.699 125.396 268.227 122.57C268.755 119.743 267.857 117.204 266.221 116.899C264.586 116.593 262.831 118.636 262.303 121.463C261.775 124.289 262.673 126.828 264.309 127.134Z" fill="#2A5EBC"/>
<path d="M347.049 196.914C347.593 198.864 350.21 199.836 352.894 199.087C355.577 198.337 357.311 196.149 356.767 194.2C356.222 192.251 353.606 191.278 350.922 192.028C348.238 192.777 346.504 194.965 347.049 196.914Z" fill="#2A5EBC"/>
<path d="M339.728 201.449C342.39 202.311 345.513 200.028 346.704 196.35C347.895 192.673 346.703 188.992 344.041 188.13C341.38 187.268 338.256 189.551 337.065 193.229C335.874 196.907 337.066 200.587 339.728 201.449Z" fill="#2A5EBC"/>
<path d="M194.011 132.384C196.763 133.614 199.572 133.32 200.284 131.726C200.996 130.133 199.343 127.844 196.59 126.614C193.838 125.384 191.03 125.678 190.318 127.271C189.605 128.865 191.259 131.154 194.011 132.384Z" fill="#2A5EBC"/>
<path d="M201.804 150.3C203.746 152.144 206.407 152.494 207.747 151.083C209.087 149.671 208.6 147.032 206.658 145.188C204.716 143.344 202.055 142.994 200.714 144.405C199.374 145.817 199.862 148.456 201.804 150.3Z" fill="#2A5EBC"/>
<path d="M192.873 140.316C193.505 143.066 197.096 144.587 200.894 143.715C204.692 142.843 207.259 139.907 206.627 137.157C205.996 134.408 202.405 132.886 198.607 133.758C194.809 134.63 192.242 137.566 192.873 140.316Z" fill="#2A5EBC"/>
<path d="M242.934 193.684C243.5 195.708 246.212 196.719 248.992 195.942C251.773 195.166 253.569 192.896 253.003 190.872C252.438 188.848 249.726 187.837 246.945 188.613C244.165 189.39 242.369 191.66 242.934 193.684Z" fill="#2A5EBC"/>
<path d="M254.787 197.436C256.592 199.351 259.069 199.947 260.319 198.769C261.569 197.59 261.12 195.082 259.314 193.167C257.509 191.253 255.032 190.656 253.782 191.835C252.532 193.014 252.982 195.521 254.787 197.436Z" fill="#2A5EBC"/>
<path d="M372.903 29.425C376.719 31.9616 381.302 31.7764 383.14 29.0113C384.978 26.2462 383.375 21.9483 379.56 19.4117C375.744 16.8751 371.161 17.0604 369.322 19.8254C367.484 22.5905 369.087 26.8884 372.903 29.425Z" fill="#2A5EBC"/>
<path d="M359.369 16.9316C360.03 19.2984 363.216 20.477 366.485 19.564C369.754 18.6511 371.868 15.9924 371.207 13.6256C370.546 11.2588 367.36 10.0803 364.091 10.9932C360.822 11.9061 358.708 14.5649 359.369 16.9316Z" fill="#2A5EBC"/>
<path d="M301.279 123.178C303.095 125.104 305.585 125.705 306.84 124.521C308.096 123.337 307.642 120.816 305.826 118.89C304.011 116.964 301.521 116.363 300.265 117.547C299.009 118.731 299.463 121.252 301.279 123.178Z" fill="#2A5EBC"/>
<path d="M232.333 60.508C232.982 62.8301 236.097 63.9893 239.291 63.0971C242.485 62.205 244.549 59.5994 243.9 57.2774C243.252 54.9553 240.137 53.7961 236.942 54.6882C233.748 55.5804 231.685 58.186 232.333 60.508Z" fill="#2A5EBC"/>
<path d="M224.282 65.8171C227.363 66.815 230.979 64.171 232.359 59.9114C233.739 55.6518 232.359 51.3897 229.277 50.3917C226.196 49.3937 222.579 52.0378 221.2 56.2974C219.82 60.557 221.2 64.8191 224.282 65.8171Z" fill="#2A5EBC"/>
<path d="M246.885 65.234C249.083 67.5654 252.098 68.2932 253.618 66.8596C255.139 65.4261 254.59 62.374 252.391 60.0426C250.193 57.7112 247.179 56.9834 245.658 58.4169C244.138 59.8505 244.687 62.9026 246.885 65.234Z" fill="#2A5EBC"/>
<path d="M105.348 190.902C106.997 191.2 108.727 189.265 109.212 186.581C109.697 183.896 108.754 181.478 107.105 181.18C105.456 180.882 103.726 182.817 103.241 185.501C102.756 188.186 103.699 190.604 105.348 190.902Z" fill="#2A5EBC"/>
<path d="M89.127 207.886C89.7998 209.484 92.4529 209.892 95.0529 208.797C97.653 207.702 99.2153 205.519 98.5425 203.921C97.8697 202.324 95.2166 201.916 92.6165 203.011C90.0165 204.105 88.4542 206.288 89.127 207.886Z" fill="#2A5EBC"/>
<path d="M129.589 228.006C129.29 230.858 130.387 233.31 132.039 233.482C133.69 233.655 135.27 231.483 135.568 228.631C135.866 225.779 134.769 223.327 133.118 223.154C131.467 222.982 129.887 225.154 129.589 228.006Z" fill="#2A5EBC"/>
<path d="M146.606 239.4C147.197 243.873 149.747 247.226 152.302 246.888C154.858 246.551 156.45 242.651 155.859 238.178C155.268 233.704 152.718 230.351 150.163 230.689C147.607 231.026 146.015 234.926 146.606 239.4Z" fill="#2A5EBC"/>
<path d="M138.19 210.643C142.084 212.305 145.983 211.913 146.899 209.767C147.815 207.621 145.402 204.533 141.508 202.871C137.614 201.209 133.715 201.602 132.799 203.748C131.883 205.894 134.297 208.981 138.19 210.643Z" fill="#2A5EBC"/>
<path d="M99.0214 228.034C99.6327 229.486 101.753 229.978 103.757 229.134C105.762 228.29 106.891 226.429 106.28 224.978C105.669 223.526 103.548 223.033 101.544 223.877C99.5396 224.721 98.4102 226.582 99.0214 228.034Z" fill="#2A5EBC"/>
<path d="M37.3 208.43C37.9443 209.96 40.1782 210.479 42.2896 209.59C44.401 208.701 45.5903 206.74 44.9461 205.21C44.3018 203.68 42.0679 203.16 39.9565 204.049C37.8451 204.939 36.6558 206.9 37.3 208.43Z" fill="#2A5EBC"/>
<path d="M146.486 223.651C147.36 226.276 149.429 227.951 151.107 227.392C152.785 226.833 153.436 224.252 152.562 221.627C151.687 219.001 149.618 217.327 147.94 217.885C146.262 218.444 145.611 221.026 146.486 223.651Z" fill="#2A5EBC"/>
<path d="M133.236 111.829C133.795 116.064 136.211 119.239 138.632 118.919C141.053 118.599 142.562 114.906 142.002 110.671C141.443 106.435 139.027 103.261 136.606 103.581C134.185 103.901 132.676 107.593 133.236 111.829Z" fill="#2A5EBC"/>
<path d="M132.566 95.27C133.573 98.2916 135.954 100.22 137.885 99.5762C139.817 98.9329 140.566 95.9618 139.56 92.9402C138.553 89.9186 136.171 87.9906 134.24 88.6339C132.309 89.2773 131.56 92.2483 132.566 95.27Z" fill="#2A5EBC"/>
<path d="M119.141 193.711C119.432 196.708 123.468 198.768 128.156 198.312C132.843 197.856 136.407 195.057 136.116 192.06C135.824 189.064 131.788 187.004 127.1 187.46C122.413 187.916 118.849 190.715 119.141 193.711Z" fill="#2A5EBC"/>
<path d="M135.41 240.897C137.533 242.63 140.17 242.912 141.301 241.527C142.431 240.143 141.628 237.615 139.506 235.882C137.383 234.149 134.746 233.867 133.615 235.252C132.485 236.637 133.288 239.164 135.41 240.897Z" fill="#2A5EBC"/>
<path d="M60.7065 217.799C61.4739 219.622 63.9522 220.318 66.2419 219.353C68.5316 218.389 69.7657 216.13 68.9983 214.308C68.2309 212.485 65.7526 211.789 63.4629 212.754C61.1731 213.718 59.939 215.977 60.7065 217.799Z" fill="#2A5EBC"/>
<path d="M167.484 242.116C169.136 242.51 171.029 240.514 171.711 237.657C172.393 234.8 171.606 232.165 169.953 231.77C168.301 231.376 166.409 233.372 165.727 236.229C165.045 239.086 165.831 241.722 167.484 242.116Z" fill="#2A5EBC"/>
<path d="M140.858 268.281C141.583 272.02 144.105 274.675 146.491 274.212C148.876 273.75 150.223 270.344 149.498 266.606C148.773 262.868 146.251 260.212 143.865 260.675C141.48 261.138 140.133 264.543 140.858 268.281Z" fill="#2A5EBC"/>
<path d="M39.1425 129.852C39.262 133.708 41.397 136.771 43.9112 136.694C46.4254 136.616 48.3667 133.426 48.2472 129.57C48.1277 125.714 45.9927 122.65 43.4785 122.728C40.9643 122.806 39.023 125.996 39.1425 129.852Z" fill="#2A5EBC"/>
<path d="M34.216 120.223C34.996 124.164 37.6693 126.955 40.1868 126.457C42.7043 125.959 44.1128 122.36 43.3328 118.419C42.5527 114.478 39.8795 111.687 37.362 112.185C34.8445 112.684 33.4359 116.282 34.216 120.223Z" fill="#2A5EBC"/>
<path d="M53.6539 179.248C53.7689 182.958 55.8218 185.904 58.2393 185.829C60.6568 185.754 62.5234 182.686 62.4085 178.977C62.2935 175.268 60.2406 172.321 57.8231 172.396C55.4056 172.471 53.539 175.539 53.6539 179.248Z" fill="#2A5EBC"/>
<path d="M46.9376 168.876C47.6611 172.606 50.1785 175.256 52.5605 174.794C54.9426 174.332 56.2871 170.934 55.5636 167.203C54.8402 163.472 52.3227 160.822 49.9406 161.284C47.5586 161.746 46.2141 165.145 46.9376 168.876Z" fill="#2A5EBC"/>
<path d="M163.181 283.284C165.942 286.212 169.73 287.125 171.642 285.323C173.554 283.52 172.865 279.685 170.104 276.757C167.344 273.828 163.555 272.916 161.644 274.718C159.732 276.521 160.42 280.356 163.181 283.284Z" fill="#2A5EBC"/>
<path d="M17.159 140.616C16.8485 143.588 17.9915 146.142 19.712 146.322C21.4324 146.502 23.0789 144.239 23.3893 141.268C23.6998 138.296 22.5568 135.742 20.8363 135.562C19.1158 135.382 17.4694 137.645 17.159 140.616Z" fill="#2A5EBC"/>
<path d="M14.6531 128.266C14.3386 131.276 15.4971 133.864 17.2407 134.046C18.9842 134.228 20.6526 131.936 20.9671 128.926C21.2816 125.916 20.1231 123.329 18.3796 123.146C16.636 122.964 14.9676 125.256 14.6531 128.266Z" fill="#2A5EBC"/>
<path d="M7.73749 154.305C8.51783 156.648 10.3618 158.143 11.8561 157.645C13.3504 157.147 13.9291 154.845 13.1488 152.503C12.3684 150.16 10.5245 148.665 9.03023 149.163C7.53593 149.66 6.95715 151.963 7.73749 154.305Z" fill="#2A5EBC"/>
<path d="M50.7015 215.623C51.1314 217.186 53.5459 217.885 56.0944 217.185C58.6429 216.484 60.3603 214.648 59.9304 213.085C59.5005 211.521 57.0861 210.822 54.5376 211.523C51.9891 212.224 50.2716 214.059 50.7015 215.623Z" fill="#2A5EBC"/>
<path d="M28.6716 169.078C30.3504 169.478 32.2722 167.454 32.964 164.555C33.6558 161.657 32.8557 158.982 31.177 158.582C29.4982 158.181 27.5764 160.206 26.8846 163.104C26.1928 166.002 26.9928 168.677 28.6716 169.078Z" fill="#2A5EBC"/>
<path d="M11.0046 215.47C12.8667 218.809 15.9845 220.619 17.9685 219.513C19.9525 218.407 20.0514 214.803 18.1893 211.464C16.3272 208.124 13.2094 206.314 11.2254 207.42C9.24138 208.527 9.14254 212.13 11.0046 215.47Z" fill="#2A5EBC"/>
<path d="M34.4829 187.814C38.0147 193.561 43.465 196.629 46.6564 194.668C49.8479 192.706 49.572 186.458 46.0401 180.711C42.5083 174.964 37.058 171.896 33.8666 173.857C30.6751 175.819 30.9511 182.067 34.4829 187.814Z" fill="#2A5EBC"/>
<path d="M59.8842 198.952C60.3459 200.631 62.5987 201.476 64.9158 200.839C67.233 200.202 68.7371 198.324 68.2754 196.645C67.8137 194.966 65.561 194.121 63.2438 194.758C60.9267 195.396 59.4225 197.273 59.8842 198.952Z" fill="#2A5EBC"/>
<path d="M24.7247 222.97C24.6499 225.217 27.4394 227.133 30.9551 227.25C34.4709 227.367 37.3816 225.64 37.4563 223.393C37.5311 221.146 34.7416 219.229 31.2258 219.113C27.7101 218.996 24.7994 220.722 24.7247 222.97Z" fill="#2A5EBC"/>
<path d="M39.5124 224.288C40.2573 226.997 43.6229 228.433 47.0296 227.497C50.4363 226.56 52.5941 223.604 51.8493 220.895C51.1044 218.186 47.7388 216.75 44.3321 217.686C40.9254 218.623 38.7675 221.579 39.5124 224.288Z" fill="#2A5EBC"/>
<path d="M214.311 128.351C214.238 130.532 216.945 132.392 220.356 132.506C223.767 132.619 226.592 130.943 226.664 128.762C226.737 126.58 224.03 124.72 220.619 124.606C217.207 124.493 214.383 126.169 214.311 128.351Z" fill="#2A5EBC"/>
<path d="M228.815 129.688C229.574 132.449 233.003 133.914 236.473 132.959C239.943 132.005 242.141 128.993 241.382 126.232C240.622 123.471 237.194 122.006 233.723 122.96C230.253 123.914 228.056 126.926 228.815 129.688Z" fill="#2A5EBC"/>
<path d="M189.05 273.973C188.981 276.058 191.565 277.836 194.821 277.944C198.078 278.053 200.774 276.45 200.844 274.366C200.913 272.281 198.329 270.503 195.072 270.395C191.816 270.287 189.12 271.889 189.05 273.973Z" fill="#2A5EBC"/>
<path d="M201.736 274.967C202.475 277.654 205.814 279.078 209.195 278.148C212.575 277.219 214.717 274.287 213.978 271.601C213.24 268.914 209.9 267.49 206.52 268.42C203.139 269.349 200.997 272.281 201.736 274.967Z" fill="#2A5EBC"/>
<path d="M19.6136 186.875C21.5064 188.882 24.1022 189.509 25.4115 188.275C26.7208 187.04 26.2477 184.412 24.3549 182.404C22.4621 180.397 19.8662 179.77 18.557 181.005C17.2477 182.239 17.7207 184.867 19.6136 186.875Z" fill="#2A5EBC"/>
<path d="M72.2886 197.93C73.8737 198.428 75.817 196.737 76.6291 194.153C77.4412 191.569 76.8145 189.07 75.2294 188.572C73.6443 188.074 71.701 189.765 70.8889 192.349C70.0768 194.933 70.7035 197.432 72.2886 197.93Z" fill="#2A5EBC"/>
<path d="M87.969 175.547C88.4451 177.278 91.1178 178.053 93.9387 177.277C96.7596 176.502 98.6604 174.469 98.1844 172.738C97.7083 171.007 95.0356 170.232 92.2147 171.008C89.3938 171.783 87.493 173.816 87.969 175.547Z" fill="#2A5EBC"/>
<path d="M36.7972 157.737C37.8488 159.623 39.6083 160.646 40.7271 160.022C41.8458 159.398 41.9002 157.364 40.8485 155.478C39.7969 153.592 38.0374 152.569 36.9186 153.193C35.7999 153.816 35.7455 155.851 36.7972 157.737Z" fill="#2A5EBC"/>
<path d="M30.5586 146.932C31.2681 150.591 33.7372 153.189 36.0737 152.736C38.4101 152.283 39.729 148.95 39.0196 145.291C38.3101 141.633 35.8409 139.034 33.5045 139.488C31.168 139.941 29.8492 143.274 30.5586 146.932Z" fill="#2A5EBC"/>
<path d="M61.737 180.548C61.6712 182.525 64.1231 184.21 67.2134 184.313C70.3037 184.416 72.8622 182.897 72.928 180.92C72.9937 178.944 70.5418 177.259 67.4515 177.156C64.3612 177.053 61.8027 178.572 61.737 180.548Z" fill="#2A5EBC"/>
<path d="M94.6089 189.422C95.1034 191.221 97.3374 192.175 99.5986 191.553C101.86 190.931 103.292 188.969 102.797 187.171C102.303 185.372 100.069 184.418 97.8077 185.04C95.5465 185.662 94.1143 187.624 94.6089 189.422Z" fill="#2A5EBC"/>
</svg>
