<svg width="170" height="416" viewBox="0 0 170 416" fill="none" xmlns="http://www.w3.org/2000/svg">
<g clip-path="url(#clip0_1_1335)">
<path d="M174.395 356.769C176.042 355.7 176.179 352.992 174.701 350.72C173.222 348.448 170.689 347.473 169.042 348.542C167.394 349.611 167.258 352.319 168.736 354.591C170.215 356.863 172.748 357.838 174.395 356.769Z" fill="white"/>
<path d="M92.1842 316.366C93.7953 315.698 94.4966 313.702 93.7506 311.908C93.0047 310.114 91.0941 309.201 89.483 309.87C87.872 310.538 87.1707 312.533 87.9166 314.327C88.6625 316.121 90.5732 317.034 92.1842 316.366Z" fill="white"/>
<path d="M69.4611 9.34725C70.2266 6.71579 69.5343 4.20165 67.9148 3.73176C66.2952 3.26188 64.3617 5.01418 63.5962 7.64563C62.8307 10.2771 63.523 12.7912 65.1425 13.2611C66.762 13.731 68.6955 11.9787 69.4611 9.34725Z" fill="white"/>
<path d="M104.132 23.8383C107.857 23.8383 110.876 22.1637 110.876 20.0979C110.876 18.0321 107.857 16.3574 104.132 16.3574C100.408 16.3574 97.3892 18.0321 97.3892 20.0979C97.3892 22.1637 100.408 23.8383 104.132 23.8383Z" fill="white"/>
<path d="M121.178 23.9828C123.271 20.8229 123.326 17.1771 121.302 15.8398C119.277 14.5025 115.939 15.98 113.846 19.14C111.754 22.3 111.698 25.9457 113.723 27.2831C115.748 28.6204 119.086 27.1428 121.178 23.9828Z" fill="white"/>
<path d="M42.2848 5.18922C42.948 2.90936 42.0135 0.634052 40.1976 0.107176C38.3816 -0.419701 36.3719 1.00137 35.7086 3.28123C35.0454 5.56108 35.9798 7.83639 37.7958 8.36327C39.6117 8.89014 41.6215 7.46907 42.2848 5.18922Z" fill="white"/>
<path d="M76.9229 7.99292C78.4276 7.01631 78.5529 4.54276 77.2027 2.46808C75.8526 0.393406 73.5383 -0.49676 72.0336 0.479843C70.5289 1.45645 70.4036 3.93 71.7537 6.00467C73.1039 8.07935 75.4182 8.96952 76.9229 7.99292Z" fill="white"/>
<path d="M74.9737 92.1944C75.787 90.6707 74.511 88.4053 72.1236 87.1344C69.7363 85.8635 67.1417 86.0685 66.3284 87.5922C65.5151 89.1158 66.7911 91.3813 69.1784 92.6521C71.5658 93.923 74.1604 93.7181 74.9737 92.1944Z" fill="white"/>
<path d="M147.999 375.38C149.565 371.807 149.053 368.131 146.854 367.169C144.655 366.208 141.602 368.324 140.036 371.897C138.469 375.47 138.981 379.146 141.18 380.107C143.379 381.069 146.432 378.952 147.999 375.38Z" fill="white"/>
<path d="M124.902 370.506C125.897 368.236 125.368 365.812 123.721 365.091C122.074 364.371 119.931 365.627 118.936 367.897C117.94 370.167 118.469 372.591 120.116 373.312C121.764 374.032 123.906 372.776 124.902 370.506Z" fill="white"/>
<path d="M172.016 362.509C172.959 360.359 172.333 358.008 170.619 357.258C168.904 356.508 166.75 357.643 165.807 359.793C164.864 361.943 165.49 364.294 167.204 365.044C168.919 365.794 171.073 364.659 172.016 362.509Z" fill="white"/>
<path d="M76.9488 242.388C78.2209 241.294 77.8049 238.729 76.0195 236.658C74.2342 234.587 71.7556 233.795 70.4834 234.889C69.2112 235.983 69.6273 238.549 71.4126 240.619C73.198 242.69 75.6766 243.482 76.9488 242.388Z" fill="white"/>
<path d="M99.0331 298.478C99.874 295.588 99.1136 292.826 97.3347 292.31C95.5558 291.794 93.4321 293.719 92.5912 296.609C91.7503 299.5 92.5107 302.262 94.2896 302.778C96.0684 303.294 98.1922 301.369 99.0331 298.478Z" fill="white"/>
<path d="M180.151 300.03C181.832 298.352 180.841 294.64 177.937 291.74C175.034 288.841 171.317 287.851 169.636 289.53C167.955 291.209 168.946 294.92 171.85 297.82C174.753 300.719 178.47 301.709 180.151 300.03Z" fill="white"/>
<path d="M189.388 193.874C191.923 191.342 190.428 185.744 186.048 181.37C181.668 176.996 176.062 175.502 173.527 178.034C170.992 180.566 172.487 186.164 176.867 190.538C181.247 194.912 186.853 196.405 189.388 193.874Z" fill="white"/>
<path d="M162.325 259.591C162.381 258.281 160.635 257.144 158.425 257.051C156.216 256.957 154.38 257.942 154.324 259.252C154.268 260.561 156.014 261.698 158.224 261.792C160.433 261.885 162.269 260.9 162.325 259.591Z" fill="white"/>
<path d="M118.45 308.947C119.138 306.582 118.305 304.261 116.589 303.763C114.873 303.265 112.924 304.779 112.236 307.144C111.548 309.509 112.382 311.83 114.097 312.328C115.813 312.826 117.762 311.312 118.45 308.947Z" fill="white"/>
<path d="M153.506 262.548C154.723 259.315 151.604 255.154 146.539 253.253C141.474 251.351 136.382 252.431 135.165 255.663C133.949 258.896 137.068 263.057 142.133 264.958C147.198 266.86 152.29 265.78 153.506 262.548Z" fill="white"/>
<path d="M111.264 271.506C113.054 268.803 113.102 265.684 111.37 264.54C109.638 263.396 106.783 264.661 104.992 267.364C103.202 270.068 103.154 273.187 104.886 274.33C106.618 275.474 109.473 274.21 111.264 271.506Z" fill="white"/>
<path d="M114.064 293.674C115.792 292.552 115.933 289.707 114.378 287.319C112.824 284.931 110.164 283.904 108.436 285.026C106.708 286.147 106.567 288.992 108.121 291.381C109.675 293.769 112.336 294.796 114.064 293.674Z" fill="white"/>
<path d="M118.43 325.302C120.436 323.577 119.782 319.534 116.97 316.272C114.157 313.009 110.25 311.763 108.244 313.489C106.238 315.214 106.892 319.257 109.705 322.519C112.517 325.781 116.424 327.028 118.43 325.302Z" fill="white"/>
<path d="M98.8341 326.423C100.711 325.205 100.872 322.127 99.1937 319.548C97.5155 316.97 94.6335 315.867 92.7567 317.085C90.8799 318.303 90.7189 321.381 92.3971 323.96C94.0753 326.538 96.9572 327.641 98.8341 326.423Z" fill="white"/>
<path d="M155.304 357.011C159.132 357.011 162.236 355.289 162.236 353.166C162.236 351.042 159.132 349.321 155.304 349.321C151.476 349.321 148.372 351.042 148.372 353.166C148.372 355.289 151.476 357.011 155.304 357.011Z" fill="white"/>
<path d="M136.004 354.474C136.64 352.287 135.87 350.14 134.284 349.68C132.697 349.22 130.896 350.62 130.259 352.807C129.623 354.995 130.393 357.141 131.979 357.601C133.566 358.061 135.367 356.661 136.004 354.474Z" fill="white"/>
<path d="M127.071 323.202C129.094 320.154 129.152 316.636 127.201 315.345C125.251 314.054 122.029 315.479 120.007 318.527C117.984 321.576 117.925 325.094 119.876 326.385C121.827 327.676 125.048 326.251 127.071 323.202Z" fill="white"/>
<path d="M136.583 345.192C138.266 344.112 138.417 341.352 136.921 339.028C135.424 336.703 132.847 335.694 131.165 336.774C129.482 337.855 129.331 340.615 130.828 342.939C132.324 345.264 134.901 346.272 136.583 345.192Z" fill="white"/>
<path d="M157.963 348.139C160.812 347.548 162.808 345.563 162.422 343.707C162.036 341.85 159.413 340.824 156.564 341.416C153.715 342.007 151.718 343.991 152.105 345.848C152.491 347.704 155.114 348.73 157.963 348.139Z" fill="white"/>
<path d="M170.045 267.654C171.489 266.545 171.104 263.625 169.185 261.132C167.265 258.639 164.539 257.516 163.095 258.625C161.65 259.733 162.036 262.653 163.955 265.147C165.874 267.64 168.601 268.763 170.045 267.654Z" fill="white"/>
<path d="M83.7184 303.359C85.1285 302.435 85.0513 299.829 83.546 297.538C82.0408 295.247 79.6774 294.139 78.2673 295.062C76.8573 295.986 76.9344 298.593 78.4397 300.884C79.945 303.175 82.3083 304.283 83.7184 303.359Z" fill="white"/>
<path d="M75.0274 283.19C77.3713 277.845 76.6062 272.346 73.3185 270.908C70.0309 269.471 65.4656 272.638 63.1217 277.983C60.7778 283.328 61.5429 288.827 64.8306 290.264C68.1183 291.702 72.6836 288.535 75.0274 283.19Z" fill="white"/>
<path d="M81.6737 292.205C82.5809 290.136 81.9809 287.875 80.3335 287.154C78.6861 286.434 76.6152 287.527 75.708 289.596C74.8008 291.665 75.4008 293.926 77.0482 294.646C78.6956 295.367 80.7665 294.274 81.6737 292.205Z" fill="white"/>
<path d="M181.631 228.752C183.509 227.138 182.897 223.355 180.266 220.303C177.635 217.251 173.979 216.086 172.102 217.7C170.224 219.314 170.835 223.097 173.467 226.149C176.098 229.202 179.754 230.367 181.631 228.752Z" fill="white"/>
<path d="M97.7137 64.8323C98.9826 63.5651 98.2349 60.7637 96.0436 58.5754C93.8522 56.387 91.0472 55.6402 89.7782 56.9075C88.5093 58.1747 89.257 60.9761 91.4483 63.1645C93.6396 65.3528 96.4447 66.0996 97.7137 64.8323Z" fill="white"/>
<path d="M105.736 70.0176C106.337 68.4194 104.795 66.362 102.292 65.4223C99.7883 64.4826 97.2713 65.0164 96.6697 66.6146C96.0682 68.2128 97.61 70.2702 100.113 71.2099C102.617 72.1496 105.134 71.6158 105.736 70.0176Z" fill="white"/>
<path d="M71.534 22.7291C72.9476 21.6439 72.572 18.7875 70.6951 16.3491C68.8181 13.9107 66.1507 12.8138 64.7371 13.899C63.3235 14.9841 63.6991 17.8406 65.576 20.2789C67.453 22.7173 70.1204 23.8143 71.534 22.7291Z" fill="white"/>
<path d="M47.0132 52.2674C48.8299 51.077 48.7304 47.7192 46.7911 44.7675C44.8518 41.8158 41.8071 40.3879 39.9904 41.5783C38.1738 42.7686 38.2732 46.1264 40.2125 49.0781C42.1518 52.0298 45.1966 53.4577 47.0132 52.2674Z" fill="white"/>
<path d="M108.353 339.211C109.025 336.902 108.212 334.636 106.536 334.15C104.861 333.664 102.959 335.142 102.287 337.451C101.615 339.761 102.428 342.027 104.103 342.513C105.779 342.999 107.681 341.521 108.353 339.211Z" fill="white"/>
<path d="M103.25 348.928C104.65 348.011 104.572 345.42 103.075 343.142C101.579 340.863 99.23 339.76 97.8296 340.678C96.4292 341.596 96.5074 344.186 98.0042 346.465C99.501 348.743 101.85 349.846 103.25 348.928Z" fill="white"/>
<path d="M18.0032 112.118C19.5576 110.925 19.1435 107.782 17.0784 105.1C15.0133 102.417 12.0792 101.209 10.5249 102.402C8.97054 103.596 9.3846 106.738 11.4497 109.421C13.5148 112.103 16.4489 113.311 18.0032 112.118Z" fill="white"/>
<path d="M31.0331 100.403C31.3424 98.0417 28.1373 95.6759 23.8743 95.1192C19.6114 94.5625 15.9049 96.0258 15.5957 98.3875C15.2865 100.749 18.4915 103.115 22.7545 103.672C27.0174 104.228 30.7239 102.765 31.0331 100.403Z" fill="white"/>
<path d="M128.221 342.202C130.068 337.991 129.09 333.493 126.035 332.158C122.981 330.822 119.008 333.153 117.161 337.365C115.314 341.577 116.293 346.074 119.347 347.41C122.401 348.746 126.374 346.414 128.221 342.202Z" fill="white"/>
<path d="M118.397 357.926C120.73 356.811 121.37 353.298 119.828 350.078C118.285 346.859 115.144 345.153 112.811 346.267C110.479 347.382 109.839 350.895 111.381 354.114C112.923 357.334 116.065 359.04 118.397 357.926Z" fill="white"/>
<path d="M125.81 141.474C127.123 138.481 126.428 135.284 124.257 134.335C122.087 133.386 119.263 135.043 117.95 138.037C116.637 141.03 117.332 144.227 119.503 145.176C121.674 146.126 124.497 144.468 125.81 141.474Z" fill="white"/>
<path d="M147.142 95.2756C148.455 92.2818 147.759 89.0853 145.589 88.136C143.418 87.1867 140.594 88.8441 139.282 91.8379C137.969 94.8317 138.664 98.0282 140.835 98.9775C143.005 99.9268 145.829 98.2694 147.142 95.2756Z" fill="white"/>
<path d="M171.124 245.411C174.663 245.411 177.532 243.821 177.532 241.859C177.532 239.898 174.663 238.307 171.124 238.307C167.586 238.307 164.717 239.898 164.717 241.859C164.717 243.821 167.586 245.411 171.124 245.411Z" fill="white"/>
<path d="M103.729 146.286C105.411 145.661 106.462 144.317 106.078 143.284C105.693 142.251 104.018 141.92 102.336 142.544C100.654 143.169 99.6019 144.513 99.9867 145.546C100.371 146.579 102.047 146.911 103.729 146.286Z" fill="white"/>
<path d="M120.341 52.3681C121.179 50.7968 119.863 48.4604 117.401 47.1496C114.939 45.8389 112.263 46.0501 111.424 47.6214C110.585 49.1926 111.901 51.529 114.364 52.8398C116.826 54.1505 119.502 53.9393 120.341 52.3681Z" fill="white"/>
<path d="M133.784 271.256C134.726 269.109 134.225 266.816 132.666 266.135C131.107 265.453 129.08 266.64 128.139 268.787C127.198 270.933 127.698 273.226 129.257 273.908C130.816 274.59 132.843 273.402 133.784 271.256Z" fill="white"/>
<path d="M110.541 254.67C110.762 253.402 109.206 252.072 107.065 251.699C104.925 251.327 103.01 252.053 102.789 253.321C102.568 254.59 104.124 255.92 106.264 256.292C108.405 256.664 110.32 255.938 110.541 254.67Z" fill="white"/>
<path d="M121.501 249.442C123.64 246.978 124.095 243.874 122.518 242.508C120.94 241.142 117.928 242.032 115.789 244.495C113.65 246.959 113.195 250.063 114.772 251.429C116.349 252.795 119.362 251.905 121.501 249.442Z" fill="white"/>
<path d="M109.73 250.423C112.286 249.202 112.986 245.351 111.296 241.822C109.605 238.294 106.163 236.423 103.608 237.644C101.052 238.865 100.352 242.715 102.042 246.244C103.733 249.773 107.175 251.644 109.73 250.423Z" fill="white"/>
<path d="M105.423 111.796C106.118 109.141 103.702 106.212 100.028 105.253C96.354 104.295 92.8124 105.67 92.118 108.325C91.4235 110.98 93.839 113.91 97.5132 114.868C101.187 115.827 104.729 114.451 105.423 111.796Z" fill="white"/>
<path d="M166.331 144.151C166.552 142.883 164.996 141.553 162.856 141.181C160.715 140.808 158.801 141.534 158.58 142.803C158.358 144.071 159.914 145.401 162.055 145.773C164.195 146.145 166.11 145.419 166.331 144.151Z" fill="white"/>
<path d="M155.365 148.298C157.607 145.715 158.085 142.461 156.432 141.029C154.779 139.597 151.621 140.531 149.378 143.113C147.135 145.696 146.658 148.95 148.311 150.382C149.964 151.814 153.122 150.881 155.365 148.298Z" fill="white"/>
<path d="M144.223 149.819C146.827 148.575 147.541 144.652 145.819 141.057C144.097 137.463 140.589 135.557 137.985 136.801C135.381 138.046 134.667 141.969 136.389 145.563C138.111 149.158 141.619 151.064 144.223 149.819Z" fill="white"/>
<path d="M147.25 118.68C149.819 117.452 150.525 113.582 148.826 110.036C147.127 106.49 143.667 104.61 141.098 105.838C138.528 107.065 137.823 110.935 139.522 114.482C141.221 118.028 144.681 119.907 147.25 118.68Z" fill="white"/>
<path d="M52.9394 205.156C52.9482 203.36 50.5839 201.892 47.6586 201.878C44.7333 201.864 42.3548 203.308 42.346 205.104C42.3372 206.9 44.7015 208.367 47.6268 208.382C50.5521 208.396 52.9306 206.952 52.9394 205.156Z" fill="white"/>
<path d="M96.0195 185.264C97.6026 184.245 97.5403 181.334 95.8803 178.762C94.2204 176.189 91.5915 174.93 90.0084 175.949C88.4254 176.968 88.4877 179.879 90.1476 182.451C91.8075 185.023 94.4365 186.283 96.0195 185.264Z" fill="white"/>
<path d="M120.304 181.161C124.489 180.868 127.744 178.671 127.574 176.253C127.405 173.834 123.875 172.111 119.691 172.403C115.506 172.695 112.251 174.893 112.42 177.311C112.589 179.729 116.119 181.453 120.304 181.161Z" fill="white"/>
<path d="M161.541 112.372C162.998 111.434 163.129 109.049 161.835 107.043C160.541 105.038 158.311 104.172 156.855 105.11C155.398 106.047 155.266 108.433 156.561 110.438C157.855 112.443 160.084 113.309 161.541 112.372Z" fill="white"/>
<path d="M85.5721 169.656C87.84 168.432 89.0434 166.266 88.2599 164.819C87.4763 163.371 85.0026 163.189 82.7347 164.414C80.4668 165.638 79.2634 167.804 80.0469 169.251C80.8305 170.699 83.3042 170.881 85.5721 169.656Z" fill="white"/>
<path d="M70.9553 234.521C72.7005 233.398 72.9697 230.712 71.5565 228.522C70.1432 226.332 67.5827 225.467 65.8375 226.591C64.0922 227.714 63.8231 230.4 65.2363 232.59C66.6496 234.78 69.21 235.645 70.9553 234.521Z" fill="white"/>
<path d="M135.36 248.381C136.842 247.43 136.784 244.703 135.232 242.291C133.679 239.879 131.219 238.695 129.738 239.646C128.256 240.598 128.314 243.324 129.867 245.736C131.419 248.148 133.879 249.332 135.36 248.381Z" fill="white"/>
<path d="M134.452 212.667C135.337 208.884 134.361 205.422 132.271 204.935C130.182 204.447 127.77 207.119 126.885 210.902C126 214.685 126.977 218.147 129.066 218.634C131.156 219.122 133.567 216.45 134.452 212.667Z" fill="white"/>
<path d="M163.225 86.7416C166.013 84.9518 166.268 80.3856 163.794 76.5428C161.32 72.6999 157.055 71.0356 154.267 72.8255C151.479 74.6153 151.224 79.1815 153.698 83.0244C156.172 86.8672 160.437 88.5315 163.225 86.7416Z" fill="white"/>
<path d="M119.603 227.78C121.674 227.206 122.624 224.118 121.724 220.883C120.825 217.649 118.417 215.492 116.346 216.067C114.274 216.641 113.324 219.729 114.224 222.963C115.123 226.198 117.532 228.354 119.603 227.78Z" fill="white"/>
<path d="M132.359 224.256C132.609 222.474 130.814 220.749 128.349 220.404C125.883 220.059 123.682 221.224 123.432 223.007C123.182 224.789 124.977 226.514 127.443 226.859C129.908 227.204 132.109 226.039 132.359 224.256Z" fill="white"/>
<path d="M164.185 94.2567C164.465 92.2682 162.46 90.3439 159.708 89.9586C156.957 89.5734 154.5 90.8731 154.22 92.8617C153.941 94.8502 155.946 96.7745 158.697 97.1598C161.449 97.545 163.906 96.2453 164.185 94.2567Z" fill="white"/>
<path d="M179.335 48.7783C179.618 46.7668 177.591 44.8205 174.809 44.431C172.026 44.0414 169.542 45.3563 169.26 47.3677C168.977 49.3791 171.004 51.3255 173.786 51.715C176.569 52.1045 179.053 50.7897 179.335 48.7783Z" fill="white"/>
<path d="M70.251 259.553C72.4295 258.154 72.3455 254.146 70.0636 250.601C67.7816 247.056 64.1657 245.316 61.9872 246.715C59.8087 248.114 59.8926 252.121 62.1746 255.666C64.4566 259.211 68.0725 260.951 70.251 259.553Z" fill="white"/>
<path d="M149.777 171.928C149.881 170.22 147.566 168.691 144.608 168.512C141.649 168.333 139.167 169.573 139.063 171.281C138.96 172.99 141.275 174.519 144.233 174.698C147.192 174.876 149.674 173.636 149.777 171.928Z" fill="white"/>
<path d="M176.934 160.074C177.896 157.517 177.503 155.002 176.054 154.458C174.605 153.915 172.651 155.547 171.688 158.105C170.725 160.663 171.119 163.177 172.568 163.721C174.016 164.265 175.971 162.632 176.934 160.074Z" fill="white"/>
<path d="M62.4183 103.976C63.4876 100.777 61.4581 97.2183 57.8852 96.0272C54.3124 94.8361 50.5493 96.4637 49.48 99.6625C48.4107 102.861 50.4403 106.42 54.0131 107.611C57.5859 108.802 61.3491 107.175 62.4183 103.976Z" fill="white"/>
<path d="M168.42 161.28C171.349 158.689 172.555 155.271 171.115 153.647C169.674 152.023 166.131 152.807 163.202 155.399C160.273 157.99 159.067 161.408 160.507 163.032C161.948 164.656 165.491 163.872 168.42 161.28Z" fill="white"/>
<path d="M92.3628 194.464C95.3236 191.845 96.5434 188.39 95.0872 186.749C93.631 185.107 90.0503 185.9 87.0894 188.52C84.1286 191.14 82.9088 194.594 84.365 196.236C85.8212 197.877 89.402 197.084 92.3628 194.464Z" fill="white"/>
<path d="M176.137 140.734C177.696 139.996 178.134 137.656 177.115 135.507C176.096 133.358 174.006 132.214 172.446 132.951C170.887 133.688 170.45 136.028 171.469 138.177C172.488 140.327 174.578 141.471 176.137 140.734Z" fill="white"/>
<path d="M167.98 178.926C169.713 176.606 169.889 173.81 168.373 172.681C166.857 171.552 164.223 172.517 162.491 174.837C160.758 177.157 160.582 179.954 162.097 181.083C163.613 182.212 166.247 181.246 167.98 178.926Z" fill="white"/>
<path d="M171.758 122.446C171.995 120.705 169.883 118.981 167.042 118.596C164.201 118.21 161.705 119.31 161.469 121.051C161.232 122.793 163.344 124.517 166.185 124.902C169.026 125.287 171.522 124.188 171.758 122.446Z" fill="white"/>
<path d="M179.142 105.203C179.39 103.378 177.176 101.57 174.197 101.166C171.218 100.763 168.602 101.915 168.354 103.741C168.106 105.566 170.32 107.373 173.299 107.777C176.278 108.181 178.894 107.029 179.142 105.203Z" fill="white"/>
<path d="M102.01 283.584C105.944 282.767 108.7 280.028 108.167 277.466C107.634 274.904 104.013 273.489 100.079 274.305C96.1458 275.121 93.3893 277.86 93.9225 280.423C94.4557 282.985 98.0766 284.4 102.01 283.584Z" fill="white"/>
<path d="M92.8573 280.621C93.0914 278.898 91.0057 277.194 88.1987 276.813C85.3918 276.433 82.9265 277.52 82.6924 279.243C82.4583 280.965 84.544 282.67 87.351 283.05C90.1579 283.431 92.6232 282.343 92.8573 280.621Z" fill="white"/>
<path d="M100.485 147.447C100.594 145.639 98.1473 144.02 95.0193 143.831C91.8913 143.642 89.2668 144.955 89.1573 146.763C89.0478 148.571 91.4949 150.19 94.6229 150.379C97.7509 150.567 100.375 149.255 100.485 147.447Z" fill="white"/>
<path d="M102.651 130.941C105.372 128.533 106.493 125.358 105.155 123.85C103.816 122.341 100.525 123.07 97.8042 125.477C95.0831 127.885 93.9623 131.06 95.3007 132.568C96.6392 134.077 99.9301 133.348 102.651 130.941Z" fill="white"/>
<path d="M133.665 173.552C135.975 172.669 137.39 170.757 136.824 169.281C136.259 167.805 133.927 167.325 131.617 168.208C129.307 169.091 127.892 171.003 128.458 172.479C129.023 173.954 131.354 174.435 133.665 173.552Z" fill="white"/>
<path d="M156.193 138.754C158.425 138.439 159.833 135.358 159.339 131.874C158.845 128.39 156.636 125.822 154.404 126.137C152.173 126.453 150.764 129.533 151.258 133.017C151.752 136.501 153.962 139.07 156.193 138.754Z" fill="white"/>
<path d="M173.482 322.071C173.686 320.901 172.252 319.675 170.278 319.332C168.305 318.988 166.54 319.658 166.336 320.828C166.132 321.997 167.566 323.223 169.54 323.567C171.513 323.91 173.278 323.24 173.482 322.071Z" fill="white"/>
<path d="M162.887 326.335C165.18 323.694 165.668 320.366 163.977 318.901C162.286 317.437 159.056 318.391 156.763 321.032C154.47 323.673 153.982 327.001 155.673 328.465C157.364 329.93 160.594 328.976 162.887 326.335Z" fill="white"/>
<path d="M163.617 316.69C165.829 316.377 167.226 313.324 166.736 309.87C166.247 306.417 164.056 303.871 161.844 304.183C159.631 304.496 158.235 307.55 158.724 311.003C159.214 314.457 161.405 317.003 163.617 316.69Z" fill="white"/>
<path d="M136.518 130.145C137.235 127.548 134.904 124.64 131.31 123.65C127.716 122.659 124.221 123.961 123.504 126.558C122.786 129.155 125.117 132.063 128.711 133.054C132.305 134.044 135.8 132.742 136.518 130.145Z" fill="white"/>
<path d="M117.652 152.316C119.168 150.287 119.321 147.84 117.994 146.851C116.667 145.863 114.362 146.707 112.846 148.736C111.33 150.766 111.177 153.213 112.504 154.202C113.831 155.19 116.136 154.346 117.652 152.316Z" fill="white"/>
<path d="M31.8897 79.6896C31.8981 77.9707 29.6336 76.5662 26.8318 76.5525C24.03 76.5388 21.7519 77.9212 21.7435 79.6401C21.7351 81.359 23.9996 82.7636 26.8014 82.7772C29.6031 82.7909 31.8813 81.4085 31.8897 79.6896Z" fill="white"/>
<path d="M49.4254 95.2156C50.7554 94.3596 50.7032 91.914 49.3087 89.7532C47.9143 87.5923 45.7057 86.5346 44.3757 87.3906C43.0457 88.2466 43.0979 90.6922 44.4923 92.853C45.8867 95.0138 48.0953 96.0716 49.4254 95.2156Z" fill="white"/>
<path d="M92.1242 43.4645C95.1463 43.2535 97.4972 41.6674 97.375 39.9219C97.2527 38.1764 94.7037 36.9325 91.6816 37.1435C88.6595 37.3545 86.3086 38.9406 86.4308 40.6861C86.5531 42.4316 89.1021 43.6756 92.1242 43.4645Z" fill="white"/>
<path d="M77.0958 59.6839C77.9518 56.0247 77.0098 52.6766 74.9917 52.2058C72.9736 51.7349 70.6437 54.3196 69.7877 57.9788C68.9316 61.638 69.8736 64.9861 71.8917 65.4569C73.9098 65.9278 76.2397 63.3431 77.0958 59.6839Z" fill="white"/>
<path d="M49.7835 76.6582C52.2722 74.0328 53.0241 70.7081 51.463 69.2323C49.9019 67.7565 46.619 68.6884 44.1304 71.3138C41.6418 73.9392 40.8898 77.2638 42.4509 78.7396C44.012 80.2154 47.2949 79.2835 49.7835 76.6582Z" fill="white"/>
<path d="M78.3385 75.7126C78.7987 73.348 77.0282 71.015 74.3839 70.5017C71.7397 69.9884 69.223 71.4892 68.7627 73.8537C68.3025 76.2183 70.073 78.5512 72.7173 79.0646C75.3615 79.5779 77.8782 78.0771 78.3385 75.7126Z" fill="white"/>
<path d="M89.2019 55.7733C91.7161 52.8849 92.4532 49.414 90.8484 48.0208C89.2435 46.6276 85.9044 47.8396 83.3902 50.728C80.876 53.6164 80.1389 57.0873 81.7437 58.4805C83.3486 59.8737 86.6877 58.6616 89.2019 55.7733Z" fill="white"/>
<path d="M70.3586 84.2803C71.8086 83.347 71.9385 80.9701 70.6486 78.9713C69.3587 76.9724 67.1375 76.1086 65.6874 77.0418C64.2374 77.9751 64.1076 80.352 65.3975 82.3508C66.6874 84.3497 68.9085 85.2135 70.3586 84.2803Z" fill="white"/>
<path d="M68.2879 150.329C69.6601 149.445 69.7827 147.196 68.5618 145.304C67.3409 143.412 65.2388 142.594 63.8666 143.477C62.4944 144.36 62.3718 146.61 63.5927 148.502C64.8136 150.394 66.9157 151.212 68.2879 150.329Z" fill="white"/>
<path d="M168.62 67.3652C171.01 66.0752 172.278 63.7925 171.453 62.2667C170.627 60.741 168.02 60.5499 165.63 61.84C163.239 63.1301 161.971 65.4128 162.797 66.9385C163.623 68.4643 166.23 68.6553 168.62 67.3652Z" fill="white"/>
<path d="M37.0407 69.2571C39.2942 68.6321 40.3282 65.2746 39.3503 61.7579C38.3724 58.2411 35.7528 55.8969 33.4994 56.5218C31.246 57.1467 30.2119 60.5043 31.1899 64.021C32.1678 67.5378 34.7873 69.882 37.0407 69.2571Z" fill="white"/>
<path d="M63.2669 67.9872C63.673 65.0941 60.7552 62.2942 56.7499 61.7335C52.7446 61.1727 49.1684 63.0635 48.7623 65.9566C48.3561 68.8497 51.2739 71.6496 55.2792 72.2104C59.2846 72.7711 62.8608 70.8803 63.2669 67.9872Z" fill="white"/>
<path d="M85.044 36.0656C87.4158 31.8395 87.1007 27.161 84.3401 25.6158C81.5796 24.0706 77.4189 26.2439 75.0471 30.47C72.6753 34.6961 72.9904 39.3746 75.751 40.9198C78.5115 42.465 82.6721 40.2917 85.044 36.0656Z" fill="white"/>
<path d="M143.89 64.7698C147.112 64.5448 149.619 62.8539 149.489 60.993C149.358 59.1322 146.64 57.8061 143.418 58.0311C140.196 58.2562 137.689 59.9471 137.819 61.8079C137.95 63.6688 140.668 64.9949 143.89 64.7698Z" fill="white"/>
<path d="M120.794 78.1738C121.654 74.4959 120.518 71.0864 118.255 70.5585C115.993 70.0307 113.461 72.5844 112.601 76.2623C111.741 79.9403 112.877 83.3498 115.139 83.8776C117.402 84.4055 119.933 81.8518 120.794 78.1738Z" fill="white"/>
<path d="M138.168 80.8942C141.735 76.7958 142.778 71.8684 140.498 69.8886C138.217 67.9088 133.476 69.6262 129.909 73.7246C126.341 77.823 125.298 82.7504 127.579 84.7302C129.859 86.71 134.6 84.9926 138.168 80.8942Z" fill="white"/>
<path d="M94.5277 268.464C96.6834 267.08 96.6014 263.116 94.3444 259.61C92.0875 256.104 88.5102 254.383 86.3544 255.767C84.1987 257.151 84.2807 261.115 86.5377 264.622C88.7946 268.128 92.3719 269.848 94.5277 268.464Z" fill="white"/>
<path d="M108.425 54.9243C110.775 53.6562 112.022 51.4134 111.211 49.9147C110.399 48.4161 107.837 48.2292 105.488 49.4973C103.139 50.7654 101.891 53.0083 102.703 54.5069C103.514 56.0055 106.076 56.1924 108.425 54.9243Z" fill="white"/>
<path d="M91.0962 85.5968C93.372 84.9657 94.4157 81.573 93.4275 78.0192C92.4392 74.4653 89.7933 72.0959 87.5175 72.727C85.2418 73.3582 84.198 76.7508 85.1863 80.3047C86.1745 83.8586 88.8205 86.2279 91.0962 85.5968Z" fill="white"/>
<path d="M163.034 296.693C163.862 295.142 162.559 292.834 160.124 291.537C157.689 290.241 155.044 290.447 154.216 291.998C153.389 293.549 154.691 295.857 157.127 297.154C159.562 298.45 162.207 298.243 163.034 296.693Z" fill="white"/>
<path d="M166.447 280.168C166.919 277.739 165.101 275.343 162.385 274.816C159.668 274.288 157.083 275.83 156.61 278.259C156.138 280.688 157.956 283.084 160.672 283.611C163.389 284.139 165.974 282.597 166.447 280.168Z" fill="white"/>
<path d="M158.292 288.636C159.707 287.726 159.833 285.407 158.574 283.457C157.316 281.507 155.149 280.664 153.735 281.574C152.32 282.484 152.194 284.803 153.453 286.753C154.711 288.704 156.878 289.547 158.292 288.636Z" fill="white"/>
<path d="M89.8811 108.621C91.409 107.637 91.6443 105.286 90.4067 103.368C89.169 101.45 86.9271 100.692 85.3992 101.676C83.8713 102.659 83.636 105.011 84.8736 106.929C86.1113 108.847 88.3532 109.604 89.8811 108.621Z" fill="white"/>
<path d="M142.319 306.087C145.875 304.714 147.953 301.52 146.959 298.953C145.965 296.386 142.277 295.419 138.72 296.792C135.164 298.166 133.086 301.36 134.08 303.926C135.074 306.493 138.763 307.46 142.319 306.087Z" fill="white"/>
<path d="M132.638 305.559C133.336 303.783 132.09 301.633 129.855 300.758C127.62 299.882 125.243 300.613 124.546 302.389C123.848 304.165 125.094 306.314 127.329 307.189C129.563 308.065 131.94 307.335 132.638 305.559Z" fill="white"/>
<path d="M108.029 87.1363C108.281 85.3425 106.474 83.6067 103.994 83.2595C101.514 82.9122 99.2988 84.085 99.0469 85.8788C98.7951 87.6727 100.602 89.4085 103.082 89.7557C105.563 90.103 107.777 88.9302 108.029 87.1363Z" fill="white"/>
<path d="M125.82 61.4231C127.13 59.0898 126.955 56.5063 125.43 55.6527C123.905 54.7991 121.607 55.9986 120.298 58.3318C118.988 60.6651 119.163 63.2485 120.688 64.1022C122.213 64.9558 124.511 63.7563 125.82 61.4231Z" fill="white"/>
<path d="M142.404 52.9547C142.554 50.4694 139.191 48.2443 134.892 47.9848C130.593 47.7252 126.986 49.5294 126.835 52.0146C126.685 54.4998 130.048 56.7249 134.347 56.9845C138.646 57.2441 142.253 55.4399 142.404 52.9547Z" fill="white"/>
<path d="M152.434 43.5449C158.051 42.5518 162.144 39.1502 161.576 35.9471C161.008 32.7441 155.995 30.9526 150.378 31.9456C144.761 32.9387 140.668 36.3404 141.236 39.5434C141.804 42.7464 146.818 44.538 152.434 43.5449Z" fill="white"/>
<path d="M106.702 217.158C109.682 216.95 112 215.385 111.879 213.662C111.759 211.94 109.245 210.712 106.266 210.92C103.286 211.128 100.968 212.693 101.089 214.416C101.209 216.138 103.723 217.366 106.702 217.158Z" fill="white"/>
<path d="M102.764 231.885C106.701 227.362 107.855 221.926 105.341 219.744C102.828 217.562 97.5985 219.46 93.6614 223.983C89.7243 228.506 88.5703 233.941 91.0839 236.123C93.5975 238.306 98.8268 236.408 102.764 231.885Z" fill="white"/>
<path d="M105.187 205.595C105.337 203.121 101.989 200.907 97.709 200.648C93.4292 200.39 89.8383 202.186 89.6885 204.659C89.5388 207.133 92.8868 209.348 97.1666 209.606C101.446 209.865 105.037 208.069 105.187 205.595Z" fill="white"/>
<path d="M115.269 196.209C120.901 195.213 125.004 191.8 124.435 188.586C123.865 185.371 118.837 183.573 113.205 184.568C107.574 185.564 103.47 188.977 104.04 192.192C104.61 195.406 109.637 197.205 115.269 196.209Z" fill="white"/>
<path d="M157.195 53.9739C159.938 52.9257 161.618 50.6578 160.948 48.9084C160.277 47.159 157.51 46.5906 154.768 47.6388C152.025 48.6871 150.344 50.955 151.015 52.7043C151.685 54.4537 154.452 55.0221 157.195 53.9739Z" fill="white"/>
<path d="M131.815 98.9171C132.641 96.0867 131.9 93.381 130.158 92.8738C128.417 92.3666 126.335 94.2499 125.509 97.0804C124.682 99.9108 125.424 102.617 127.165 103.124C128.906 103.631 130.988 101.748 131.815 98.9171Z" fill="white"/>
<path d="M40.2174 41.9326C42.076 40.7148 41.9728 37.2773 39.9869 34.2547C38.001 31.2321 34.8845 29.769 33.0259 30.9868C31.1673 32.2047 31.2705 35.6422 33.2564 38.6648C35.2422 41.6874 38.3588 43.1505 40.2174 41.9326Z" fill="white"/>
<path d="M31.6503 8.81305C32.8114 6.16525 32.4315 3.441 30.8018 2.72826C29.1721 2.01552 26.9097 3.5842 25.7486 6.23201C24.5875 8.87981 24.9674 11.6041 26.5971 12.3168C28.2268 13.0295 30.4891 11.4609 31.6503 8.81305Z" fill="white"/>
<path d="M22.1618 42.5061C24.4221 39.903 24.9025 36.6219 23.2347 35.1776C21.5669 33.7333 18.3825 34.6728 16.1222 37.2759C13.8618 39.8791 13.3815 43.1602 15.0493 44.6045C16.7171 46.0488 19.9014 45.1093 22.1618 42.5061Z" fill="white"/>
<path d="M46.4558 18.2739C48.3647 13.9209 47.5478 9.35813 44.6313 8.08262C41.7148 6.80712 37.8031 9.30191 35.8943 13.6549C33.9854 18.0079 34.8023 22.5707 37.7188 23.8462C40.6352 25.1217 44.5469 22.6269 46.4558 18.2739Z" fill="white"/>
<path d="M167.697 186.566C168.355 184.304 167.428 182.048 165.627 181.525C163.826 181.002 161.833 182.412 161.175 184.673C160.517 186.935 161.444 189.192 163.245 189.714C165.046 190.237 167.039 188.827 167.697 186.566Z" fill="white"/>
<path d="M171.868 199.635C173.77 195.3 172.955 190.755 170.049 189.484C167.143 188.213 163.246 190.697 161.345 195.033C159.444 199.368 160.259 203.913 163.165 205.184C166.071 206.455 169.967 203.97 171.868 199.635Z" fill="white"/>
<path d="M17.9247 24.2523C19.5192 23.4904 19.957 21.0888 18.9026 18.8881C17.8482 16.6874 15.7009 15.521 14.1064 16.2829C12.512 17.0447 12.0742 19.4464 13.1286 21.6471C14.183 23.8478 16.3303 25.0142 17.9247 24.2523Z" fill="white"/>
<path d="M121.039 105.725C123.44 104.808 124.91 102.824 124.324 101.294C123.738 99.7641 121.317 99.2676 118.916 100.185C116.516 101.102 115.045 103.086 115.631 104.616C116.217 106.146 118.639 106.642 121.039 105.725Z" fill="white"/>
<path d="M107.83 34.6606C109.517 32.4023 109.688 29.6806 108.212 28.5814C106.737 27.4822 104.173 28.4218 102.486 30.6801C100.8 32.9384 100.629 35.6602 102.104 36.7594C103.58 37.8586 106.143 36.9189 107.83 34.6606Z" fill="white"/>
<path d="M46.4465 186.038C49.7848 185.804 52.3815 184.053 52.2464 182.126C52.1113 180.199 49.2956 178.826 45.9574 179.059C42.6191 179.292 40.0224 181.044 40.1575 182.971C40.2926 184.898 43.1082 186.271 46.4465 186.038Z" fill="white"/>
<path d="M38.3574 213.023C41.0615 209.917 41.8534 206.183 40.1263 204.684C38.3991 203.184 34.8068 204.487 32.1028 207.594C29.3987 210.7 28.6068 214.434 30.3339 215.933C32.0611 217.433 35.6534 216.13 38.3574 213.023Z" fill="white"/>
<path d="M31.5291 179.598C33.7868 178.379 34.9849 176.223 34.205 174.782C33.4252 173.341 30.9627 173.161 28.705 174.379C26.4472 175.598 25.2491 177.754 26.029 179.195C26.8089 180.636 29.2713 180.816 31.5291 179.598Z" fill="white"/>
<path d="M31.0606 194.589C32.4588 192.098 32.2741 189.34 30.648 188.43C29.022 187.52 26.5704 188.802 25.1722 191.293C23.774 193.784 23.9587 196.542 25.5848 197.452C27.2108 198.362 29.6624 197.08 31.0606 194.589Z" fill="white"/>
<path d="M70.6527 123.228C72.3862 122.408 72.7069 119.456 71.369 116.635C70.0311 113.813 67.5412 112.19 65.8077 113.01C64.0742 113.83 63.7535 116.782 65.0914 119.603C66.4293 122.425 68.9192 124.047 70.6527 123.228Z" fill="white"/>
<path d="M36.4007 169.565C36.5051 167.842 34.1726 166.299 31.1909 166.119C28.2093 165.939 25.7076 167.19 25.6033 168.913C25.499 170.637 27.8314 172.18 30.8131 172.36C33.7947 172.54 36.2964 171.289 36.4007 169.565Z" fill="white"/>
<path d="M66.4786 169.135C70.1529 166.152 71.6928 161.966 69.918 159.786C68.1433 157.606 63.726 158.257 60.0517 161.24C56.3774 164.223 54.8375 168.409 56.6122 170.589C58.3869 172.769 62.8043 172.118 66.4786 169.135Z" fill="white"/>
<path d="M75.3423 131.893C76.1952 129.341 73.7144 126.215 69.8011 124.91C65.8878 123.606 62.024 124.617 61.1711 127.168C60.3181 129.72 62.799 132.846 66.7123 134.151C70.6255 135.456 74.4893 134.444 75.3423 131.893Z" fill="white"/>
<path d="M61.3693 33.3844C63.04 32.5943 63.35 29.7512 62.0617 27.0343C60.7733 24.3173 58.3745 22.7553 56.7038 23.5454C55.0331 24.3356 54.7231 27.1786 56.0115 29.8956C57.2998 32.6125 59.6986 34.1745 61.3693 33.3844Z" fill="white"/>
<path d="M65.8479 42.1385C66.6654 39.6928 64.2864 36.6961 60.5342 35.4453C56.782 34.1944 53.0775 35.163 52.26 37.6087C51.4425 40.0544 53.8215 43.0511 57.5737 44.302C61.3259 45.5529 65.0304 44.5843 65.8479 42.1385Z" fill="white"/>
<path d="M36.8673 146.542C39.5537 144.165 40.661 141.032 39.3404 139.543C38.0198 138.055 34.7715 138.775 32.0851 141.152C29.3987 143.529 28.2914 146.662 29.612 148.151C30.9325 149.639 34.1809 148.919 36.8673 146.542Z" fill="white"/>
<path d="M51.6151 136.031C54.7403 134.553 55.6174 129.862 53.5743 125.553C51.5311 121.244 47.3413 118.949 44.2161 120.427C41.0909 121.905 40.2138 126.596 42.2569 130.905C44.3001 135.214 48.4899 137.509 51.6151 136.031Z" fill="white"/>
<path d="M52.7878 177.555C55.6389 176.466 57.3855 174.109 56.6889 172.291C55.9924 170.473 53.1165 169.883 50.2655 170.973C47.4144 172.062 45.6678 174.419 46.3643 176.237C47.0609 178.054 49.9367 178.645 52.7878 177.555Z" fill="white"/>
<path d="M78.0659 150.249C80.263 149.938 81.6503 146.908 81.1644 143.481C80.6784 140.054 78.5034 137.528 76.3062 137.839C74.1091 138.15 72.7219 141.18 73.2078 144.606C73.6937 148.033 75.8687 150.559 78.0659 150.249Z" fill="white"/>
<path d="M90.1943 130.453C93.4311 128.923 94.4925 124.386 92.5649 120.322C90.6374 116.257 86.4508 114.202 83.214 115.733C79.9772 117.264 78.9159 121.8 80.8434 125.865C82.771 129.93 86.9575 131.984 90.1943 130.453Z" fill="white"/>
<path d="M148.68 321.072C150.389 320.263 150.706 317.355 149.388 314.575C148.07 311.795 145.616 310.197 143.906 311.005C142.197 311.814 141.88 314.722 143.198 317.502C144.517 320.282 146.971 321.88 148.68 321.072Z" fill="white"/>
<path d="M153.361 329.788C154.207 327.258 151.747 324.159 147.867 322.865C143.986 321.572 140.155 322.574 139.309 325.104C138.464 327.634 140.924 330.733 144.804 332.027C148.685 333.32 152.516 332.318 153.361 329.788Z" fill="white"/>
<path d="M45.1289 154.539C47.9948 150.703 48.2868 146.079 45.7811 144.212C43.2754 142.346 38.9209 143.943 36.055 147.78C33.1891 151.617 32.8971 156.241 35.4028 158.107C37.9085 159.974 42.263 158.376 45.1289 154.539Z" fill="white"/>
<path d="M47.3274 106.978C47.5599 105.268 45.4885 103.574 42.7006 103.196C39.9128 102.818 37.4643 103.899 37.2317 105.61C36.9992 107.321 39.0707 109.014 41.8585 109.392C44.6463 109.77 47.0948 108.689 47.3274 106.978Z" fill="white"/>
<path d="M20.3712 203.826C23.4274 201.122 24.685 197.555 23.1802 195.859C21.6753 194.163 17.9779 194.98 14.9217 197.684C11.8656 200.388 10.608 203.955 12.1128 205.651C13.6176 207.347 17.315 206.53 20.3712 203.826Z" fill="white"/>
<path d="M30.3556 129.34C32.5452 129.03 33.9266 126.004 33.4413 122.581C32.9559 119.158 30.7875 116.634 28.5979 116.944C26.4084 117.254 25.027 120.28 25.5123 123.703C25.9977 127.126 28.1661 129.649 30.3556 129.34Z" fill="white"/>
<path d="M34.8662 98.4218C36.5474 97.6268 37.0988 95.271 36.0979 93.1602C35.0969 91.0493 32.9226 89.9827 31.2414 90.7777C29.5603 91.5728 29.0088 93.9285 30.0098 96.0394C31.0107 98.1502 33.185 99.2169 34.8662 98.4218Z" fill="white"/>
<path d="M104.659 173.291C108.077 171.674 109.2 166.888 107.167 162.6C105.133 158.312 100.714 156.146 97.296 157.763C93.8778 159.379 92.7551 164.166 94.7884 168.454C96.8216 172.741 101.241 174.907 104.659 173.291Z" fill="white"/>
<path d="M153.377 247.232C157.708 246.93 161.077 244.655 160.901 242.152C160.726 239.65 157.073 237.866 152.742 238.168C148.411 238.471 145.042 240.745 145.217 243.248C145.392 245.751 149.046 247.534 153.377 247.232Z" fill="white"/>
<path d="M144.034 242.221C145.296 239.972 145.129 237.482 143.662 236.661C142.194 235.839 139.981 236.996 138.718 239.246C137.456 241.495 137.623 243.984 139.09 244.806C140.558 245.627 142.771 244.47 144.034 242.221Z" fill="white"/>
<path d="M136.368 161.366C138.128 160.869 139.308 159.591 139.002 158.512C138.697 157.433 137.022 156.961 135.262 157.458C133.502 157.954 132.322 159.232 132.627 160.311C132.933 161.391 134.607 161.863 136.368 161.366Z" fill="white"/>
<path d="M132.091 157.992C132.109 156.335 129.8 154.967 126.932 154.936C124.065 154.905 121.726 156.223 121.708 157.88C121.69 159.537 124 160.906 126.867 160.937C129.735 160.968 132.073 159.649 132.091 157.992Z" fill="white"/>
<path d="M149.38 226.043C150.114 223.131 149.34 220.427 147.652 220.003C145.964 219.579 144.001 221.595 143.268 224.507C142.534 227.419 143.308 230.123 144.996 230.547C146.684 230.971 148.647 228.954 149.38 226.043Z" fill="white"/>
<path d="M165.633 215.311C167.109 213.088 166.994 210.418 165.376 209.346C163.758 208.275 161.25 209.208 159.774 211.431C158.298 213.654 158.413 216.324 160.031 217.395C161.649 218.467 164.157 217.533 165.633 215.311Z" fill="white"/>
<path d="M157.368 225.791C159.959 224.698 160.834 220.914 159.322 217.338C157.81 213.763 154.483 211.751 151.891 212.845C149.3 213.938 148.425 217.722 149.937 221.298C151.449 224.873 154.776 226.885 157.368 225.791Z" fill="white"/>
<path d="M17.3789 68.3114C19.2119 64.1314 18.239 59.6674 15.2058 58.3409C12.1727 57.0144 8.22791 59.3276 6.39492 63.5076C4.56192 67.6876 5.53483 72.1515 8.56798 73.478C11.6011 74.8046 15.5459 72.4914 17.3789 68.3114Z" fill="white"/>
<path d="M7.44343 83.7398C9.65404 82.6835 10.2619 79.3555 8.80103 76.3065C7.3402 73.2575 4.36392 71.6421 2.1533 72.6984C-0.0573097 73.7547 -0.665132 77.0827 0.795695 80.1317C2.25652 83.1807 5.23281 84.7961 7.44343 83.7398Z" fill="white"/>
<path d="M121.825 122.41C123.404 120.297 123.565 117.751 122.185 116.723C120.805 115.695 118.407 116.575 116.829 118.688C115.251 120.801 115.09 123.347 116.469 124.375C117.849 125.403 120.247 124.523 121.825 122.41Z" fill="white"/>
<path d="M72.1687 200.84C74.3376 199.804 74.9385 196.548 73.511 193.569C72.0835 190.589 69.1681 189.014 66.9992 190.051C64.8304 191.087 64.2294 194.342 65.6569 197.322C67.0845 200.301 69.9999 201.876 72.1687 200.84Z" fill="white"/>
<path d="M78.7729 207.823C79.2213 204.628 76.0002 201.537 71.5782 200.917C67.1563 200.298 63.2081 202.386 62.7597 205.581C62.3112 208.776 65.5324 211.867 69.9543 212.486C74.3762 213.105 78.3244 211.017 78.7729 207.823Z" fill="white"/>
<path d="M74.2992 185.751C76.2098 183.193 76.4045 180.111 74.734 178.866C73.0636 177.622 70.1605 178.687 68.2499 181.245C66.3394 183.803 66.1447 186.885 67.8152 188.13C69.4857 189.374 72.3887 188.309 74.2992 185.751Z" fill="white"/>
<path d="M139.679 289.2C143.743 287.921 146.444 285.004 145.712 282.685C144.98 280.365 141.092 279.522 137.029 280.8C132.965 282.079 130.264 284.996 130.996 287.316C131.728 289.635 135.615 290.479 139.679 289.2Z" fill="white"/>
<path d="M123.53 292.711C126.324 291.203 127.807 288.534 126.842 286.751C125.877 284.967 122.829 284.744 120.035 286.252C117.241 287.761 115.758 290.429 116.723 292.212C117.688 293.996 120.736 294.219 123.53 292.711Z" fill="white"/>
<path d="M173.62 378.39C177.387 377.608 180.027 374.986 179.517 372.534C179.007 370.081 175.539 368.726 171.772 369.508C168.005 370.29 165.364 372.912 165.875 375.365C166.385 377.818 169.853 379.172 173.62 378.39Z" fill="white"/>
<path d="M165.013 384.882C168.749 383.438 171.029 380.335 170.105 377.951C169.181 375.568 165.403 374.806 161.667 376.251C157.931 377.695 155.651 380.798 156.575 383.182C157.499 385.565 161.277 386.327 165.013 384.882Z" fill="white"/>
<path d="M141.915 206.826C144.07 206.521 145.431 203.545 144.953 200.18C144.476 196.814 142.342 194.333 140.187 194.637C138.032 194.942 136.672 197.918 137.149 201.283C137.626 204.649 139.76 207.131 141.915 206.826Z" fill="white"/>
<path d="M140.725 192.368C143.306 191.147 144.153 187.532 142.617 184.292C141.081 181.053 137.744 179.416 135.163 180.637C132.582 181.858 131.734 185.473 133.27 188.713C134.807 191.952 138.144 193.589 140.725 192.368Z" fill="white"/>
</g>
<defs>
<clipPath id="clip0_1_1335">
<rect width="170" height="416" fill="white"/>
</clipPath>
</defs>
</svg>
