<svg width="260" height="416" viewBox="0 0 260 416" fill="none" xmlns="http://www.w3.org/2000/svg">
<g clip-path="url(#clip0_1_15)">
<path d="M174.395 356.769C176.042 355.7 176.179 352.992 174.7 350.72C173.222 348.448 170.688 347.473 169.041 348.542C167.394 349.611 167.257 352.319 168.736 354.591C170.214 356.863 172.748 357.838 174.395 356.769Z" fill="white"/>
<path d="M92.184 316.366C93.795 315.698 94.4963 313.702 93.7504 311.908C93.0045 310.114 91.0938 309.202 89.4828 309.87C87.8718 310.538 87.1705 312.534 87.9164 314.328C88.6623 316.121 90.573 317.034 92.184 316.366Z" fill="white"/>
<path d="M189.845 412.946C190.121 410.837 187.258 408.724 183.451 408.226C179.643 407.729 176.333 409.036 176.056 411.146C175.78 413.255 178.643 415.368 182.451 415.865C186.258 416.363 189.569 415.056 189.845 412.946Z" fill="white"/>
<path d="M69.4608 9.34737C70.2264 6.71591 69.5341 4.20178 67.9145 3.73189C66.295 3.262 64.3615 5.0143 63.596 7.64576C62.8305 10.2772 63.5228 12.7914 65.1423 13.2612C66.7618 13.7311 68.6953 11.9788 69.4608 9.34737Z" fill="white"/>
<path d="M104.132 23.8385C107.856 23.8385 110.875 22.1638 110.875 20.098C110.875 18.0322 107.856 16.3575 104.132 16.3575C100.408 16.3575 97.3889 18.0322 97.3889 20.098C97.3889 22.1638 100.408 23.8385 104.132 23.8385Z" fill="white"/>
<path d="M121.178 23.983C123.271 20.823 123.326 17.1772 121.301 15.8399C119.277 14.5026 115.939 15.9802 113.846 19.1401C111.753 22.3001 111.698 25.9459 113.723 27.2832C115.748 28.6205 119.086 27.1429 121.178 23.983Z" fill="white"/>
<path d="M42.2845 5.18934C42.9478 2.90948 42.0133 0.634175 40.1974 0.107298C38.3814 -0.419579 36.3716 1.00149 35.7084 3.28135C35.0451 5.5612 35.9796 7.83651 37.7955 8.36339C39.6115 8.89026 41.6213 7.46919 42.2845 5.18934Z" fill="white"/>
<path d="M76.9227 7.99304C78.4274 7.01643 78.5527 4.54288 77.2025 2.46821C75.8524 0.393528 73.538 -0.496637 72.0333 0.479965C70.5286 1.45657 70.4033 3.93012 71.7535 6.0048C73.1036 8.07947 75.418 8.96964 76.9227 7.99304Z" fill="white"/>
<path d="M74.9734 92.1945C75.7867 90.6709 74.5107 88.4054 72.1234 87.1345C69.736 85.8637 67.1414 86.0686 66.3281 87.5923C65.5148 89.116 66.7908 91.3814 69.1782 92.6523C71.5655 93.9231 74.1602 93.7182 74.9734 92.1945Z" fill="white"/>
<path d="M147.998 375.38C149.565 371.807 149.053 368.131 146.854 367.169C144.655 366.208 141.602 368.324 140.036 371.897C138.469 375.47 138.981 379.146 141.18 380.108C143.379 381.069 146.432 378.952 147.998 375.38Z" fill="white"/>
<path d="M124.901 370.506C125.897 368.236 125.368 365.812 123.721 365.091C122.074 364.371 119.931 365.627 118.936 367.897C117.94 370.167 118.469 372.592 120.116 373.312C121.763 374.032 123.906 372.776 124.901 370.506Z" fill="white"/>
<path d="M172.016 362.509C172.959 360.359 172.333 358.008 170.618 357.258C168.904 356.508 166.75 357.643 165.807 359.794C164.864 361.944 165.49 364.294 167.204 365.044C168.919 365.794 171.073 364.659 172.016 362.509Z" fill="white"/>
<path d="M76.9485 242.388C78.2207 241.294 77.8047 238.729 76.0193 236.658C74.2339 234.587 71.7553 233.796 70.4831 234.889C69.211 235.983 69.627 238.549 71.4124 240.62C73.1977 242.69 75.6764 243.482 76.9485 242.388Z" fill="white"/>
<path d="M99.0329 298.479C99.8738 295.588 99.1134 292.826 97.3345 292.31C95.5556 291.794 93.4318 293.719 92.5909 296.609C91.75 299.5 92.5104 302.262 94.2893 302.778C96.0682 303.294 98.192 301.369 99.0329 298.479Z" fill="white"/>
<path d="M180.151 300.031C181.832 298.352 180.841 294.64 177.937 291.741C175.033 288.841 171.317 287.851 169.636 289.53C167.955 291.209 168.946 294.92 171.85 297.82C174.753 300.72 178.47 301.709 180.151 300.031Z" fill="white"/>
<path d="M189.388 193.874C191.923 191.342 190.427 185.744 186.048 181.37C181.668 176.996 176.062 175.502 173.527 178.034C170.992 180.566 172.487 186.164 176.867 190.538C181.247 194.912 186.853 196.406 189.388 193.874Z" fill="white"/>
<path d="M162.325 259.591C162.38 258.282 160.634 257.144 158.425 257.051C156.216 256.957 154.379 257.942 154.324 259.252C154.268 260.561 156.014 261.698 158.224 261.792C160.433 261.885 162.269 260.9 162.325 259.591Z" fill="white"/>
<path d="M118.45 308.947C119.138 306.582 118.305 304.261 116.589 303.763C114.873 303.266 112.924 304.779 112.236 307.144C111.548 309.509 112.381 311.83 114.097 312.328C115.813 312.826 117.762 311.312 118.45 308.947Z" fill="white"/>
<path d="M184.511 156.33C185.164 154.083 184.375 151.88 182.748 151.407C181.121 150.935 179.273 152.374 178.619 154.621C177.966 156.867 178.755 159.071 180.382 159.543C182.008 160.015 183.857 158.576 184.511 156.33Z" fill="white"/>
<path d="M153.506 262.548C154.723 259.316 151.603 255.154 146.539 253.253C141.474 251.352 136.382 252.431 135.165 255.663C133.949 258.896 137.068 263.057 142.133 264.959C147.198 266.86 152.29 265.781 153.506 262.548Z" fill="white"/>
<path d="M111.263 271.507C113.054 268.803 113.101 265.684 111.37 264.54C109.638 263.397 106.783 264.661 104.992 267.364C103.202 270.068 103.154 273.187 104.886 274.331C106.618 275.474 109.473 274.21 111.263 271.507Z" fill="white"/>
<path d="M114.063 293.674C115.791 292.553 115.932 289.707 114.378 287.319C112.824 284.931 110.163 283.904 108.435 285.026C106.707 286.147 106.566 288.993 108.121 291.381C109.675 293.769 112.335 294.796 114.063 293.674Z" fill="white"/>
<path d="M118.43 325.303C120.436 323.577 119.782 319.534 116.969 316.272C114.157 313.01 110.25 311.763 108.244 313.489C106.238 315.214 106.892 319.257 109.704 322.519C112.517 325.782 116.424 327.028 118.43 325.303Z" fill="white"/>
<path d="M196.023 371.634C198.024 369.636 196.844 365.22 193.39 361.77C189.935 358.32 185.513 357.142 183.512 359.14C181.512 361.137 182.691 365.554 186.146 369.004C189.601 372.454 194.023 373.632 196.023 371.634Z" fill="white"/>
<path d="M98.8339 326.423C100.711 325.205 100.872 322.127 99.1935 319.549C97.5153 316.97 94.6333 315.867 92.7565 317.085C90.8797 318.303 90.7187 321.381 92.3969 323.96C94.0751 326.539 96.957 327.642 98.8339 326.423Z" fill="white"/>
<path d="M155.304 357.011C159.132 357.011 162.236 355.29 162.236 353.166C162.236 351.042 159.132 349.321 155.304 349.321C151.475 349.321 148.372 351.042 148.372 353.166C148.372 355.29 151.475 357.011 155.304 357.011Z" fill="white"/>
<path d="M136.003 354.474C136.64 352.287 135.87 350.141 134.283 349.68C132.697 349.22 130.896 350.62 130.259 352.808C129.623 354.995 130.393 357.141 131.979 357.601C133.565 358.062 135.367 356.661 136.003 354.474Z" fill="white"/>
<path d="M127.071 323.202C129.094 320.154 129.152 316.636 127.201 315.345C125.251 314.054 122.029 315.479 120.006 318.527C117.984 321.576 117.925 325.094 119.876 326.385C121.827 327.676 125.048 326.251 127.071 323.202Z" fill="white"/>
<path d="M136.583 345.192C138.266 344.112 138.417 341.352 136.92 339.028C135.424 336.703 132.847 335.694 131.165 336.775C129.482 337.855 129.331 340.615 130.828 342.939C132.324 345.264 134.901 346.272 136.583 345.192Z" fill="white"/>
<path d="M157.963 348.139C160.812 347.548 162.808 345.563 162.422 343.707C162.035 341.85 159.412 340.825 156.563 341.416C153.714 342.007 151.718 343.991 152.104 345.848C152.491 347.705 155.114 348.73 157.963 348.139Z" fill="white"/>
<path d="M170.045 267.654C171.489 266.545 171.104 263.625 169.184 261.132C167.265 258.639 164.539 257.516 163.094 258.625C161.65 259.734 162.035 262.654 163.955 265.147C165.874 267.64 168.601 268.763 170.045 267.654Z" fill="white"/>
<path d="M193.658 290.446C194.406 289.045 193.229 286.959 191.029 285.788C188.829 284.617 186.439 284.803 185.691 286.205C184.943 287.606 186.121 289.691 188.321 290.862C190.521 292.034 192.91 291.847 193.658 290.446Z" fill="white"/>
<path d="M201.843 308.994C204.545 308.792 206.628 307.202 206.496 305.441C206.364 303.681 204.067 302.418 201.366 302.62C198.664 302.822 196.581 304.412 196.713 306.173C196.845 307.933 199.142 309.196 201.843 308.994Z" fill="white"/>
<path d="M83.7182 303.359C85.1282 302.436 85.0511 299.829 83.5458 297.538C82.0405 295.247 79.6772 294.139 78.2671 295.063C76.857 295.987 76.9342 298.593 78.4395 300.884C79.9448 303.175 82.3081 304.283 83.7182 303.359Z" fill="white"/>
<path d="M75.0272 283.19C77.3711 277.845 76.606 272.346 73.3183 270.909C70.0306 269.471 65.4653 272.638 63.1215 277.983C60.7776 283.328 61.5427 288.827 64.8304 290.265C68.118 291.702 72.6833 288.535 75.0272 283.19Z" fill="white"/>
<path d="M81.6734 292.205C82.5807 290.136 81.9806 287.875 80.3333 287.154C78.6859 286.434 76.615 287.527 75.7078 289.596C74.8006 291.665 75.4006 293.926 77.048 294.646C78.6953 295.367 80.7662 294.274 81.6734 292.205Z" fill="white"/>
<path d="M189.507 133.234C190.476 131.024 189.834 128.608 188.074 127.838C186.313 127.068 184.1 128.235 183.131 130.445C182.162 132.655 182.804 135.071 184.564 135.841C186.325 136.611 188.537 135.444 189.507 133.234Z" fill="white"/>
<path d="M181.631 228.752C183.508 227.138 182.897 223.355 180.266 220.303C177.634 217.251 173.979 216.086 172.101 217.7C170.224 219.315 170.835 223.098 173.467 226.15C176.098 229.202 179.753 230.367 181.631 228.752Z" fill="white"/>
<path d="M198.73 173.296C199.474 170.739 198.804 168.296 197.232 167.84C195.661 167.384 193.784 169.088 193.04 171.645C192.296 174.203 192.967 176.646 194.538 177.102C196.109 177.558 197.986 175.854 198.73 173.296Z" fill="white"/>
<path d="M262.563 174.782C263.876 173.472 263.099 170.571 260.829 168.303C258.558 166.036 255.654 165.26 254.341 166.571C253.029 167.882 253.805 170.783 256.075 173.05C258.346 175.318 261.251 176.093 262.563 174.782Z" fill="white"/>
<path d="M227.156 132.703C227.216 131.29 225.333 130.062 222.95 129.961C220.567 129.86 218.587 130.924 218.527 132.337C218.467 133.75 220.35 134.978 222.733 135.079C225.116 135.18 227.096 134.116 227.156 132.703Z" fill="white"/>
<path d="M236.81 184.406C243.058 184.406 248.123 181.597 248.123 178.132C248.123 174.667 243.058 171.859 236.81 171.859C230.562 171.859 225.496 174.667 225.496 178.132C225.496 181.597 230.562 184.406 236.81 184.406Z" fill="white"/>
<path d="M208.932 178.953C209.594 176.677 208.794 174.444 207.145 173.966C205.496 173.487 203.622 174.944 202.96 177.221C202.298 179.497 203.098 181.73 204.747 182.208C206.396 182.687 208.27 181.23 208.932 178.953Z" fill="white"/>
<path d="M245.941 137.572C246.546 135.966 244.994 133.899 242.476 132.954C239.959 132.008 237.428 132.544 236.823 134.149C236.219 135.755 237.77 137.822 240.288 138.767C242.806 139.712 245.337 139.177 245.941 137.572Z" fill="white"/>
<path d="M191.97 258.742C193.344 254.019 191.409 249.306 187.647 248.215C183.885 247.123 179.722 250.067 178.348 254.79C176.974 259.512 178.91 264.225 182.672 265.317C186.433 266.408 190.596 263.464 191.97 258.742Z" fill="white"/>
<path d="M244.089 158.545C246.873 157.967 248.825 156.027 248.447 154.212C248.069 152.397 245.506 151.394 242.721 151.972C239.936 152.55 237.985 154.49 238.362 156.305C238.74 158.12 241.304 159.123 244.089 158.545Z" fill="white"/>
<path d="M218.724 224.904C219.493 222.261 218.797 219.737 217.17 219.265C215.543 218.792 213.601 220.552 212.832 223.195C212.063 225.837 212.759 228.362 214.386 228.834C216.013 229.306 217.955 227.547 218.724 224.904Z" fill="white"/>
<path d="M185.981 42.3252C186.739 39.7197 186.056 37.2309 184.455 36.7664C182.854 36.3019 180.941 38.0375 180.183 40.6431C179.425 43.2486 180.109 45.7374 181.71 46.2019C183.311 46.6664 185.223 44.9308 185.981 42.3252Z" fill="white"/>
<path d="M206.156 290.906C206.914 285.12 204.919 280.089 201.701 279.669C198.483 279.248 195.259 283.598 194.502 289.384C193.744 295.17 195.739 300.201 198.957 300.621C202.176 301.041 205.399 296.692 206.156 290.906Z" fill="white"/>
<path d="M213.983 327.911C214.614 325.742 213.848 323.613 212.273 323.156C210.698 322.699 208.91 324.087 208.279 326.256C207.648 328.425 208.413 330.553 209.989 331.01C211.564 331.467 213.352 330.08 213.983 327.911Z" fill="white"/>
<path d="M240.348 282.029C241.724 280.656 240.914 277.62 238.54 275.249C236.166 272.878 233.126 272.07 231.751 273.443C230.375 274.817 231.185 277.852 233.559 280.223C235.933 282.594 238.973 283.403 240.348 282.029Z" fill="white"/>
<path d="M248.05 286.874C248.652 285.272 247.106 283.209 244.595 282.267C242.084 281.325 239.56 281.859 238.958 283.461C238.355 285.063 239.901 287.125 242.412 288.068C244.923 289.01 247.447 288.476 248.05 286.874Z" fill="white"/>
<path d="M249.274 380.034C250.581 378.729 249.807 375.839 247.544 373.58C245.282 371.321 242.389 370.548 241.081 371.853C239.774 373.158 240.549 376.048 242.811 378.307C245.073 380.567 247.967 381.34 249.274 380.034Z" fill="white"/>
<path d="M257.095 385.043C257.687 383.47 256.17 381.445 253.706 380.52C251.242 379.595 248.765 380.121 248.173 381.694C247.581 383.266 249.099 385.291 251.562 386.216C254.026 387.141 256.503 386.615 257.095 385.043Z" fill="white"/>
<path d="M190.537 212.913C191.858 211.594 191.077 208.675 188.793 206.394C186.509 204.113 183.587 203.333 182.266 204.652C180.945 205.972 181.726 208.89 184.01 211.171C186.294 213.452 189.217 214.232 190.537 212.913Z" fill="white"/>
<path d="M198.294 217.878C198.883 216.313 197.373 214.297 194.92 213.376C192.467 212.456 190.001 212.978 189.411 214.544C188.822 216.11 190.333 218.126 192.786 219.046C195.239 219.967 197.705 219.444 198.294 217.878Z" fill="white"/>
<path d="M97.7134 64.8324C98.9824 63.5652 98.2346 60.7639 96.0433 58.5755C93.852 56.3871 91.0469 55.6404 89.778 56.9076C88.509 58.1749 89.2568 60.9762 91.4481 63.1646C93.6394 65.353 96.4445 66.0997 97.7134 64.8324Z" fill="white"/>
<path d="M105.735 70.0178C106.337 68.4196 104.795 66.3622 102.292 65.4224C99.7881 64.4827 97.271 65.0165 96.6695 66.6147C96.068 68.2129 97.6098 70.2703 100.113 71.21C102.617 72.1497 105.134 71.616 105.735 70.0178Z" fill="white"/>
<path d="M229.01 195.487C230.813 192.765 230.863 189.625 229.122 188.475C227.38 187.324 224.507 188.599 222.704 191.322C220.9 194.045 220.85 197.185 222.592 198.335C224.333 199.485 227.207 198.21 229.01 195.487Z" fill="white"/>
<path d="M204.206 194.204C205.369 190.207 203.731 186.218 200.548 185.294C197.364 184.37 193.841 186.862 192.678 190.859C191.515 194.856 193.153 198.845 196.337 199.769C199.52 200.693 203.044 198.201 204.206 194.204Z" fill="white"/>
<path d="M237.231 215.379C238.92 214.282 239.06 211.505 237.544 209.175C236.027 206.845 233.429 205.845 231.74 206.941C230.05 208.037 229.91 210.815 231.427 213.145C232.943 215.475 235.541 216.475 237.231 215.379Z" fill="white"/>
<path d="M71.5338 22.7292C72.9474 21.644 72.5717 18.7876 70.6948 16.3492C68.8179 13.9109 66.1504 12.8139 64.7368 13.8991C63.3232 14.9843 63.6989 17.8407 65.5758 20.2791C67.4527 22.7174 70.1202 23.8144 71.5338 22.7292Z" fill="white"/>
<path d="M197.147 100.832C198.156 98.5298 197.622 96.0722 195.953 95.3425C194.285 94.6127 192.114 95.8872 191.104 98.189C190.095 100.491 190.629 102.948 192.298 103.678C193.967 104.408 196.138 103.133 197.147 100.832Z" fill="white"/>
<path d="M206.941 110.846C209.514 109.617 210.22 105.74 208.517 102.187C206.815 98.6338 203.349 96.75 200.777 97.9793C198.204 99.2086 197.499 103.086 199.201 106.639C200.903 110.192 204.369 112.076 206.941 110.846Z" fill="white"/>
<path d="M47.013 52.2675C48.8296 51.0771 48.7302 47.7193 46.7909 44.7676C44.8516 41.8159 41.8068 40.388 39.9902 41.5784C38.1736 42.7687 38.273 46.1265 40.2123 49.0782C42.1516 52.03 45.1964 53.4578 47.013 52.2675Z" fill="white"/>
<path d="M254.426 217.526C255.102 215.209 254.29 212.936 252.612 212.447C250.934 211.958 249.025 213.439 248.348 215.755C247.672 218.071 248.484 220.345 250.162 220.834C251.84 221.323 253.749 219.842 254.426 217.526Z" fill="white"/>
<path d="M249.106 226.912C250.493 226.003 250.417 223.437 248.935 221.182C247.453 218.926 245.127 217.835 243.739 218.744C242.352 219.653 242.428 222.218 243.91 224.474C245.392 226.73 247.718 227.821 249.106 226.912Z" fill="white"/>
<path d="M108.353 339.211C109.025 336.902 108.211 334.636 106.536 334.15C104.861 333.664 102.959 335.142 102.287 337.451C101.615 339.761 102.428 342.027 104.103 342.513C105.778 342.999 107.681 341.521 108.353 339.211Z" fill="white"/>
<path d="M103.25 348.928C104.65 348.011 104.572 345.42 103.075 343.142C101.578 340.864 99.2298 339.761 97.8294 340.678C96.429 341.596 96.5072 344.186 98.004 346.465C99.5008 348.743 101.849 349.846 103.25 348.928Z" fill="white"/>
<path d="M273.093 158.395C274.682 156.432 273.183 152.589 269.744 149.812C266.305 147.035 262.228 146.375 260.639 148.337C259.049 150.3 260.549 154.143 263.988 156.92C267.427 159.697 271.503 160.358 273.093 158.395Z" fill="white"/>
<path d="M18.003 112.118C19.5573 110.925 19.1433 107.782 17.0782 105.1C15.0131 102.417 12.0789 101.209 10.5246 102.403C8.97028 103.596 9.38434 106.738 11.4494 109.421C13.5145 112.104 16.4486 113.311 18.003 112.118Z" fill="white"/>
<path d="M31.0328 100.404C31.3421 98.0418 28.137 95.676 23.8741 95.1193C19.6111 94.5626 15.9047 96.0259 15.5954 98.3876C15.2862 100.749 18.4913 103.115 22.7542 103.672C27.0171 104.229 30.7236 102.765 31.0328 100.404Z" fill="white"/>
<path d="M128.221 342.203C130.068 337.991 129.089 333.494 126.035 332.158C122.981 330.822 119.007 333.153 117.16 337.365C115.313 341.577 116.292 346.074 119.347 347.41C122.401 348.746 126.374 346.414 128.221 342.203Z" fill="white"/>
<path d="M118.397 357.926C120.729 356.811 121.37 353.298 119.827 350.079C118.285 346.859 115.144 345.153 112.811 346.267C110.479 347.382 109.838 350.895 111.381 354.115C112.923 357.334 116.064 359.04 118.397 357.926Z" fill="white"/>
<path d="M239.531 235.971C241.315 231.904 240.37 227.562 237.422 226.273C234.474 224.983 230.638 227.235 228.854 231.302C227.071 235.369 228.015 239.711 230.964 241.001C233.912 242.29 237.748 240.038 239.531 235.971Z" fill="white"/>
<path d="M229.852 251.679C232.143 250.585 232.773 247.136 231.258 243.975C229.744 240.815 226.66 239.141 224.369 240.235C222.079 241.33 221.449 244.779 222.963 247.939C224.477 251.099 227.562 252.774 229.852 251.679Z" fill="white"/>
<path d="M212.982 130.113C214.792 125.986 213.832 121.579 210.837 120.269C207.843 118.96 203.949 121.244 202.139 125.371C200.329 129.498 201.289 133.905 204.284 135.215C207.278 136.524 211.172 134.24 212.982 130.113Z" fill="white"/>
<path d="M203.035 145.386C205.166 144.368 205.751 141.158 204.342 138.217C202.932 135.275 200.063 133.716 197.932 134.734C195.802 135.753 195.217 138.962 196.626 141.903C198.035 144.845 200.905 146.404 203.035 145.386Z" fill="white"/>
<path d="M230.182 157.446C232.029 153.234 231.05 148.737 227.995 147.401C224.941 146.065 220.968 148.397 219.121 152.609C217.274 156.82 218.253 161.318 221.307 162.653C224.361 163.989 228.335 161.658 230.182 157.446Z" fill="white"/>
<path d="M220.142 172.718C222.29 171.691 222.879 168.455 221.458 165.49C220.038 162.524 217.145 160.952 214.997 161.978C212.849 163.005 212.259 166.241 213.68 169.206C215.101 172.172 217.994 173.744 220.142 172.718Z" fill="white"/>
<path d="M125.81 141.474C127.123 138.481 126.427 135.284 124.257 134.335C122.086 133.386 119.263 135.043 117.95 138.037C116.637 141.031 117.332 144.227 119.503 145.176C121.673 146.126 124.497 144.468 125.81 141.474Z" fill="white"/>
<path d="M147.142 95.2757C148.455 92.2819 147.759 89.0854 145.589 88.1361C143.418 87.1869 140.594 88.8443 139.281 91.838C137.969 94.8318 138.664 98.0283 140.835 98.9776C143.005 99.9269 145.829 98.2695 147.142 95.2757Z" fill="white"/>
<path d="M249.07 95.6873C249.693 93.5562 248.945 91.4637 247.4 91.0137C245.855 90.5637 244.098 91.9266 243.476 94.0577C242.853 96.1889 243.601 98.2813 245.146 98.7313C246.691 99.1813 248.448 97.8185 249.07 95.6873Z" fill="white"/>
<path d="M221.729 245.363C222.346 243.726 220.763 241.616 218.195 240.652C215.626 239.688 213.044 240.234 212.428 241.872C211.812 243.51 213.394 245.619 215.962 246.583C218.531 247.547 221.113 247.001 221.729 245.363Z" fill="white"/>
<path d="M202.479 238.772C203.853 237.717 203.485 234.938 201.657 232.564C199.83 230.189 197.234 229.12 195.861 230.174C194.487 231.229 194.855 234.009 196.682 236.383C198.51 238.757 201.105 239.827 202.479 238.772Z" fill="white"/>
<path d="M203.327 251.85C204.169 250.272 202.845 247.924 200.369 246.606C197.893 245.288 195.203 245.499 194.361 247.077C193.518 248.655 194.843 251.003 197.319 252.321C199.794 253.639 202.484 253.428 203.327 251.85Z" fill="white"/>
<path d="M251.83 328.264C253.244 323.405 251.25 318.554 247.378 317.431C243.505 316.307 239.219 319.336 237.805 324.195C236.392 329.055 238.385 333.905 242.258 335.029C246.131 336.152 250.416 333.124 251.83 328.264Z" fill="white"/>
<path d="M262.519 320.454C263.301 318.988 262.072 316.808 259.773 315.584C257.474 314.36 254.976 314.557 254.194 316.022C253.411 317.488 254.641 319.669 256.939 320.892C259.238 322.116 261.736 321.92 262.519 320.454Z" fill="white"/>
<path d="M205.35 268.155C207.986 267.958 210.019 266.405 209.89 264.687C209.761 262.969 207.52 261.736 204.884 261.933C202.247 262.13 200.215 263.683 200.343 265.401C200.472 267.119 202.714 268.352 205.35 268.155Z" fill="white"/>
<path d="M189.8 84.2308C191.015 83.0181 190.298 80.3361 188.199 78.2403C186.101 76.1446 183.415 75.4288 182.201 76.6416C180.986 77.8543 181.703 80.5363 183.802 82.6321C185.9 84.7278 188.586 85.4436 189.8 84.2308Z" fill="white"/>
<path d="M198.718 120.632C199.965 119.387 199.226 116.63 197.068 114.474C194.909 112.318 192.148 111.58 190.901 112.826C189.654 114.071 190.393 116.829 192.551 118.984C194.71 121.14 197.471 121.878 198.718 120.632Z" fill="white"/>
<path d="M171.124 245.412C174.663 245.412 177.532 243.821 177.532 241.86C177.532 239.898 174.663 238.308 171.124 238.308C167.585 238.308 164.716 239.898 164.716 241.86C164.716 243.821 167.585 245.412 171.124 245.412Z" fill="white"/>
<path d="M191.807 90.4832C192.414 88.8706 190.859 86.7949 188.334 85.847C185.809 84.8992 183.27 85.438 182.663 87.0507C182.056 88.6633 183.611 90.739 186.136 91.6869C188.661 92.6347 191.2 92.0958 191.807 90.4832Z" fill="white"/>
<path d="M181.422 123.45C185.344 122.636 188.092 119.905 187.561 117.351C187.029 114.796 183.419 113.385 179.497 114.199C175.574 115.013 172.826 117.744 173.358 120.298C173.889 122.853 177.5 124.264 181.422 123.45Z" fill="white"/>
<path d="M269.046 91.4987C270.813 87.4705 270.236 83.3264 267.758 82.2426C265.28 81.1588 261.839 83.5457 260.072 87.5739C258.306 91.6021 258.883 95.7462 261.361 96.83C263.839 97.9138 267.28 95.5269 269.046 91.4987Z" fill="white"/>
<path d="M207.534 85.0656C208.858 84.0485 208.504 81.3687 206.743 79.08C204.981 76.7914 202.479 75.7605 201.154 76.7776C199.829 77.7947 200.183 80.4745 201.945 82.7631C203.707 85.0518 206.209 86.0826 207.534 85.0656Z" fill="white"/>
<path d="M103.729 146.286C105.411 145.661 106.462 144.317 106.078 143.284C105.693 142.251 104.017 141.92 102.335 142.545C100.653 143.169 99.6017 144.513 99.9864 145.546C100.371 146.58 102.047 146.911 103.729 146.286Z" fill="white"/>
<path d="M236.336 84.5298C236.604 82.4853 233.83 80.4373 230.141 79.9556C226.452 79.4739 223.245 80.7407 222.977 82.7853C222.71 84.8298 225.483 86.8778 229.172 87.3595C232.861 87.8412 236.068 86.5743 236.336 84.5298Z" fill="white"/>
<path d="M241.938 83.3481C242.873 81.2158 242.376 78.9382 240.828 78.261C239.279 77.5838 237.266 78.7635 236.331 80.8959C235.396 83.0282 235.893 85.3058 237.442 85.983C238.99 86.6602 241.003 85.4805 241.938 83.3481Z" fill="white"/>
<path d="M221.882 120.852C222.68 119.356 221.426 117.13 219.079 115.881C216.733 114.632 214.183 114.832 213.384 116.329C212.585 117.825 213.84 120.051 216.187 121.3C218.533 122.549 221.083 122.349 221.882 120.852Z" fill="white"/>
<path d="M120.34 52.3682C121.179 50.7969 119.863 48.4605 117.401 47.1497C114.938 45.839 112.262 46.0502 111.424 47.6215C110.585 49.1928 111.901 51.5291 114.363 52.8399C116.826 54.1507 119.502 53.9395 120.34 52.3682Z" fill="white"/>
<path d="M258.282 120.439C260.712 117.641 261.228 114.114 259.434 112.561C257.641 111.008 254.218 112.017 251.788 114.816C249.358 117.614 248.842 121.141 250.636 122.694C252.429 124.247 255.852 123.237 258.282 120.439Z" fill="white"/>
<path d="M218.18 100.779C223.433 100.387 227.484 97.2954 227.228 93.8748C226.971 90.4542 222.505 87.9995 217.252 88.3922C211.999 88.7848 207.948 91.876 208.204 95.2966C208.461 98.7172 212.927 101.172 218.18 100.779Z" fill="white"/>
<path d="M223.26 73.132C223.469 71.936 222.004 70.6823 219.989 70.3318C217.974 69.9813 216.172 70.6667 215.963 71.8628C215.754 73.0588 217.219 74.3125 219.234 74.663C221.249 75.0135 223.052 74.3281 223.26 73.132Z" fill="white"/>
<path d="M205.375 73.1985C206.179 71.6918 204.915 69.4505 202.552 68.1923C200.188 66.9341 197.62 67.1355 196.816 68.6422C196.012 70.1489 197.276 72.3902 199.639 73.6484C202.003 74.9066 204.571 74.7052 205.375 73.1985Z" fill="white"/>
<path d="M234.451 67.9236C236.588 65.4631 237.043 62.3632 235.469 60.9997C233.894 59.6362 230.886 60.5255 228.75 62.986C226.613 65.4465 226.158 68.5464 227.732 69.9099C229.307 71.2734 232.315 70.3841 234.451 67.9236Z" fill="white"/>
<path d="M260.275 147.358C261.272 145.084 260.613 142.599 258.803 141.808C256.993 141.016 254.718 142.218 253.721 144.491C252.724 146.765 253.383 149.25 255.193 150.041C257.003 150.833 259.278 149.631 260.275 147.358Z" fill="white"/>
<path d="M222.565 68.6446C225.019 67.4719 225.694 63.7761 224.071 60.3898C222.449 57.0036 219.144 55.2092 216.69 56.382C214.235 57.5547 213.561 61.2505 215.183 64.6368C216.806 68.023 220.111 69.8174 222.565 68.6446Z" fill="white"/>
<path d="M133.784 271.256C134.726 269.109 134.225 266.817 132.666 266.135C131.107 265.453 129.08 266.64 128.139 268.787C127.197 270.933 127.698 273.226 129.257 273.908C130.816 274.59 132.843 273.402 133.784 271.256Z" fill="white"/>
<path d="M110.54 254.67C110.762 253.402 109.206 252.072 107.065 251.699C104.925 251.327 103.01 252.053 102.789 253.322C102.568 254.59 104.124 255.92 106.264 256.292C108.405 256.664 110.319 255.938 110.54 254.67Z" fill="white"/>
<path d="M121.501 249.442C123.64 246.979 124.095 243.874 122.518 242.508C120.94 241.142 117.928 242.032 115.789 244.495C113.65 246.959 113.194 250.063 114.772 251.429C116.349 252.795 119.362 251.905 121.501 249.442Z" fill="white"/>
<path d="M109.73 250.423C112.285 249.202 112.986 245.351 111.295 241.823C109.605 238.294 106.163 236.423 103.608 237.644C101.052 238.865 100.351 242.715 102.042 246.244C103.733 249.773 107.175 251.644 109.73 250.423Z" fill="white"/>
<path d="M105.423 111.796C106.118 109.141 103.702 106.212 100.028 105.253C96.3537 104.295 92.8122 105.67 92.1177 108.325C91.4232 110.98 93.8387 113.91 97.513 114.868C101.187 115.827 104.729 114.451 105.423 111.796Z" fill="white"/>
<path d="M166.331 144.151C166.552 142.883 164.996 141.553 162.856 141.181C160.715 140.808 158.801 141.535 158.579 142.803C158.358 144.071 159.914 145.401 162.055 145.773C164.195 146.145 166.11 145.419 166.331 144.151Z" fill="white"/>
<path d="M155.365 148.298C157.607 145.715 158.085 142.461 156.432 141.029C154.779 139.598 151.62 140.531 149.378 143.113C147.135 145.696 146.657 148.951 148.31 150.382C149.964 151.814 153.122 150.881 155.365 148.298Z" fill="white"/>
<path d="M144.222 149.819C146.826 148.575 147.541 144.652 145.819 141.058C144.096 137.463 140.589 135.557 137.985 136.801C135.381 138.046 134.667 141.969 136.389 145.563C138.111 149.158 141.618 151.064 144.222 149.819Z" fill="white"/>
<path d="M147.25 118.68C149.819 117.452 150.525 113.582 148.826 110.036C147.127 106.49 143.666 104.61 141.097 105.838C138.528 107.066 137.823 110.936 139.522 114.482C141.221 118.028 144.681 119.907 147.25 118.68Z" fill="white"/>
<path d="M190.338 50.2502C193.182 50.0376 195.375 48.3636 195.236 46.5111C195.097 44.6586 192.679 43.3291 189.835 43.5417C186.991 43.7543 184.798 45.4283 184.937 47.2808C185.075 49.1333 187.494 50.4627 190.338 50.2502Z" fill="white"/>
<path d="M52.9391 205.156C52.9479 203.36 50.5836 201.892 47.6584 201.878C44.7331 201.864 42.3545 203.308 42.3457 205.104C42.337 206.9 44.7012 208.368 47.6265 208.382C50.5518 208.396 52.9304 206.952 52.9391 205.156Z" fill="white"/>
<path d="M96.0193 185.264C97.6024 184.245 97.54 181.334 95.8801 178.762C94.2202 176.19 91.5912 174.93 90.0082 175.949C88.4251 176.968 88.4874 179.879 90.1474 182.451C91.8073 185.024 94.4362 186.283 96.0193 185.264Z" fill="white"/>
<path d="M120.304 181.161C124.488 180.868 127.744 178.671 127.574 176.253C127.405 173.834 123.875 172.111 119.69 172.403C115.506 172.695 112.25 174.893 112.42 177.311C112.589 179.729 116.119 181.453 120.304 181.161Z" fill="white"/>
<path d="M161.541 112.372C162.997 111.434 163.129 109.049 161.835 107.044C160.541 105.038 158.311 104.172 156.854 105.11C155.398 106.047 155.266 108.433 156.56 110.438C157.854 112.444 160.084 113.309 161.541 112.372Z" fill="white"/>
<path d="M85.5719 169.657C87.8398 168.432 89.0431 166.266 88.2596 164.819C87.4761 163.371 85.0024 163.19 82.7344 164.414C80.4665 165.638 79.2632 167.804 80.0467 169.252C80.8302 170.699 83.3039 170.881 85.5719 169.657Z" fill="white"/>
<path d="M70.955 234.521C72.7003 233.398 72.9694 230.712 71.5562 228.522C70.143 226.332 67.5825 225.468 65.8372 226.591C64.092 227.714 63.8228 230.4 65.2361 232.59C66.6493 234.78 69.2098 235.645 70.955 234.521Z" fill="white"/>
<path d="M135.36 248.381C136.841 247.43 136.784 244.703 135.231 242.291C133.679 239.88 131.219 238.695 129.738 239.647C128.256 240.598 128.314 243.324 129.866 245.736C131.419 248.148 133.879 249.332 135.36 248.381Z" fill="white"/>
<path d="M185.031 237.198C187.545 234.31 188.282 230.839 186.677 229.446C185.072 228.053 181.733 229.265 179.219 232.153C176.705 235.041 175.968 238.512 177.573 239.906C179.177 241.299 182.517 240.087 185.031 237.198Z" fill="white"/>
<path d="M134.452 212.667C135.337 208.884 134.36 205.422 132.271 204.935C130.181 204.447 127.77 207.119 126.885 210.902C126 214.685 126.977 218.147 129.066 218.635C131.155 219.122 133.567 216.45 134.452 212.667Z" fill="white"/>
<path d="M163.225 86.7418C166.013 84.9519 166.267 80.3857 163.794 76.5429C161.32 72.7001 157.055 71.0358 154.267 72.8256C151.479 74.6155 151.224 79.1816 153.698 83.0245C156.171 86.8673 160.437 88.5316 163.225 86.7418Z" fill="white"/>
<path d="M119.603 227.78C121.674 227.206 122.624 224.118 121.724 220.883C120.825 217.649 118.417 215.493 116.345 216.067C114.274 216.641 113.324 219.729 114.224 222.964C115.123 226.198 117.531 228.355 119.603 227.78Z" fill="white"/>
<path d="M132.359 224.256C132.609 222.474 130.813 220.749 128.348 220.404C125.883 220.059 123.682 221.224 123.432 223.007C123.182 224.789 124.977 226.514 127.442 226.859C129.907 227.204 132.109 226.039 132.359 224.256Z" fill="white"/>
<path d="M164.185 94.2569C164.464 92.2683 162.46 90.344 159.708 89.9588C156.956 89.5735 154.499 90.8733 154.22 92.8618C153.941 94.8503 155.945 96.7747 158.697 97.1599C161.449 97.5451 163.906 96.2454 164.185 94.2569Z" fill="white"/>
<path d="M179.335 48.7784C179.617 46.767 177.591 44.8206 174.808 44.4311C172.026 44.0416 169.542 45.3564 169.259 47.3678C168.977 49.3793 171.004 51.3256 173.786 51.7151C176.568 52.1047 179.053 50.7898 179.335 48.7784Z" fill="white"/>
<path d="M70.2507 259.553C72.4292 258.154 72.3453 254.147 70.0633 250.602C67.7813 247.057 64.1654 245.317 61.987 246.715C59.8085 248.114 59.8924 252.121 62.1744 255.666C64.4563 259.211 68.0723 260.951 70.2507 259.553Z" fill="white"/>
<path d="M149.777 171.928C149.88 170.22 147.566 168.691 144.607 168.512C141.649 168.334 139.167 169.573 139.063 171.282C138.96 172.99 141.274 174.519 144.233 174.698C147.191 174.876 149.674 173.637 149.777 171.928Z" fill="white"/>
<path d="M176.933 160.075C177.896 157.517 177.502 155.002 176.054 154.459C174.605 153.915 172.65 155.548 171.688 158.105C170.725 160.663 171.119 163.178 172.567 163.721C174.016 164.265 175.971 162.632 176.933 160.075Z" fill="white"/>
<path d="M62.4181 103.976C63.4873 100.777 61.4578 97.2184 57.885 96.0273C54.3121 94.8362 50.549 96.4638 49.4797 99.6626C48.4105 102.861 50.44 106.42 54.0129 107.611C57.5857 108.802 61.3488 107.175 62.4181 103.976Z" fill="white"/>
<path d="M168.42 161.28C171.349 158.689 172.555 155.271 171.114 153.647C169.673 152.023 166.131 152.807 163.202 155.399C160.273 157.99 159.066 161.408 160.507 163.032C161.948 164.656 165.491 163.872 168.42 161.28Z" fill="white"/>
<path d="M92.3626 194.464C95.3234 191.845 96.5432 188.39 95.087 186.749C93.6308 185.108 90.05 185.901 87.0892 188.52C84.1283 191.14 82.9086 194.594 84.3648 196.236C85.821 197.877 89.4017 197.084 92.3626 194.464Z" fill="white"/>
<path d="M176.137 140.734C177.696 139.997 178.134 137.657 177.114 135.507C176.095 133.358 174.005 132.214 172.446 132.951C170.887 133.688 170.449 136.028 171.468 138.178C172.488 140.327 174.578 141.471 176.137 140.734Z" fill="white"/>
<path d="M167.979 178.927C169.712 176.606 169.888 173.81 168.373 172.681C166.857 171.552 164.223 172.517 162.49 174.837C160.757 177.158 160.581 179.954 162.097 181.083C163.613 182.212 166.246 181.247 167.979 178.927Z" fill="white"/>
<path d="M171.758 122.446C171.995 120.705 169.883 118.981 167.042 118.596C164.201 118.21 161.705 119.31 161.469 121.051C161.232 122.793 163.343 124.517 166.185 124.902C169.026 125.287 171.521 124.188 171.758 122.446Z" fill="white"/>
<path d="M179.142 105.203C179.39 103.378 177.176 101.57 174.197 101.167C171.218 100.763 168.602 101.915 168.354 103.741C168.105 105.566 170.319 107.374 173.298 107.777C176.277 108.181 178.894 107.029 179.142 105.203Z" fill="white"/>
<path d="M185.525 281.479C189.315 280.693 191.971 278.051 191.456 275.58C190.942 273.108 187.453 271.742 183.663 272.529C179.873 273.315 177.218 275.956 177.732 278.428C178.246 280.9 181.735 282.266 185.525 281.479Z" fill="white"/>
<path d="M212.368 221.573C216.494 220.732 219.394 217.87 218.844 215.181C218.295 212.491 214.504 210.993 210.378 211.834C206.252 212.675 203.352 215.537 203.902 218.226C204.451 220.915 208.242 222.414 212.368 221.573Z" fill="white"/>
<path d="M221.131 208.631C221.358 206.958 219.335 205.303 216.613 204.934C213.89 204.565 211.498 205.622 211.271 207.295C211.044 208.967 213.067 210.623 215.789 210.992C218.512 211.361 220.904 210.304 221.131 208.631Z" fill="white"/>
<path d="M102.01 283.584C105.943 282.767 108.7 280.029 108.167 277.466C107.633 274.904 104.012 273.489 100.079 274.305C96.1455 275.122 93.3891 277.86 93.9223 280.423C94.4554 282.985 98.0764 284.4 102.01 283.584Z" fill="white"/>
<path d="M92.8571 280.621C93.0912 278.898 91.0055 277.194 88.1985 276.813C85.3916 276.433 82.9263 277.521 82.6922 279.243C82.4581 280.965 84.5438 282.67 87.3507 283.051C90.1577 283.431 92.623 282.343 92.8571 280.621Z" fill="white"/>
<path d="M227.803 403.519C228.574 401.486 226.667 398.881 223.545 397.701C220.423 396.521 217.267 397.213 216.497 399.246C215.727 401.279 217.633 403.883 220.755 405.064C223.877 406.244 227.033 405.552 227.803 403.519Z" fill="white"/>
<path d="M216.247 398.787C217.163 397.703 216.477 395.619 214.714 394.132C212.951 392.645 210.779 392.317 209.863 393.401C208.946 394.484 209.632 396.568 211.395 398.055C213.158 399.543 215.33 399.87 216.247 398.787Z" fill="white"/>
<path d="M100.485 147.447C100.594 145.639 98.147 144.02 95.019 143.831C91.891 143.642 89.2665 144.955 89.1571 146.763C89.0476 148.571 91.4946 150.19 94.6226 150.379C97.7506 150.568 100.375 149.255 100.485 147.447Z" fill="white"/>
<path d="M102.651 130.941C105.372 128.533 106.493 125.359 105.154 123.85C103.816 122.341 100.525 123.07 97.8039 125.477C95.0828 127.885 93.962 131.06 95.3005 132.568C96.639 134.077 99.9299 133.348 102.651 130.941Z" fill="white"/>
<path d="M133.665 173.552C135.975 172.669 137.389 170.757 136.824 169.281C136.258 167.806 133.927 167.325 131.617 168.208C129.306 169.091 127.892 171.003 128.457 172.479C129.023 173.955 131.354 174.435 133.665 173.552Z" fill="white"/>
<path d="M156.193 138.754C158.424 138.439 159.833 135.358 159.339 131.874C158.845 128.39 156.635 125.822 154.404 126.137C152.172 126.453 150.764 129.533 151.258 133.017C151.752 136.501 153.961 139.07 156.193 138.754Z" fill="white"/>
<path d="M173.482 322.071C173.686 320.901 172.251 319.675 170.278 319.332C168.305 318.988 166.54 319.658 166.336 320.828C166.132 321.997 167.566 323.223 169.539 323.567C171.513 323.91 173.278 323.24 173.482 322.071Z" fill="white"/>
<path d="M162.887 326.335C165.18 323.694 165.668 320.366 163.977 318.902C162.286 317.437 159.056 318.391 156.763 321.032C154.47 323.673 153.981 327.001 155.673 328.466C157.364 329.93 160.594 328.976 162.887 326.335Z" fill="white"/>
<path d="M163.617 316.69C165.829 316.377 167.226 313.324 166.736 309.87C166.246 306.417 164.056 303.871 161.843 304.184C159.631 304.496 158.234 307.55 158.724 311.003C159.214 314.457 161.404 317.003 163.617 316.69Z" fill="white"/>
<path d="M246.28 119.001C246.5 117.74 244.953 116.418 242.823 116.048C240.694 115.677 238.79 116.399 238.57 117.66C238.35 118.92 239.898 120.242 242.027 120.613C244.156 120.983 246.061 120.261 246.28 119.001Z" fill="white"/>
<path d="M235.472 123.267C237.81 120.574 238.307 117.178 236.581 115.684C234.855 114.189 231.56 115.16 229.221 117.854C226.882 120.547 226.386 123.943 228.112 125.437C229.838 126.932 233.133 125.96 235.472 123.267Z" fill="white"/>
<path d="M236.162 113.584C238.382 113.27 239.783 110.206 239.292 106.741C238.801 103.276 236.603 100.722 234.383 101.036C232.162 101.35 230.761 104.413 231.252 107.878C231.744 111.343 233.942 113.897 236.162 113.584Z" fill="white"/>
<path d="M193.537 338.799C195.709 336.298 196.172 333.147 194.571 331.76C192.97 330.374 189.912 331.278 187.74 333.779C185.568 336.281 185.105 339.432 186.706 340.818C188.307 342.204 191.365 341.3 193.537 338.799Z" fill="white"/>
<path d="M182.292 339.99C184.732 338.824 185.402 335.148 183.788 331.779C182.174 328.41 178.887 326.624 176.447 327.79C174.006 328.956 173.337 332.633 174.951 336.002C176.565 339.37 179.851 341.156 182.292 339.99Z" fill="white"/>
<path d="M202.061 348.232C204.84 345.774 205.985 342.532 204.618 340.991C203.251 339.451 199.891 340.195 197.112 342.654C194.333 345.112 193.188 348.354 194.555 349.895C195.921 351.435 199.282 350.691 202.061 348.232Z" fill="white"/>
<path d="M194.448 329.416C196.703 329.097 198.125 325.983 197.626 322.461C197.127 318.939 194.894 316.342 192.64 316.661C190.385 316.98 188.962 320.094 189.462 323.616C189.961 327.138 192.194 329.735 194.448 329.416Z" fill="white"/>
<path d="M136.517 130.145C137.235 127.548 134.904 124.64 131.31 123.65C127.716 122.659 124.221 123.961 123.503 126.558C122.786 129.155 125.117 132.063 128.711 133.054C132.305 134.044 135.8 132.742 136.517 130.145Z" fill="white"/>
<path d="M117.652 152.317C119.168 150.287 119.321 147.84 117.994 146.852C116.667 145.863 114.362 146.707 112.846 148.737C111.33 150.766 111.177 153.213 112.504 154.202C113.831 155.19 116.136 154.346 117.652 152.317Z" fill="white"/>
<path d="M31.8894 79.6898C31.8978 77.9708 29.6334 76.5663 26.8316 76.5526C24.0298 76.539 21.7517 77.9213 21.7432 79.6402C21.7348 81.3591 23.9993 82.7637 26.8011 82.7774C29.6029 82.791 31.881 81.4087 31.8894 79.6898Z" fill="white"/>
<path d="M49.4251 95.2157C50.7551 94.3597 50.7029 91.9141 49.3085 89.7533C47.9141 87.5925 45.7055 86.5347 44.3754 87.3907C43.0454 88.2467 43.0976 90.6923 44.492 92.8531C45.8865 95.014 48.0951 96.0717 49.4251 95.2157Z" fill="white"/>
<path d="M92.124 43.4646C95.1461 43.2536 97.4969 41.6675 97.3747 39.922C97.2525 38.1765 94.7035 36.9326 91.6814 37.1436C88.6592 37.3547 86.3084 38.9408 86.4306 40.6863C86.5528 42.4318 89.1018 43.6757 92.124 43.4646Z" fill="white"/>
<path d="M77.0956 59.684C77.9516 56.0248 77.0096 52.6767 74.9915 52.2059C72.9734 51.7351 70.6435 54.3197 69.7874 57.9789C68.9314 61.6381 69.8734 64.9862 71.8915 65.4571C73.9096 65.9279 76.2395 63.3432 77.0956 59.684Z" fill="white"/>
<path d="M49.7833 76.6583C52.2719 74.0329 53.0239 70.7083 51.4628 69.2324C49.9017 67.7566 46.6188 68.6885 44.1302 71.3139C41.6415 73.9393 40.8896 77.2639 42.4507 78.7398C44.0118 80.2156 47.2947 79.2837 49.7833 76.6583Z" fill="white"/>
<path d="M78.3382 75.7127C78.7985 73.3481 77.0279 71.0152 74.3837 70.5019C71.7394 69.9886 69.2227 71.4893 68.7625 73.8538C68.3022 76.2184 70.0727 78.5514 72.717 79.0647C75.3613 79.578 77.878 78.0773 78.3382 75.7127Z" fill="white"/>
<path d="M89.2017 55.7734C91.7159 52.885 92.453 49.4141 90.8482 48.0209C89.2433 46.6277 85.9042 47.8398 83.39 50.7281C80.8758 53.6165 80.1387 57.0874 81.7435 58.4806C83.3484 59.8738 86.6875 58.6618 89.2017 55.7734Z" fill="white"/>
<path d="M70.3584 84.2804C71.8084 83.3472 71.9382 80.9702 70.6483 78.9714C69.3585 76.9725 67.1373 76.1087 65.6872 77.0419C64.2372 77.9752 64.1073 80.3521 65.3972 82.351C66.6871 84.3498 68.9083 85.2137 70.3584 84.2804Z" fill="white"/>
<path d="M68.2876 150.329C69.6598 149.446 69.7825 147.196 68.5616 145.304C67.3407 143.412 65.2385 142.594 63.8663 143.477C62.4941 144.361 62.3715 146.61 63.5924 148.502C64.8133 150.394 66.9154 151.212 68.2876 150.329Z" fill="white"/>
<path d="M168.62 67.3654C171.01 66.0753 172.278 63.7926 171.452 62.2668C170.627 60.7411 168.02 60.55 165.629 61.8401C163.239 63.1302 161.971 65.4129 162.797 66.9387C163.622 68.4644 166.229 68.6555 168.62 67.3654Z" fill="white"/>
<path d="M37.0405 69.2572C39.2939 68.6323 40.3279 65.2748 39.35 61.758C38.3721 58.2413 35.7526 55.897 33.4992 56.5219C31.2457 57.1469 30.2117 60.5044 31.1896 64.0211C32.1675 67.5379 34.787 69.8821 37.0405 69.2572Z" fill="white"/>
<path d="M63.2666 67.9873C63.6728 65.0942 60.755 62.2943 56.7497 61.7336C52.7443 61.1729 49.1681 63.0636 48.762 65.9567C48.3559 68.8499 51.2737 71.6498 55.279 72.2105C59.2843 72.7712 62.8605 70.8805 63.2666 67.9873Z" fill="white"/>
<path d="M85.0437 36.0657C87.4155 31.8397 87.1004 27.1611 84.3399 25.6159C81.5793 24.0708 77.4187 26.2441 75.0469 30.4701C72.6751 34.6962 72.9902 39.3747 75.7507 40.9199C78.5113 42.4651 82.6719 40.2918 85.0437 36.0657Z" fill="white"/>
<path d="M255.749 193.76C257.705 192.26 258.408 189.896 257.319 188.481C256.231 187.066 253.763 187.135 251.807 188.635C249.852 190.136 249.149 192.499 250.237 193.914C251.326 195.329 253.793 195.26 255.749 193.76Z" fill="white"/>
<path d="M247.457 200.642C249.824 198.28 250.566 195.19 249.115 193.739C247.664 192.289 244.569 193.028 242.202 195.39C239.835 197.752 239.093 200.842 240.544 202.293C241.995 203.743 245.091 203.004 247.457 200.642Z" fill="white"/>
<path d="M143.89 64.77C147.112 64.5449 149.619 62.854 149.488 60.9932C149.358 59.1323 146.64 57.8062 143.418 58.0313C140.195 58.2563 137.689 59.9472 137.819 61.8081C137.949 63.6689 140.667 64.995 143.89 64.77Z" fill="white"/>
<path d="M120.793 78.1739C121.654 74.496 120.517 71.0865 118.255 70.5586C115.993 70.0308 113.461 72.5845 112.601 76.2625C111.74 79.9404 112.877 83.3499 115.139 83.8778C117.401 84.4056 119.933 81.8519 120.793 78.1739Z" fill="white"/>
<path d="M138.167 80.8943C141.735 76.7959 142.778 71.8685 140.497 69.8887C138.217 67.9089 133.476 69.6263 129.908 73.7247C126.341 77.8231 125.298 82.7505 127.578 84.7303C129.859 86.7101 134.6 84.9927 138.167 80.8943Z" fill="white"/>
<path d="M94.5274 268.464C96.6832 267.08 96.6012 263.116 94.3442 259.61C92.0872 256.104 88.51 254.383 86.3542 255.767C84.1984 257.151 84.2805 261.116 86.5374 264.622C88.7944 268.128 92.3717 269.848 94.5274 268.464Z" fill="white"/>
<path d="M108.425 54.9245C110.774 53.6564 112.021 51.4135 111.21 49.9148C110.399 48.4162 107.837 48.2293 105.488 49.4974C103.138 50.7655 101.891 53.0084 102.702 54.507C103.513 56.0057 106.075 56.1926 108.425 54.9245Z" fill="white"/>
<path d="M91.096 85.5969C93.3718 84.9658 94.4155 81.5732 93.4272 78.0193C92.439 74.4654 89.793 72.096 87.5173 72.7272C85.2415 73.3583 84.1978 76.7509 85.186 80.3048C86.1743 83.8587 88.8203 86.228 91.096 85.5969Z" fill="white"/>
<path d="M163.034 296.693C163.862 295.142 162.559 292.834 160.124 291.537C157.689 290.241 155.044 290.448 154.216 291.998C153.388 293.549 154.691 295.857 157.126 297.154C159.561 298.45 162.206 298.244 163.034 296.693Z" fill="white"/>
<path d="M166.447 280.168C166.919 277.739 165.101 275.343 162.384 274.816C159.668 274.288 157.083 275.83 156.61 278.259C156.137 280.688 157.956 283.084 160.672 283.611C163.389 284.139 165.974 282.597 166.447 280.168Z" fill="white"/>
<path d="M158.292 288.636C159.706 287.726 159.833 285.407 158.574 283.457C157.316 281.507 155.149 280.664 153.734 281.574C152.32 282.484 152.194 284.803 153.452 286.753C154.711 288.704 156.878 289.547 158.292 288.636Z" fill="white"/>
<path d="M89.8808 108.621C91.4087 107.638 91.644 105.286 90.4064 103.368C89.1688 101.45 86.9268 100.692 85.3989 101.676C83.871 102.659 83.6357 105.011 84.8733 106.929C86.111 108.847 88.3529 109.604 89.8808 108.621Z" fill="white"/>
<path d="M142.319 306.087C145.875 304.714 147.952 301.52 146.959 298.953C145.965 296.387 142.276 295.419 138.72 296.792C135.164 298.166 133.086 301.36 134.08 303.926C135.074 306.493 138.762 307.46 142.319 306.087Z" fill="white"/>
<path d="M132.638 305.559C133.336 303.783 132.09 301.634 129.855 300.758C127.62 299.883 125.243 300.613 124.546 302.389C123.848 304.165 125.094 306.314 127.328 307.19C129.563 308.065 131.94 307.335 132.638 305.559Z" fill="white"/>
<path d="M108.029 87.1365C108.281 85.3426 106.474 83.6069 103.994 83.2596C101.513 82.9124 99.2985 84.0851 99.0467 85.879C98.7949 87.6728 100.602 89.4086 103.082 89.7558C105.562 90.1031 107.777 88.9304 108.029 87.1365Z" fill="white"/>
<path d="M125.82 61.4232C127.13 59.0899 126.955 56.5065 125.43 55.6529C123.905 54.7992 121.607 55.9987 120.298 58.3319C118.988 60.6652 119.163 63.2487 120.688 64.1023C122.213 64.9559 124.511 63.7564 125.82 61.4232Z" fill="white"/>
<path d="M142.403 52.9548C142.554 50.4696 139.191 48.2445 134.892 47.9849C130.593 47.7253 126.986 49.5295 126.835 52.0147C126.685 54.5 130.048 56.7251 134.347 56.9846C138.646 57.2442 142.253 55.44 142.403 52.9548Z" fill="white"/>
<path d="M152.434 43.545C158.051 42.5519 162.144 39.1503 161.576 35.9473C161.008 32.7442 155.994 30.9527 150.378 31.9458C144.761 32.9388 140.668 36.3405 141.236 39.5435C141.804 42.7466 146.817 44.5381 152.434 43.545Z" fill="white"/>
<path d="M106.702 217.158C109.682 216.95 112 215.385 111.879 213.662C111.759 211.94 109.245 210.712 106.265 210.92C103.286 211.129 100.968 212.694 101.088 214.416C101.209 216.138 103.722 217.366 106.702 217.158Z" fill="white"/>
<path d="M102.764 231.885C106.701 227.362 107.855 221.926 105.341 219.744C102.828 217.562 97.5983 219.46 93.6612 223.983C89.7241 228.506 88.5701 233.941 91.0837 236.124C93.5973 238.306 98.8266 236.408 102.764 231.885Z" fill="white"/>
<path d="M105.187 205.595C105.337 203.121 101.989 200.907 97.7087 200.648C93.4289 200.39 89.838 202.186 89.6883 204.659C89.5385 207.133 92.8866 209.348 97.1664 209.606C101.446 209.865 105.037 208.069 105.187 205.595Z" fill="white"/>
<path d="M115.269 196.209C120.901 195.213 125.004 191.8 124.434 188.586C123.864 185.371 118.837 183.573 113.205 184.568C107.573 185.564 103.47 188.977 104.04 192.192C104.609 195.406 109.637 197.205 115.269 196.209Z" fill="white"/>
<path d="M157.195 53.974C159.938 52.9258 161.618 50.6579 160.947 48.9085C160.277 47.1592 157.51 46.5908 154.767 47.639C152.024 48.6872 150.344 50.9551 151.014 52.7045C151.685 54.4538 154.452 55.0223 157.195 53.974Z" fill="white"/>
<path d="M131.814 98.9172C132.641 96.0868 131.899 93.3811 130.158 92.8739C128.417 92.3667 126.335 94.25 125.508 97.0805C124.682 99.9109 125.423 102.617 127.165 103.124C128.906 103.631 130.988 101.748 131.814 98.9172Z" fill="white"/>
<path d="M40.2171 41.9328C42.0757 40.7149 41.9725 37.2774 39.9866 34.2548C38.0008 31.2322 34.8842 29.7691 33.0256 30.987C31.1671 32.2048 31.2703 35.6424 33.2561 38.665C35.242 41.6876 38.3585 43.1506 40.2171 41.9328Z" fill="white"/>
<path d="M31.65 8.81317C32.8111 6.16537 32.4312 3.44112 30.8015 2.72838C29.1718 2.01564 26.9094 3.58433 25.7483 6.23213C24.5872 8.87993 24.9671 11.6042 26.5968 12.3169C28.2265 13.0297 30.4889 11.461 31.65 8.81317Z" fill="white"/>
<path d="M22.1615 42.5063C24.4219 39.9031 24.9022 36.622 23.2345 35.1777C21.5667 33.7334 18.3823 34.6729 16.122 37.2761C13.8616 39.8792 13.3813 43.1603 15.049 44.6046C16.7168 46.0489 19.9012 45.1094 22.1615 42.5063Z" fill="white"/>
<path d="M46.4556 18.274C48.3644 13.921 47.5476 9.35825 44.6311 8.08274C41.7146 6.80724 37.8029 9.30203 35.8941 13.655C33.9852 18.008 34.8021 22.5708 37.7185 23.8463C40.635 25.1218 44.5467 22.627 46.4556 18.274Z" fill="white"/>
<path d="M167.697 186.566C168.355 184.305 167.428 182.048 165.627 181.525C163.826 181.003 161.832 182.412 161.174 184.673C160.517 186.935 161.443 189.192 163.245 189.714C165.046 190.237 167.039 188.827 167.697 186.566Z" fill="white"/>
<path d="M171.868 199.635C173.769 195.3 172.955 190.755 170.049 189.484C167.143 188.213 163.246 190.698 161.345 195.033C159.444 199.368 160.259 203.913 163.164 205.184C166.07 206.455 169.967 203.97 171.868 199.635Z" fill="white"/>
<path d="M17.9245 24.2524C19.519 23.4906 19.9567 21.0889 18.9023 18.8882C17.8479 16.6875 15.7007 15.5211 14.1062 16.283C12.5118 17.0449 12.074 19.4465 13.1284 21.6472C14.1828 23.8479 16.3301 25.0143 17.9245 24.2524Z" fill="white"/>
<path d="M121.039 105.725C123.439 104.808 124.91 102.824 124.324 101.294C123.738 99.7642 121.317 99.2677 118.916 100.185C116.516 101.102 115.045 103.086 115.631 104.616C116.217 106.146 118.638 106.642 121.039 105.725Z" fill="white"/>
<path d="M107.83 34.6607C109.517 32.4025 109.688 29.6807 108.212 28.5815C106.737 27.4823 104.173 28.4219 102.486 30.6802C100.799 32.9385 100.628 35.6603 102.104 36.7595C103.579 37.8587 106.143 36.919 107.83 34.6607Z" fill="white"/>
<path d="M46.4463 186.038C49.7845 185.804 52.3812 184.053 52.2461 182.126C52.1111 180.199 49.2954 178.826 45.9571 179.059C42.6189 179.293 40.0222 181.044 40.1572 182.971C40.2923 184.898 43.108 186.271 46.4463 186.038Z" fill="white"/>
<path d="M38.3572 213.024C41.0613 209.917 41.8532 206.183 40.126 204.684C38.3988 203.184 34.8066 204.487 32.1025 207.594C29.3984 210.7 28.6065 214.434 30.3337 215.933C32.0609 217.433 35.6531 216.13 38.3572 213.024Z" fill="white"/>
<path d="M31.5289 179.598C33.7866 178.379 34.9847 176.223 34.2048 174.782C33.425 173.341 30.9625 173.161 28.7047 174.379C26.447 175.598 25.2489 177.754 26.0288 179.195C26.8086 180.636 29.2711 180.816 31.5289 179.598Z" fill="white"/>
<path d="M31.0603 194.589C32.4585 192.098 32.2738 189.341 30.6478 188.43C29.0217 187.52 26.5701 188.802 25.1719 191.293C23.7737 193.784 23.9584 196.542 25.5845 197.452C27.2105 198.362 29.6621 197.08 31.0603 194.589Z" fill="white"/>
<path d="M70.6524 123.228C72.3859 122.408 72.7066 119.456 71.3687 116.635C70.0309 113.813 67.541 112.191 65.8075 113.01C64.074 113.83 63.7533 116.782 65.0912 119.603C66.4291 122.425 68.9189 124.048 70.6524 123.228Z" fill="white"/>
<path d="M36.4005 169.565C36.5048 167.842 34.1723 166.299 31.1907 166.119C28.2091 165.939 25.7074 167.19 25.603 168.913C25.4987 170.637 27.8312 172.18 30.8128 172.36C33.7944 172.54 36.2961 171.289 36.4005 169.565Z" fill="white"/>
<path d="M66.4783 169.135C70.1526 166.152 71.6925 161.966 69.9178 159.786C68.1431 157.606 63.7258 158.257 60.0515 161.24C56.3772 164.223 54.8372 168.409 56.612 170.589C58.3867 172.769 62.804 172.118 66.4783 169.135Z" fill="white"/>
<path d="M75.342 131.893C76.195 129.341 73.7141 126.215 69.8009 124.91C65.8876 123.606 62.0238 124.617 61.1708 127.169C60.3179 129.72 62.7987 132.846 66.712 134.151C70.6253 135.456 74.4891 134.445 75.342 131.893Z" fill="white"/>
<path d="M61.369 33.3845C63.0398 32.5944 63.3497 29.7514 62.0614 27.0344C60.7731 24.3175 58.3743 22.7554 56.7035 23.5456C55.0328 24.3357 54.7228 27.1787 56.0112 29.8957C57.2995 32.6126 59.6983 34.1746 61.369 33.3845Z" fill="white"/>
<path d="M65.8476 42.1387C66.6652 39.693 64.2861 36.6963 60.5339 35.4454C56.7817 34.1945 53.0773 35.1631 52.2597 37.6088C51.4422 40.0546 53.8212 43.0512 57.5734 44.3021C61.3256 45.553 65.0301 44.5844 65.8476 42.1387Z" fill="white"/>
<path d="M36.8671 146.542C39.5535 144.165 40.6607 141.032 39.3402 139.543C38.0196 138.055 34.7713 138.775 32.0849 141.152C29.3984 143.529 28.2912 146.662 29.6118 148.151C30.9323 149.639 34.1806 148.919 36.8671 146.542Z" fill="white"/>
<path d="M51.6148 136.031C54.74 134.553 55.6172 129.862 53.574 125.553C51.5308 121.244 47.341 118.949 44.2158 120.427C41.0906 121.905 40.2135 126.596 42.2567 130.905C44.2999 135.214 48.4897 137.509 51.6148 136.031Z" fill="white"/>
<path d="M52.7876 177.555C55.6387 176.466 57.3852 174.109 56.6887 172.291C55.9922 170.473 53.1163 169.883 50.2652 170.973C47.4142 172.062 45.6676 174.419 46.3641 176.237C47.0606 178.055 49.9365 178.645 52.7876 177.555Z" fill="white"/>
<path d="M78.0657 150.249C80.2628 149.938 81.6501 146.908 81.1642 143.481C80.6782 140.055 78.5032 137.528 76.306 137.839C74.1089 138.15 72.7216 141.18 73.2076 144.607C73.6935 148.033 75.8685 150.559 78.0657 150.249Z" fill="white"/>
<path d="M90.1941 130.454C93.4309 128.923 94.4923 124.387 92.5647 120.322C90.6372 116.257 86.4506 114.202 83.2138 115.733C79.977 117.264 78.9157 121.8 80.8432 125.865C82.7708 129.93 86.9573 131.984 90.1941 130.454Z" fill="white"/>
<path d="M148.679 321.072C150.389 320.263 150.705 317.355 149.387 314.575C148.069 311.795 145.615 310.197 143.906 311.006C142.197 311.814 141.88 314.722 143.198 317.502C144.516 320.282 146.97 321.88 148.679 321.072Z" fill="white"/>
<path d="M153.361 329.788C154.207 327.259 151.747 324.159 147.866 322.865C143.986 321.572 140.155 322.574 139.309 325.104C138.464 327.634 140.924 330.733 144.804 332.027C148.684 333.32 152.516 332.318 153.361 329.788Z" fill="white"/>
<path d="M183.403 316.461C186.597 314.95 187.646 310.475 185.745 306.466C183.844 302.456 179.713 300.431 176.518 301.942C173.323 303.453 172.274 307.928 174.175 311.937C176.076 315.946 180.208 317.972 183.403 316.461Z" fill="white"/>
<path d="M45.1287 154.54C47.9946 150.703 48.2865 146.079 45.7808 144.213C43.2751 142.346 38.9206 143.943 36.0547 147.78C33.1889 151.617 32.8969 156.241 35.4026 158.107C37.9083 159.974 42.2628 158.377 45.1287 154.54Z" fill="white"/>
<path d="M47.3271 106.979C47.5597 105.268 45.4882 103.574 42.7004 103.196C39.9125 102.818 37.464 103.899 37.2315 105.61C36.9989 107.321 39.0704 109.014 41.8582 109.392C44.6461 109.77 47.0946 108.69 47.3271 106.979Z" fill="white"/>
<path d="M20.371 203.826C23.4271 201.122 24.6848 197.555 23.1799 195.859C21.6751 194.163 17.9777 194.98 14.9215 197.684C11.8653 200.388 10.6077 203.955 12.1126 205.651C13.6174 207.347 17.3148 206.53 20.371 203.826Z" fill="white"/>
<path d="M30.3554 129.34C32.5449 129.03 33.9264 126.004 33.441 122.581C32.9556 119.158 30.7872 116.635 28.5977 116.944C26.4082 117.254 25.0267 120.28 25.5121 123.703C25.9975 127.126 28.1659 129.65 30.3554 129.34Z" fill="white"/>
<path d="M34.8659 98.4219C36.5471 97.6269 37.0985 95.2712 36.0976 93.1603C35.0966 91.0494 32.9224 89.9828 31.2412 90.7778C29.56 91.5729 29.0085 93.9286 30.0095 96.0395C31.0104 98.1503 33.1847 99.217 34.8659 98.4219Z" fill="white"/>
<path d="M104.659 173.291C108.077 171.674 109.2 166.888 107.166 162.6C105.133 158.312 100.714 156.146 97.2957 157.763C93.8776 159.379 92.7549 164.166 94.7881 168.454C96.8214 172.742 101.241 174.907 104.659 173.291Z" fill="white"/>
<path d="M153.376 247.232C157.708 246.93 161.077 244.655 160.901 242.153C160.726 239.65 157.073 237.866 152.742 238.168C148.411 238.471 145.042 240.745 145.217 243.248C145.392 245.751 149.045 247.535 153.376 247.232Z" fill="white"/>
<path d="M144.033 242.221C145.296 239.972 145.129 237.482 143.661 236.661C142.194 235.839 139.98 236.996 138.718 239.246C137.456 241.495 137.622 243.984 139.09 244.806C140.558 245.627 142.771 244.47 144.033 242.221Z" fill="white"/>
<path d="M136.368 161.366C138.128 160.869 139.307 159.592 139.002 158.512C138.697 157.433 137.022 156.961 135.262 157.458C133.501 157.954 132.322 159.232 132.627 160.311C132.933 161.391 134.607 161.863 136.368 161.366Z" fill="white"/>
<path d="M132.091 157.992C132.109 156.335 129.799 154.967 126.932 154.936C124.065 154.905 121.726 156.223 121.708 157.88C121.69 159.537 124 160.906 126.867 160.937C129.734 160.968 132.073 159.65 132.091 157.992Z" fill="white"/>
<path d="M186.352 64.8057C188.172 63.9357 188.676 61.2012 187.477 58.6981C186.278 56.1949 183.829 54.8709 182.009 55.7409C180.188 56.6109 179.684 59.3454 180.884 61.8486C182.083 64.3518 184.531 65.6757 186.352 64.8057Z" fill="white"/>
<path d="M192.069 71.2052C192.457 68.4457 189.676 65.7753 185.857 65.2408C182.039 64.7063 178.63 66.51 178.243 69.2696C177.855 72.0291 180.637 74.6995 184.455 75.234C188.273 75.7685 191.682 73.9648 192.069 71.2052Z" fill="white"/>
<path d="M149.38 226.043C150.113 223.131 149.34 220.427 147.652 220.003C145.964 219.579 144.001 221.596 143.267 224.507C142.534 227.419 143.308 230.123 144.996 230.547C146.684 230.971 148.646 228.954 149.38 226.043Z" fill="white"/>
<path d="M165.632 215.311C167.108 213.088 166.993 210.418 165.376 209.346C163.758 208.275 161.25 209.208 159.774 211.431C158.298 213.654 158.413 216.324 160.031 217.396C161.649 218.467 164.157 217.534 165.632 215.311Z" fill="white"/>
<path d="M157.367 225.792C159.959 224.698 160.834 220.914 159.322 217.339C157.81 213.763 154.483 211.751 151.891 212.845C149.299 213.938 148.424 217.723 149.937 221.298C151.449 224.873 154.776 226.885 157.367 225.792Z" fill="white"/>
<path d="M201.147 167.489C203.037 166.586 203.562 163.751 202.32 161.157C201.077 158.564 198.537 157.193 196.647 158.097C194.757 159 194.232 161.835 195.474 164.428C196.717 167.022 199.257 168.392 201.147 167.489Z" fill="white"/>
<path d="M202.787 155.216C204.356 153.115 204.514 150.583 203.141 149.559C201.767 148.536 199.382 149.41 197.813 151.511C196.244 153.611 196.085 156.144 197.459 157.167C198.832 158.19 201.218 157.316 202.787 155.216Z" fill="white"/>
<path d="M17.3787 68.3115C19.2116 64.1315 18.2387 59.6676 15.2056 58.341C12.1724 57.0145 8.22767 59.3277 6.39467 63.5077C4.56168 67.6877 5.53459 72.1516 8.56773 73.4781C11.6009 74.8047 15.5457 72.4915 17.3787 68.3115Z" fill="white"/>
<path d="M7.44318 83.7399C9.65379 82.6836 10.2616 79.3556 8.80079 76.3066C7.33996 73.2576 4.36367 71.6422 2.15306 72.6985C-0.0575538 73.7549 -0.665376 77.0829 0.795451 80.1319C2.25628 83.1809 5.23257 84.7962 7.44318 83.7399Z" fill="white"/>
<path d="M121.825 122.41C123.403 120.297 123.564 117.751 122.185 116.723C120.805 115.695 118.407 116.575 116.829 118.688C115.251 120.801 115.09 123.347 116.469 124.375C117.849 125.403 120.247 124.523 121.825 122.41Z" fill="white"/>
<path d="M72.1685 200.84C74.3373 199.804 74.9383 196.548 73.5108 193.569C72.0832 190.589 69.1678 189.014 66.999 190.051C64.8302 191.087 64.2292 194.342 65.6567 197.322C67.0842 200.301 69.9996 201.877 72.1685 200.84Z" fill="white"/>
<path d="M78.7727 207.823C79.2211 204.628 76 201.537 71.578 200.918C67.1561 200.299 63.2079 202.386 62.7595 205.581C62.311 208.776 65.5322 211.867 69.9541 212.486C74.376 213.105 78.3242 211.018 78.7727 207.823Z" fill="white"/>
<path d="M74.299 185.751C76.2096 183.193 76.4042 180.111 74.7338 178.867C73.0633 177.622 70.1603 178.687 68.2497 181.245C66.3391 183.803 66.1444 186.885 67.8149 188.13C69.4854 189.374 72.3884 188.309 74.299 185.751Z" fill="white"/>
<path d="M222.159 302.927C222.167 301.259 219.968 299.895 217.247 299.882C214.527 299.869 212.314 301.211 212.306 302.879C212.298 304.548 214.497 305.912 217.218 305.925C219.938 305.938 222.151 304.596 222.159 302.927Z" fill="white"/>
<path d="M241.64 315.911C243.093 314.976 243.036 312.303 241.512 309.942C239.988 307.58 237.574 306.424 236.121 307.359C234.668 308.294 234.725 310.967 236.249 313.329C237.773 315.691 240.187 316.847 241.64 315.911Z" fill="white"/>
<path d="M254.42 272.755C257.272 272.556 259.491 271.057 259.376 269.408C259.26 267.758 256.854 266.583 254.001 266.782C251.149 266.981 248.93 268.48 249.045 270.129C249.161 271.779 251.567 272.954 254.42 272.755Z" fill="white"/>
<path d="M262.674 254.099C266.966 252.748 269.819 249.669 269.046 247.22C268.274 244.772 264.169 243.882 259.877 245.233C255.585 246.584 252.732 249.663 253.504 252.111C254.277 254.559 258.382 255.449 262.674 254.099Z" fill="white"/>
<path d="M235.881 267.31C236.842 263.204 235.783 259.447 233.517 258.918C231.251 258.389 228.635 261.289 227.675 265.395C226.714 269.501 227.773 273.258 230.039 273.787C232.305 274.315 234.921 271.416 235.881 267.31Z" fill="white"/>
<path d="M259.722 302.734C261.043 301.884 261.16 299.719 259.985 297.898C258.811 296.078 256.788 295.291 255.467 296.14C254.147 296.99 254.029 299.155 255.204 300.975C256.379 302.796 258.402 303.583 259.722 302.734Z" fill="white"/>
<path d="M251.118 366.655C252.51 365.759 252.635 363.479 251.397 361.561C250.16 359.643 248.028 358.814 246.637 359.71C245.245 360.606 245.12 362.886 246.358 364.804C247.595 366.722 249.727 367.551 251.118 366.655Z" fill="white"/>
<path d="M247.226 256.931C249.653 255.621 250.941 253.303 250.103 251.753C249.264 250.204 246.617 250.01 244.189 251.32C241.762 252.63 240.473 254.948 241.312 256.498C242.151 258.047 244.798 258.241 247.226 256.931Z" fill="white"/>
<path d="M139.679 289.2C143.742 287.922 146.443 285.005 145.711 282.685C144.98 280.366 141.092 279.522 137.028 280.801C132.965 282.079 130.264 284.996 130.996 287.316C131.728 289.635 135.615 290.479 139.679 289.2Z" fill="white"/>
<path d="M123.53 292.711C126.324 291.203 127.807 288.534 126.841 286.751C125.876 284.968 122.829 284.744 120.035 286.253C117.24 287.761 115.758 290.429 116.723 292.212C117.688 293.996 120.736 294.219 123.53 292.711Z" fill="white"/>
<path d="M222.538 288.914C225.431 288.112 226.757 283.797 225.5 279.278C224.244 274.759 220.88 271.745 217.987 272.548C215.094 273.35 213.767 277.664 215.024 282.184C216.281 286.703 219.645 289.716 222.538 288.914Z" fill="white"/>
<path d="M266.077 264.822C267.413 262.442 267.235 259.807 265.679 258.936C264.124 258.066 261.78 259.29 260.444 261.67C259.108 264.05 259.286 266.686 260.842 267.556C262.397 268.427 264.741 267.203 266.077 264.822Z" fill="white"/>
<path d="M256.282 342.081C257.939 341.014 258.195 338.463 256.853 336.383C255.511 334.303 253.079 333.482 251.421 334.549C249.764 335.616 249.508 338.167 250.85 340.247C252.192 342.327 254.624 343.148 256.282 342.081Z" fill="white"/>
<path d="M261.739 233.151C261.841 231.463 259.554 229.95 256.63 229.774C253.706 229.597 251.253 230.823 251.151 232.512C251.049 234.201 253.336 235.713 256.26 235.89C259.184 236.066 261.637 234.84 261.739 233.151Z" fill="white"/>
<path d="M173.62 378.39C177.387 377.609 180.027 374.986 179.517 372.534C179.006 370.081 175.539 368.726 171.772 369.508C168.004 370.29 165.364 372.912 165.875 375.365C166.385 377.818 169.853 379.172 173.62 378.39Z" fill="white"/>
<path d="M165.013 384.882C168.749 383.438 171.029 380.335 170.105 377.951C169.181 375.568 165.403 374.806 161.667 376.251C157.931 377.695 155.651 380.798 156.575 383.182C157.499 385.565 161.276 386.327 165.013 384.882Z" fill="white"/>
<path d="M219.634 355.643C223.257 354.891 225.797 352.369 225.306 350.011C224.815 347.652 221.48 346.35 217.856 347.102C214.233 347.854 211.693 350.376 212.184 352.734C212.675 355.093 216.01 356.395 219.634 355.643Z" fill="white"/>
<path d="M210.605 364.019C214.144 362.666 216.312 359.74 215.448 357.483C214.583 355.226 211.012 354.493 207.473 355.846C203.933 357.198 201.765 360.124 202.63 362.381C203.495 364.638 207.065 365.371 210.605 364.019Z" fill="white"/>
<path d="M187.987 398.099C190.959 397.892 193.271 396.33 193.151 394.611C193.03 392.893 190.523 391.668 187.551 391.875C184.579 392.083 182.267 393.644 182.388 395.363C182.508 397.082 185.015 398.307 187.987 398.099Z" fill="white"/>
<path d="M176.289 402.686C179.299 402.475 181.641 400.893 181.519 399.151C181.397 397.41 178.858 396.168 175.847 396.378C172.837 396.589 170.495 398.171 170.617 399.913C170.739 401.654 173.278 402.896 176.289 402.686Z" fill="white"/>
<path d="M203.058 404.981C205.224 403.812 206.375 401.746 205.628 400.366C204.881 398.986 202.52 398.815 200.354 399.984C198.188 401.153 197.037 403.22 197.784 404.6C198.531 405.98 200.892 406.151 203.058 404.981Z" fill="white"/>
<path d="M255.871 352.27C257.332 351.579 257.602 349.09 256.474 346.711C255.346 344.332 253.247 342.963 251.785 343.654C250.324 344.346 250.054 346.835 251.182 349.214C252.31 351.593 254.409 352.961 255.871 352.27Z" fill="white"/>
<path d="M213.955 381.901C214.059 380.185 211.739 378.649 208.772 378.47C205.806 378.291 203.317 379.537 203.213 381.252C203.11 382.968 205.43 384.504 208.396 384.683C211.362 384.862 213.851 383.617 213.955 381.901Z" fill="white"/>
<path d="M262.571 391.235C265.53 388.833 266.77 385.463 265.341 383.707C263.912 381.952 260.355 382.476 257.396 384.878C254.438 387.28 253.198 390.65 254.627 392.406C256.056 394.161 259.613 393.637 262.571 391.235Z" fill="white"/>
<path d="M231.355 372.972C236.39 368.517 238.464 362.642 235.986 359.849C233.509 357.057 227.419 358.404 222.384 362.859C217.349 367.314 215.276 373.189 217.753 375.981C220.231 378.774 226.321 377.426 231.355 372.972Z" fill="white"/>
<path d="M237.912 346.136C239.482 345.393 239.922 343.038 238.897 340.875C237.871 338.712 235.767 337.56 234.198 338.302C232.628 339.045 232.187 341.4 233.213 343.563C234.239 345.726 236.342 346.878 237.912 346.136Z" fill="white"/>
<path d="M266.313 361.752C268.845 360.554 269.675 357.005 268.167 353.825C266.659 350.645 263.384 349.038 260.851 350.235C258.319 351.433 257.489 354.982 258.997 358.162C260.505 361.342 263.78 362.949 266.313 361.752Z" fill="white"/>
<path d="M141.915 206.826C144.07 206.521 145.43 203.546 144.953 200.18C144.476 196.814 142.342 194.333 140.187 194.638C138.032 194.942 136.671 197.918 137.149 201.284C137.626 204.649 139.76 207.131 141.915 206.826Z" fill="white"/>
<path d="M140.725 192.368C143.306 191.148 144.153 187.532 142.617 184.292C141.081 181.053 137.743 179.416 135.162 180.637C132.581 181.858 131.734 185.473 133.27 188.713C134.806 191.952 138.144 193.589 140.725 192.368Z" fill="white"/>
<path d="M232.999 387.719C234.644 385.516 234.812 382.862 233.374 381.79C231.935 380.719 229.435 381.636 227.79 383.838C226.145 386.041 225.977 388.695 227.416 389.767C228.854 390.838 231.354 389.921 232.999 387.719Z" fill="white"/>
<path d="M234.767 334.144C234.983 332.504 232.986 330.889 230.308 330.538C227.63 330.186 225.284 331.232 225.068 332.872C224.852 334.513 226.849 336.128 229.527 336.479C232.205 336.83 234.551 335.785 234.767 334.144Z" fill="white"/>
<path d="M210.076 322.621C211.694 321.856 211.994 319.1 210.745 316.467C209.497 313.834 207.172 312.319 205.554 313.085C203.936 313.85 203.636 316.605 204.885 319.239C206.133 321.872 208.457 323.386 210.076 322.621Z" fill="white"/>
<path d="M201.414 375.885C203.085 374.529 203.786 372.626 202.98 371.636C202.174 370.647 200.167 370.944 198.496 372.3C196.825 373.657 196.123 375.559 196.929 376.549C197.735 377.539 199.743 377.242 201.414 375.885Z" fill="white"/>
<path d="M191.878 383.867C195.349 382.54 197.475 379.67 196.627 377.457C195.778 375.243 192.277 374.524 188.806 375.85C185.335 377.177 183.209 380.046 184.057 382.26C184.905 384.474 188.407 385.193 191.878 383.867Z" fill="white"/>
<path d="M219.515 347.49C221.468 347.214 222.7 344.518 222.268 341.469C221.836 338.42 219.902 336.173 217.95 336.449C215.997 336.725 214.765 339.42 215.197 342.469C215.629 345.518 217.563 347.766 219.515 347.49Z" fill="white"/>
<path d="M222.559 313.716C224.24 312.921 224.791 310.566 223.79 308.455C222.789 306.344 220.615 305.277 218.934 306.072C217.253 306.867 216.701 309.223 217.702 311.334C218.703 313.445 220.878 314.512 222.559 313.716Z" fill="white"/>
</g>
<defs>
<clipPath id="clip0_1_15">
<rect width="260" height="416" fill="white"/>
</clipPath>
</defs>
</svg>
